<svg xmlns="http://www.w3.org/2000/svg" xmlns:xlink="http://www.w3.org/1999/xlink" viewBox="0 0 285.8 285.8"><style>.st1{clip-path:url(#a)}.st2{clip-path:url(#b)}.st3{fill:#fff}.st4{fill:#ab2617}</style><switch><g><defs><circle id="d" cx="140.4" cy="142.9" r="132.5"/></defs><clipPath id="a"><use xlink:href="#d"/></clipPath><path clip-path="url(#a)" fill="#2352a0" d="M-2.3 10.4h371.9v265H-2.3z"/><g class="st1"><defs><path id="c" d="M-12.3-9.8h151.6v151.6H-12.3z"/></defs><clipPath id="b"><use xlink:href="#c"/></clipPath><g class="st2"><path class="st3" d="M-53.411-14.022l16.122-16.122 76.296 76.296-16.122 16.122z"/></g><g class="st2"><path class="st4" d="M-50.215-17.235l6.435-6.435 76.296 76.296-6.435 6.435z"/></g><g class="st2"><path class="st3" d="M63.661 46.158l76.296-76.296 16.122 16.122L79.783 62.28z"/></g><g class="st2"><path class="st4" d="M66.874 49.355l76.296-76.296 6.435 6.434L73.308 55.79z"/></g><g class="st2"><path class="st3" d="M63.599 101.482L79.72 85.36l76.297 76.297-16.122 16.121z"/></g><g class="st2"><path class="st4" d="M70.089 95l6.434-6.434 76.296 76.296-6.434 6.435z"/></g><g class="st2"><path class="st3" d="M-47.24 161.632l76.297-76.296 16.122 16.122-76.296 76.296z"/></g><g class="st2"><path class="st4" d="M-40.835 168.052L35.46 91.756l6.435 6.435-76.296 76.296z"/></g><g class="st2"><path class="st4" d="M157.7 60.9H65.8V-31H36.9v91.9H-55v28.9h91.9v91.9h28.9V89.8h91.9z"/><path class="st3" d="M65.8-31v91.9h91.9v28.9H65.8v91.9H36.9V89.8H-55V60.9h91.9V-31h28.9M80-45.3H22.6v92h-91.9V104h92v92H80v-92h92V46.6H80v-91.9z"/></g></g><g class="st1"><path fill="#cd142c" d="M221.2 97l5.6 17.3H245L230.3 125l5.6 17.4-14.7-10.7-14.7 10.7 5.6-17.4-14.8-10.7h18.3z"/><path class="st3" d="M237.9 145l-16.7-12.1-16.7 12.1 6.4-19.6-16.7-12.1h20.6l6.4-19.6 6.4 19.6h20.6l-16.7 12.1 6.4 19.6zm-37.4-29.6l12.8 9.3-4.9 15 12.8-9.3 12.8 9.3-4.9-15 12.8-9.3h-15.8l-4.9-15-4.9 15h-15.8z"/></g></g></switch></svg>