<svg viewBox="0 0 285.8 285.8" xmlns="http://www.w3.org/2000/svg"><path d="m19.8 188.3c18.5 50 66.7 85.8 123.1 85.8s104.6-35.8 123.1-85.8z" fill="#147b4d"/><path d="m11.6 142.9c0 16 2.9 31.3 8.1 45.4h246.3c5.2-14.2 8.1-29.5 8.1-45.4 0-15-2.5-29.5-7.2-42.9h-248c-4.7 13.4-7.3 27.9-7.3 42.9z" fill="#ab2617"/><path d="m17.5 100h250.8c-16-46.5-57.1-81.4-107.1-88.3h-36.6c-50 6.9-91.1 41.8-107.1 88.3z" fill="#fff"/><path d="m91.4 20.8c-47.6 20.1-81 67.3-81 122.1s33.5 102 81 122.1z" fill="#ab2617"/><circle cx="142.9" cy="144.2" fill="none" r="132.5"/><path clip-rule="evenodd" d="m71.1 94.1c-1.1 0-1.9-.7-2.8-1.3-6.2-4.9-12.7-8.9-18.4-15 .6-.4.7-1.2 1.4-1.3.5-.1 1.1.2.9.8.4.8 1.2 1.7 2.2 1.6s2.1-.7 2.7-1.6l.4-.7c0 1.2 1 2.3 2.3 2.3h6.4c1.2 0 2.3-1 2.3-2.3v-3.5c0-1.2-1-2.3-2.3-2.3h-6.4c-1.2 0-2.3 1-2.3 2.3l.1.5c-1.2.1-.4-1.5-1.3-1.9-.8-.9-2.1-.7-3-.4l3.5-3.9.8-.3c1.7-.3.4-1.9.4-2.9 4.7-5.2 6.6-11.8 11.7-16.5 0-.8.9-1.8-.2-2.4-.4-.3-.8-.2-1.2-.1-5.4 5-9.9 10.9-14.6 16.3-.6.2-1.5.2-1.7 1 .3 2.1-1.7 3.3-2.7 4.8-.4-2.5 0-5.3-.6-7.8-1.5-1.2-1.1-3.3-1.1-5.1.8-.4 1.3-1.4 1.9-2 .5-.1 1.2.3 1.4-.4.3-.7 0-1.5-.5-2h-.4c-2 2-3.8 4-5.7 6.1.1.9.2 1.7-.9 2-1.6 2.6-1.2 6.1-1.4 9.2-.6-1.6-3.1-2.5-2.3-4.4l-.7-.1c-1.3 1.7-2.5 3.4-3.7 5.1.4.2.8.5 1.1.9 1 1.2 2.2 2.5 2.9 3.9-.2.2-.4.5-.7.3v-.4c-.4-.8-1.2-1.2-2-1.3-1.2.1-2.1.6-2.4 1.7 0-.8-.4-1.5-1-1.9-1.6 2.5-3.2 5.1-4.7 7.7h3.5c1.2 0 2.3-1 2.3-2.3l.1.7c.1.5.6.8.9 1.2.8.6 1.6.8 2.6.5-.9.8-2.3.4-3.5.8-1.3.7-3.5 1-3.4 3 .2.8 1 1.4 1.7 1.7-3.5 3.2-7.2 6-11 8.5-.7 1.7-1.4 3.4-2 5.2 2.1-.2 3.8-1.8 5.9-2.1.5-.2 1-.6 1.1-1.2 4.4-2.4 8.5-5.6 12.3-9.2l3.3.2c2.3-.3 4.5-1.2 5.9-3.3 5.3 4.5 10.8 9.5 16.9 13 .6.3.3 1.4 1.2 1.1 2.3 1.4 5.1 2 7.9 2 .9 0 .8-1.1.7-1.7-.8-1.6-2.5-2-3.8-2.8z" fill="#fff" fill-rule="evenodd"/></svg>