<svg xmlns="http://www.w3.org/2000/svg" xmlns:xlink="http://www.w3.org/1999/xlink" version="1.1" id="Layer_1" x="0" y="0" viewBox="0 0 285.8 285.8" xml:space="preserve"><style>.st5{fill:#2352a0}</style><defs><circle id="SVGID_1_" cx="141.6" cy="142.9" r="132.5"/></defs><clipPath id="SVGID_2_"><use xlink:href="#SVGID_1_" overflow="visible"/></clipPath><circle cx="141.6" cy="142.9" r="132.5" clip-path="url(#SVGID_2_)" fill="none"/><defs><circle id="SVGID_3_" cx="141.6" cy="142.9" r="132.5"/></defs><clipPath id="SVGID_4_"><use xlink:href="#SVGID_3_" overflow="visible"/></clipPath><circle cx="141.6" cy="142.9" r="132.5" clip-path="url(#SVGID_4_)" fill="none"/><g><defs><circle id="SVGID_5_" cx="141.6" cy="142.9" r="132.5"/></defs><clipPath id="SVGID_6_"><use xlink:href="#SVGID_5_" overflow="visible"/></clipPath><circle cx="141.6" cy="142.9" r="132.5" clip-path="url(#SVGID_6_)" fill="none"/></g><g><defs><circle id="SVGID_7_" cx="141.6" cy="142.9" r="132.5"/></defs><clipPath id="SVGID_8_"><use xlink:href="#SVGID_7_" overflow="visible"/></clipPath><g clip-path="url(#SVGID_8_)"><path fill="#fff" d="M9.1 56.8h265V229H9.1z"/><path class="st5" d="M9.1 227.8h265v59.3H9.1zM9.1-1.9h265v60.3H9.1z"/></g></g><path class="st5" d="M179.51 144.12l18.76-32.71h-37.69l-18.56-32.07-18.4 32.07H86.28l18.76 32.42-18.76 32.71h37.69l18.56 32.07 18.4-32.07h37.36l-18.78-32.42zm.61-22.19l-6.7 11.67-6.76-11.67h13.46zm-12.74 22.22l-12.55 21.88h-24.8l-12.86-22.22 12.55-21.88h24.8l12.86 22.22zm-25.31-43.74l6.37 11.01h-12.69l6.32-11.01zm-37.56 21.52h13.09l-6.52 11.36-6.57-11.36zm-.08 44.1l6.7-11.67 6.76 11.67h-13.46zm38.05 21.52l-6.37-11.01h12.69l-6.32 11.01zm30.99-32.89l6.58 11.36h-13.09l6.51-11.36z"/></svg>