<svg xmlns="http://www.w3.org/2000/svg" xmlns:xlink="http://www.w3.org/1999/xlink" viewBox="0 0 285.8 285.8"><style>.st0{clip-path:url(#b)}.st1{fill:#ab2617}.st4{fill:#010101}.st5{fill:#1e1e1c}.st6{fill:#ffee5d}.st7{fill:#aa2718}.st8{fill:#cfcfd0}.st9{fill:#25529f}.st10{fill:#feef61}.st11,.st17,.st18{fill-rule:evenodd;clip-rule:evenodd;fill:#aa2718}.st17,.st18{fill:#137c4d}.st18{fill:#ffee5d}</style><switch><g><defs><circle id="e" cx="142.9" cy="141.6" r="132.5"/></defs><clipPath id="b"><use xlink:href="#e"/></clipPath><g class="st0"><path class="st1" d="M10.4 10.4h265v88.3h-265z"/></g><g class="st0"><path class="st1" d="M10.4 187.1h265v88.3h-265z"/></g><path transform="rotate(90 142.93 142.65)" clip-path="url(#b)" fill="#ffee5b" d="M87.8 10.2h110.3v265H87.8z"/><path class="st4" d="M125.4 90.3v.2c0 .1 0 .1.1.2.1.2.3.4.6.6.1 0 .2.1.4.1.1 0 .3 0 .4-.1.2-.1.3-.2.5-.3l.1-.1s0-.1.1-.1c0 0 0-.1.1-.1v-.6c-.1-.4-.4-.7-.7-.8h-.8c-.1 0-.2.1-.3.1-.1.1-.2.1-.2.2-.1.1-.1.2-.2.3v.1c-.1.1-.1.2-.1.3z"/><path class="st5" d="M126.5 93.8c-.4 0-.8-.1-1.2-.2-.1 0-.2-.1-.2-.1-.6-.2-1.3-.8-1.7-1.6v-.2c0-.1 0-.1-.1-.2 0 0 0-.1-.1-.1 0-.1-.1-.3-.1-.4 0-.2-.1-.5-.1-.7 0-.1 0-.5.1-.7v-.2c0-.1 0-.1.1-.2 0-.1 0-.1.1-.2.1-.3.3-.6.5-.9.1-.1.1-.2.2-.2.1-.1.3-.3.6-.5s.6-.3.9-.4c1-.3 1.4-.2 2-.1 1.4.4 2.4 1.4 2.6 2.7 0 .2.1.5.1.7s0 .5-.1.7c0 .1-.1.4-.2.5-.1.3-.2.5-.3.6l-.1.2c-.1.1-.2.2-.2.3-.3.4-.8.7-1.4 1-.1 0-.2.1-.3.1-.3 0-.7.1-1.1.1zm-1.1-3c.2.4.5.7.8.8h.1l-.2-.4v.1-.1l-.3-.6-.3.1.3-.2v-.1l-.3.1.2-.1-.3.1.3-.1-.1-.1h-.3.3l-.4-.2v.2c0 .1 0 .2.1.3h.1-.1c0 .1 0 .1.1.2l.1-.1-.1.1zm1.4-1.2h.8c-.2-.3-.4-.4-.6-.5l-.2.5zm-.3 0h.1l.2-.6h-.4l.1.6zm-.8 0h.5l-.2-.5c-.2.1-.4.2-.5.4l.2.1z"/><path class="st4" d="M122.4 96.6c0 .1 0 .1.1.2v.1l.1.1.1.1c.1.1.2.1.3.1h.4c.2 0 .3 0 .4-.1 0 0 .1 0 .1-.1.1 0 .1 0 .2-.1l.1-.1.1-.1c.1-.1.1-.2.2-.3v-.1c0-.1.1-.3.1-.4s0-.2-.1-.3c0-.1-.1-.2-.1-.3l-.1-.1s-.1 0-.1-.1c0 0-.1 0-.1-.1h-.1s-.1 0-.1-.1h-.7s-.1 0-.1.1c0 0-.1 0-.1.1h-.1c-.2.2-.4.5-.4.8-.2.4-.2.5-.1.7-.1-.1-.1 0 0 0z"/><path class="st5" d="M123.4 99.8c-.3 0-.6 0-1-.1-.1 0-.2-.1-.3-.1-.2-.1-.4-.2-.7-.3 0 0-.1 0-.1-.1l-.3-.3-.3-.3-.2-.2c-.1-.1-.2-.3-.3-.4 0 0-.1-.1-.1-.2s-.1-.4-.2-.5c0-.1-.1-.3-.1-.4s-.1-.4-.1-.7c0-1 .5-2 1.3-2.7 0 0 .2-.1.2-.2.1 0 .2-.1.3-.2s.2-.1.3-.2c.1 0 .2-.1.3-.1s.3-.1.4-.1c.5-.1 1-.1 1.5 0 .1 0 .2.1.3.1s.3.1.4.2c.1 0 .2.1.3.1s.3.2.3.2c.1.1.3.2.3.3l.1.1c.1.1.2.2.2.3s.1.1.1.2c.1.2.3.5.4.8.1.4.2.8.2 1.2s-.1.8-.2 1.2c0 .1-.1.2-.1.3-.1.3-.3.6-.6.9l-.2.2s-.2.1-.2.2c-.3.2-.5.3-.6.3-.1.1-.2.1-.3.1-.2.3-.6.4-1 .4zm0-3.3l-.3 1.1h.3v-1.1zm-.7.9c.1 0 .1.1.2.1l.3-.7-.4.4-.1.2c-.1-.1-.1-.1 0 0l.1-.2-.1.2.1-.2-.1.2zm1.3-.3l.2.3c.4-.3.5-.7.5-1.1V96l-1.1.3v.1l.4.7zm-1.6-1.6c-.1.1-.2.2-.2.3s-.1.3-.1.4v.3l.9-.4-.6-.6zm1-.5c-.1 0-.3 0-.4.1l.2.7.2-.5V95c.1 0 0 0 0 0zm-.7.2s-.1 0 0 0l.2.4-.2-.4z"/><path class="st4" d="M106.8 107.7h.9c.1 0 .1-.1.2-.1h.1l.2-.2c0-.1.1-.1.1-.2v-.4c0-.7-.5-1.1-1.2-1.1-.6 0-1.1.4-1.1 1.1v.3c.1.3.3.5.5.6h.3z"/><path class="st5" d="M107.1 110.1c-.2 0-.5 0-.7-.1-.1 0-.3-.1-.4-.1h-.2c-.1 0-.2-.1-.2-.1-.1 0-.1-.1-.2-.1-.8-.4-1.3-1.1-1.6-2-.1-.5-.2-.8-.2-1.1 0-2 1.5-3.5 3.5-3.5s3.6 1.5 3.6 3.5c0 .3 0 .6-.1.9 0 .1 0 .1-.1.2-.1.2-.2.5-.3.7 0 .1-.1.1-.1.2-.2.3-.4.5-.6.7-.1.1-.2.1-.2.2-.1.1-.2.1-.3.2s-.2.1-.3.2c-.1 0-.2.1-.3.1h-.2c-.1 0-.2.1-.4.1h-.7zm-.3-2.2c.3.1.6 0 .8-.1v-.2l.1.2s.1 0 .1-.1l-.1-.2.1.1c.2-.1.3-.3.4-.4l-.1-.1.1.1c0-.1.1-.1.1-.2l-.1-.1h.1c0-.1.1-.3.1-.4v-.3c-.1-.3-.2-.5-.4-.7l-.6.9v.1l.8.4-.7-.2.6.4-.5-.2.3.4-.5-.5.2.7-.1-.1v.1l-.3-.5.1.6-.2-.8-.1.2-.1.7.1-.6-.3.5.1-.2-.1.2v-.1.1l.4-.9-.1-.1-1-.2v.2c0 .5.3.9.6 1.1l.1-.2-.1.2h.1l.1-.2-.1.2c-.1.2 0 .2.1.2v-.2.2zm-.6-2.2l-.2.2.7.4-.5-.6zm1.1-.4l-.1.6.1-.6c.1 0 0 0 0 0zm-1.3.6z"/><path class="st4" d="M179 108.3c0-.1-.1-.1-.1-.2s-.1-.1-.2-.2-.1-.1-.2-.1c0 0-.1 0-.1-.1h-.6s-.1 0-.1.1c-.1 0-.1.1-.2.1l-.2.2c0 .1-.1.1-.1.2v.4c0 .3.2.6.4.8-.1 0-.1-.1-.2-.1l-.4-1c1.5-1.7 2.1-3.8 1.9-5.9.1.5.6.9 1.1.9.6 0 1.1-.5 1.1-1.1v-.3c0-.1-.1-.2-.1-.3l-.2-.2c-.1-.1-.2-.1-.3-.1h-.8c-.1 0-.2.1-.2.1s-.1 0-.1.1l-.1.1-.1.1c-.1.1-.1.2-.1.2v.3c-.1-.5-.2-1.1-.4-1.6.2.3.6.5 1 .5.6 0 1.1-.5 1.1-1.2v-.4c0-.1-.1-.1-.1-.2-.1-.2-.4-.4-.6-.5h-.6c-.3.1-.5.2-.7.5 0 .1-.1.1-.1.2v.6c-.2-.5-.4-.9-.7-1.3 0 0 .1.1.2.1s.1.1.2.1h.6c.1 0 .1-.1.2-.1s.1-.1.2-.1c0 0 .1 0 .1-.1 0 0 .1-.1.1-.2 0 0 0-.1.1-.1 0 0 0-.1.1-.1v-.8s0-.1-.1-.1v-.1l-.1-.1c-.1-.1-.2-.1-.3-.2-.1 0-.2-.1-.4-.1-.1 0-.2 0-.4.1-.1 0-.2.1-.3.2l-.1.1v.1s0 .1-.1.1v.8c0 .1 0 .1.1.1-.2-.3-.4-.5-.7-.7 0 0 0-.1-.1-.1l-.3-.3c.1 0 .2.1.4.1.1 0 .2 0 .4-.1.1 0 .2-.1.3-.2l.1-.1.1-.1s.1-.1.1-.2v-.4c0-.1 0-.3-.1-.4-.1-.2-.2-.4-.3-.5-.1 0-.1-.1-.2-.1s-.1 0-.2-.1h-.5c-.1 0-.1 0-.2.1-.1 0-.1.1-.2.1-.2.1-.3.3-.3.5 0 .1-.1.3-.1.4v.4c-.3-.3-.7-.6-1-.9h.3c.4 0 .8-.3 1-.7 0-.1.1-.2.1-.4v-.4c-.1-.2-.2-.3-.3-.5h-.1l-.1-.1s-.1 0-.1-.1c0 0-.1 0-.1-.1h-.7c-.1 0-.1 0-.2.1h-.1c-.1 0-.1.1-.2.1h-.1c-.1.1-.2.3-.3.5v.4c0 .1 0 .2.1.4 0 0 0 .1.1.1-.3-.2-.7-.5-1.1-.7h.6s.1 0 .1-.1h.1l.1-.1c0-.1.1-.1.1-.2s.1-.1.1-.2v-.7c0-.1-.1-.2-.1-.3s-.1-.1-.2-.2c-.1 0-.1-.1-.2-.1s-.1-.1-.2-.1h-.5c-.1 0-.1 0-.2.1-.1 0-.1.1-.2.1l-.1.1c0 .1-.1.1-.1.2v.8c0 .1.1.2.1.2l.1.1c-.4-.2-.9-.4-1.3-.6h.5c.1 0 .1-.1.2-.1 0 0 .1 0 .1-.1.1 0 .1-.1.2-.1l.1-.1c.1-.1.2-.3.2-.4v-.2c0-.7-.5-1.1-1.1-1.1-.7 0-1.1.4-1.1 1.1v.2c0 .1 0 .1.1.2 0 .1.1.2.2.3h.1c-.4-.1-.9-.3-1.3-.4h.3c.1 0 .2-.1.3-.2.2-.2.4-.5.4-.9v-.4c0-.1 0-.1-.1-.2s-.2-.3-.4-.4c-.1 0-.1-.1-.2-.1h-.8c-.1 0-.1.1-.2.1-.2.1-.3.2-.4.4 0 .1-.1.1-.1.2v.4c0 .3.1.6.4.8l.1.1c-.5-.1-1-.1-1.5-.2.5-.1.9-.5.9-1.1 0-.1 0-.2-.1-.3 0-.1-.1-.2-.2-.3 0-.1-.1-.1-.2-.2-.1 0-.1-.1-.2-.1s-.1-.1-.2-.1h-.6c-.1 0-.1 0-.1.1h-.1l-.1.1-.1.1c-.1.1-.2.3-.3.4v.4c0 .6.4 1 .9 1.1h-1.6s.1 0 .1-.1c.1-.1.2-.1.2-.2.1-.1.1-.2.2-.3 0-.1.1-.2.1-.4 0-.1 0-.2-.1-.3 0-.1-.1-.2-.2-.3 0-.1-.1-.1-.1-.2-.1 0-.1-.1-.2-.1s-.1-.1-.2-.1h-.6c-.1 0-.1 0-.2.1h-.1l-.1.1s-.1 0-.1.1l-.1.1c-.1.1-.1.2-.1.3v.1c0 .1-.1.2-.1.3s0 .2.1.4c0 .1.1.2.2.3s.2.2.3.2c.1.1.2.1.3.1-.3 0-.5.1-.8.1h-1c-.1 0-.2.1-.2.2l-.1.1c-.2 0-.4.1-.5.1-.1-.3-.3-.5-.4-.7h.1c.1.1.2.1.3.2h.8c.1 0 .2-.1.2-.1.1-.1.2-.3.3-.5v-.4c0-.4-.2-.7-.5-.9-.2-.1-.4-.2-.6-.2-.1 0-.3 0-.4.1-.3.1-.5.3-.6.6-.1.1-.1.3-.1.4v.5c-.2-.3-.4-.6-.7-.8-.1 0-.2-.1-.3-.1.1 0 .2.1.3.1s.2 0 .4-.1c.1 0 .2-.1.3-.2l.1-.1.1-.1s.1-.1.1-.2V90c0-.2-.1-.3-.2-.4l-.2-.2c-.1-.1-.2-.1-.3-.1h-.4c-.1 0-.3 0-.4.1 0 0-.1 0-.1.1-.1 0-.1.1-.2.1l-.1.1c-.1.1-.1.2-.2.2v.1c0 .1-.1.2-.1.4v.2c0 .1 0 .1.1.2 0 .1.1.1.1.2l.1.1.1.1.1.1-1.5-.6h.4c.2-.1.3-.2.5-.3.1-.2.2-.5.2-.7 0-.6-.4-1.1-1.1-1.1s-1.2.5-1.2 1.1v.2c.1.3.2.5.5.7-.5-.1-.9-.2-1.4-.3h.2c.1 0 .2-.1.2-.1.1 0 .1-.1.2-.2s.1-.1.1-.2.1-.1.1-.2v-.4c0-.6-.5-1.1-1.1-1.1-.7 0-1.1.5-1.1 1.1v.4s0 .1.1.1c0 0 0 .1.1.1 0 0 0 .1.1.1 0 0 0 .1.1.1l.2.2s.1 0 .1.1c-.6-.1-1.1-.1-1.7-.1.6-.1.9-.5.9-1.1 0-.7-.4-1.1-1.1-1.1s-1.1.4-1.1 1.1c0 .6.4 1 1 1.1-.6 0-1.3 0-1.9.1h.2c.1 0 .2-.1.3-.2 0 0 0-.1.1-.1.1-.1.1-.1.1-.2v-.1c0-.1.1-.2.1-.4 0-.6-.4-1.1-1.1-1.1-.6 0-1.1.5-1.1 1.1v.3c.1.3.3.5.5.6h.6c-.6.1-1.3.2-1.9.4h.1c.1 0 .1-.1.2-.2s.2-.3.2-.4v-.3c0-.6-.5-1.1-1.1-1.1-.7 0-1.1.5-1.1 1.1 0 .2 0 .3.1.4s.1.2.2.3c0 0 .1 0 .1.1l.2.2h.1c.1 0 .3.1.4.1h.2c-.5.2-1.1.4-1.6.6l.1-.1.1-.1v-.8c0-.3-.2-.5-.4-.7-.1-.1-.2-.1-.3-.1h-.1c-.1 0-.2-.1-.3-.1h-.4c-.1 0-.2.1-.2.1s-.1 0-.1.1c-.1 0-.1.1-.1.2l-.1.1c-.1.1-.1.2-.1.3v.8c-.5-.5-1.2-.8-2-.8 1.5 0 2.7-1.1 2.9-2.6v-.4c0-1.4-1-2.5-2.2-2.9v-2.8h2V80h-2v-2H143v2h-2v1.6h2V84c-1.2.3-2 1.3-2.2 2.5v.3c0 .4.1.7.2 1.1h-.1c-.1.1.1.1.1 0 .4 1.1 1.5 1.9 2.7 1.9-.7 0-1.5.3-2 .8v-.5c0-.3-.2-.5-.4-.7-.1-.1-.2-.1-.3-.1h-.1c-.1 0-.2-.1-.3-.1h-.4c-.1 0-.2.1-.2.1s-.1 0-.1.1c-.1 0-.1.1-.2.2l-.1.1c-.1.1-.1.2-.1.3v.7c0 .1 0 .2.1.2 0 .1.1.1.1.2l.1.1c-.5-.2-.9-.4-1.4-.5.1 0 .3 0 .4-.1h.1c.1 0 .2-.1.2-.2l.1-.1c.1-.1.1-.2.2-.3 0-.1.1-.3.1-.4 0-.6-.4-1.1-1.1-1.1-.6 0-1.1.5-1.1 1.1v.3c0 .2.1.3.2.4l.2.2c-.5-.1-1.1-.2-1.6-.3h.4c.1 0 .1-.1.2-.1l.2-.2c0-.1.1-.2.1-.2v-.4c0-.6-.5-1.1-1.1-1.1-.7 0-1.1.5-1.1 1.1 0 .1 0 .3.1.4 0 0 0 .1.1.1 0 .1.1.1.1.2l.1.1c.1.1.2.1.2.2-.6-.1-1.2-.1-1.8-.1.6-.1.9-.5.9-1.1 0-.7-.4-1.1-1.1-1.1-.6 0-1.1.4-1.1 1.1 0 .6.4 1 .9 1.1-.5 0-1.1.1-1.6.1.1-.1.2-.1.3-.2V90l.1-.1v-.1s0-.1.1-.1v-.4c0-.6-.4-1.1-1.1-1.1-.6 0-1.1.5-1.1 1.1v.4c0 .1 0 .1.1.2v.1c0 .1.1.1.1.2.1.1.3.2.5.3h.2c-.6.1-1.1.2-1.7.4h.1s.1 0 .1-.1c.1 0 .1-.1.1-.1l.1-.1s0-.1.1-.1l.1-.1c.1-.1.1-.3.1-.5 0-.6-.5-1.1-1.1-1.1-.7 0-1.1.5-1.1 1.1 0 .3.1.5.2.7s.3.3.5.3h.5c-.7.2-1.4.5-2.1.9-.5.6-1 1.2-1.3 1.9-.2-.1-.4-.1-.7-.2l-.1-.1c-.1-.1-.2-.1-.3-.2h-.8c-.3 0-.5-.1-.8-.1.1 0 .2-.1.3-.1.1-.1.2-.1.2-.2.1-.1.1-.2.2-.3 0-.1.1-.2.1-.4 0-.1 0-.2-.1-.3 0-.1-.1-.2-.2-.3 0-.1-.1-.1-.2-.2-.1 0-.1-.1-.2-.1s-.1-.1-.2-.1h-.6s-.1 0-.1.1c0 0-.1 0-.1.1 0 0-.1 0-.1.1l-.1.1-.1.1-.1.1c0 .1-.1.2-.1.2v.9c0 .1.1.2.1.3v.1c.1.1.1.2.2.2 0 0 .1 0 .1.1h-1.5c.5-.1.8-.5.8-1.1 0-.1 0-.2-.1-.3 0-.1-.1-.2-.2-.3 0-.1-.1-.1-.2-.2-.1 0-.1-.1-.2-.1s-.1-.1-.2-.1h-.6c-.1 0-.1 0-.2.1h-.1c-.1 0-.1.1-.2.1s-.1.1-.2.2-.1.2-.2.3c0 .1-.1.2-.1.3 0 .6.4 1 1 1.1-.5 0-1 .1-1.6.2 0 0 .1 0 .1-.1.1 0 .1-.1.1-.2s.1-.1.1-.2.1-.1.1-.2v-.6c0-.1 0-.1-.1-.2v-.1c-.1-.1-.2-.3-.4-.4-.1 0-.1-.1-.2-.1h-.8c-.3.1-.5.3-.6.5v.1c0 .1 0 .1-.1.2v.4c0 .3.1.6.3.7l.1.1c.1.1.2.1.3.2h.3c-.5.1-1 .3-1.4.4l.1-.1.1-.1c.1-.1.2-.2.2-.3s0-.1.1-.2v-.2c0-.7-.4-1.1-1.1-1.1-.6 0-1.1.4-1.1 1.1v.2c0 .2.1.3.2.5l.2.2c.1 0 .2.1.2.1h.6c-.5.2-1.1.4-1.6.7l.1-.1.1-.1v-.1c0-.1.1-.1.1-.2v-.6c0-.1 0-.2-.1-.3l-.1-.1-.1-.1-.1-.1-.1-.1s-.1-.1-.2-.1-.1-.1-.2-.1h-.5c-.1 0-.1 0-.2.1-.1 0-.1.1-.2.1s-.1.1-.1.1v.1c-.1.1-.1.2-.1.4v.7c0 .1 0 .1.1.1v.1l.1.1s0 .1.1.1c0 0 .1 0 .1.1l.1.1s.1 0 .1.1c0 0 .1 0 .1.1h.6c-.4.2-.8.5-1.3.8 0-.1.1-.1.1-.2s.1-.2.1-.4v-.4c-.1-.2-.2-.3-.3-.5l-.1-.1-.1-.1s-.1 0-.1-.1c0 0-.1 0-.1-.1h-.8s-.1 0-.1.1c0 0-.1 0-.1.1 0 0-.1 0-.1.1-.1.1-.2.3-.3.5v.4c0 .1 0 .3.1.4.1.3.3.5.6.6.1 0 .1.1.2.1h.6c-.4.3-.8.7-1.2 1l.1-.1V97c0-.1 0-.3-.1-.4 0-.1-.1-.2-.2-.3l-.3-.3c-.1 0-.1 0-.2-.1h-.5c-.1 0-.1 0-.2.1-.1 0-.1.1-.2.1l-.1.1c-.1.1-.1.2-.2.3 0 .1-.1.2-.1.4v.2c0 .1 0 .1.1.2.1.2.3.5.6.6.1 0 .2.1.4.1.1 0 .3 0 .4-.1.1 0 .1-.1.2-.1l-.4.4c-3 2.8-3.2 7.6-.4 10.6l.1-.1-.4 1.2c-.1 0-.2.1-.3.2-.6.4-.9.9-1 1.6 1.5.1 2.8.7 3.7 1.7v.1l-.2.2v.4c0 .1.1.3.1.4.1.1.1.3.3.4.1.2.2.2.4.4 0 0 .1 0 .1.1.9 2.9 3.7 4.7 6.6 4.4h.1-.1c-.4.1-.6.4-.5.9l.1.4c.1.4.4.6.9.5 3-.8 6-1.4 9.1-1.8h.2c-3 .4-6 1-9 1.7l.7.9-.4 1 1.4.4.7.9c6.3-1.3 12.6-2 19-2.1l-.5.1c-6.4.1-12.8.9-19 2.2-.1 0-.3.1-.4.2l-.1.1-.2.2s-.1.1-.1.2 0 .1-.1.2v.5c.1.4.3.7.8.8 7.1 1.8 14.4 2.6 21.8 2.6s14.7-.9 21.9-2.6c.5-.1.7-.4.8-.8v-.5c0-.1 0-.1-.1-.2 0-.1 0-.1-.1-.2 0-.1-.1-.1-.2-.2l-.1-.1c-.1-.1-.2-.1-.4-.2-6.5-1.4-13-2.2-19.6-2.3h-.5c6.5.1 13 .8 19.3 2.1l.7-.9 1.4-.4-.4-1 .7-.9c.1 0 .2 0 .3.1.4.1.8-.1.9-.5l.2-.4c.1-.4-.2-.8-.5-.9 3 .3 5.8-1.6 6.7-4.5.1-.1.3-.2.3-.3.1-.1.1-.3.3-.4 0-.1 0-.3.1-.4 0-.1 0-.2-.1-.4 0 0 0-.1-.1-.1l.1-.2c.9-1.1 2.3-1.7 3.7-1.7-.1-.6-.5-1.2-.9-1.5.1.1.3.1.5.1.6 0 1.1-.5 1.1-1.1v-1zm-33.5-17.2c.1.1.2.1.3.2.1 0 .2.1.4.1h.2c-.2.1-.4.2-.7.3-.1-.2-.1-.4-.2-.6zM130.1 117c.2 0 .3 0 .5-.1l-1.8.3c.4 0 .9-.1 1.3-.2zm-2.7.4c-.5.1-1.1.2-1.6.3.5-.1 1.1-.2 1.6-.3zm6.3-.8c-.6.1-1.2.1-1.8.2.6 0 1.2-.1 1.8-.2zm3.1-.2c-.4 0-.9.1-1.3.1.4 0 .8-.1 1.3-.1zm2.5-.1h.6-.6zm7.7 0h-.7.7zm6.7.5c-.4 0-.7-.1-1.1-.1.4 0 .7 0 1.1.1zm-3.3-.3c-.3 0-.6-.1-1-.1.4 0 .7.1 1 .1zm5.6.5c.2 0 .5.1.7.1-.3 0-.7-.1-1-.1h.3zm3.6.6c-.2 0-.3-.1-.5-.1.2 0 .3 0 .5.1zm2.9.5h.1-.1zm-1.7-17h-.4c.1-.2.2-.4.4-.6 0 .1-.1.2-.1.3.1.1.1.2.1.3zM140 91.4c.1 0 .3 0 .4-.1.1 0 .1-.1.2-.1-.1.1-.1.3-.2.5-.1-.2-.2-.2-.4-.3zM124.3 118c-.7.1-1.3.3-2 .4.4-.1.8-.2 1.3-.3.2 0 .5-.1.7-.1zm50.9-19.6c1 2 .9 4.3-.1 6.2-.1-.1-.2-.1-.3-.2-.2-.1-.5-.3-.7-.4-.3-.2-.7-.3-1-.5l-.6-.3-.6-.3c-.1 0-.1 0-.2-.1-.1 0-.1 0-.2-.1-.4-.2-.8-.3-1.2-.4-.1 0-.2-.1-.3-.1-.4-.1-.8-.3-1.3-.4-.1 0-.2-.1-.3-.1-.2 0-.4-.1-.6-.1-.3-.1-.7-.1-1-.2h-.1c-.3-.1-.6-.1-1-.2h-.2c-.3 0-.6-.1-.9-.1h-.3c-.3 0-.6 0-.8-.1h-.6v-.3c0-.6-.4-1.1-1.1-1.1-.4 0-.7.2-.9.5.2-.5.4-1 .5-1.6v.5c0 .1.1.1.1.2l.2.2c.1.1.2.1.3.1h.1c.1 0 .2.1.3.1s.2 0 .3-.1h.1c.1 0 .2-.1.3-.1.1-.1.2-.1.2-.2.1-.1.1-.2.1-.3v-.3c0-.6-.5-1.1-1.1-1.1-.5 0-.9.2-1 .6.1-.5.1-1 .1-1.6v.2c0 .1.1.2.2.3l.1.1.1.1s.1.1.2.1c0 0 .1 0 .1.1.1 0 .3.1.4.1s.3 0 .4-.1c.1 0 .1 0 .1-.1 0 0 .1 0 .1-.1l.1-.1s.1 0 .1-.1c.1-.1.1-.2.2-.3v-.1c0-.1.1-.3.1-.4 0-.2-.1-.5-.2-.7l-.1-.1-.1-.1h-.1l-.1-.1h-.8s-.1 0-.1.1h-.1l-.1.1-.1.1-.1.1c-.1.1-.1.2-.1.3v.2c0-.5-.2-1-.3-1.6.1.1.1.2.2.3s.2.1.3.2c.1 0 .2.1.4.1.1 0 .2 0 .3-.1h.1c.1 0 .2-.1.3-.2.2-.2.4-.4.4-.7 4.5-.6 8.9 1 11.9 4.3zM159 92.3c.5.5.8 1.1 1.1 1.7 0 .1.1.3.2.4.8 2.3.4 4.8-1.1 6.7h-.1c-.3-.2-.6-.3-.9-.5l-.6-.3c-.2-.1-.3-.2-.5-.2-.5-.2-.9-.4-1.4-.6-.1 0-.2-.1-.3-.1s-.2-.1-.3-.1c-.6-.2-1.2-.4-1.7-.5h-.2c-.4-.1-.9-.2-1.3-.3-.1 0-.2 0-.3-.1-.2 0-.4-.1-.6-.1-.5-.1-1.1-.2-1.6-.2h-.4c-.6-.1-1.1-.1-1.7-.1h-1.2c-.2-1.7-.4-3.4-.4-5.1 4-2.4 9-2.7 13.3-.6zm-31.7 0c4.3-2.1 9.2-1.8 13.2.6 0 1.7-.2 3.4-.4 5.2h-1.2c-.6 0-1.1 0-1.7.1h-.4c-.5.1-1.1.1-1.6.2-.2 0-.4.1-.6.1-.1 0-.2 0-.3.1-.4.1-.9.2-1.3.3-.1 0-.1 0-.2.1-.6.2-1.2.3-1.8.6-.1 0-.1 0-.2.1-.1 0-.2.1-.3.1-.4.2-.9.4-1.3.6-.2.1-.4.2-.5.3l-.6.3c-.3.1-.6.3-.9.5-2.1-2.8-2.1-6.6.1-9.2zM111 98.4c3-3.2 7.5-4.7 11.8-4.2v.2c0 .1.1.2.1.2.1.1.1.2.2.2.1.1.2.1.3.2.1 0 .2.1.3.1s.3 0 .4-.1c.1 0 .2-.1.3-.2l.2-.2h.1c-.6 2.2-.3 4.6.9 6.5h-.5v-.3c0-.6-.5-1.1-1.1-1.1-.7 0-1.1.5-1.1 1.1v.3h-.6c-.3 0-.6 0-.8.1h-.3c-.3 0-.6.1-.9.1h-.2c-.3 0-.6.1-1 .2h-.1c-.3.1-.7.1-1 .2-.2 0-.4.1-.6.1-.1 0-.2.1-.3.1-.4.1-.8.2-1.3.4-.1 0-.2.1-.3.1-.4.1-.8.3-1.2.4-.1 0-.1 0-.2.1-.1 0-.1 0-.2.1-.2.1-.4.2-.6.2l-.6.3c-.3.1-.6.3-.9.4 0 0-.1 0-.1.1l-.6.3c-.1 0-.2.1-.3.1-.7-1.8-.8-4.1.2-6zm8.5 20.6c.7-.2 1.3-.3 2-.5-.6.2-1.3.3-2 .5zm38.1.2h.2c2.8.4 5.5 1 8.2 1.6-2.8-.7-5.6-1.2-8.4-1.6z"/><path class="st5" d="M143.2 131.3c-7.5 0-15-.9-22.3-2.7-1.2-.2-2.2-1.1-2.6-2.3 0-.1-.1-.2-.1-.4s-.1-.4-.1-.5v-.4c0-.1 0-.3.1-.5-.2-.2-.4-.5-.6-.8-.1-.3-.2-.6-.2-1-.6-.4-1-.9-1.2-1.5-2.7-.6-4.9-2.5-6-5.2-.1-.1-.2-.3-.4-.4-.3-.3-.4-.6-.5-.8-.1-.3-.2-.5-.2-.8 0-.1 0-.2-.1-.4-.5-.2-.9-.3-1.3-.3-.7 0-1.4-.4-1.8-.9-.4-.6-.6-1.3-.4-2 .2-1 .6-1.7 1.1-2.2-1.9-3.2-1.8-7.2.1-10.4 0-.1-.1-.2-.1-.3 0 0-.1-.1-.1-.2s-.1-.2-.1-.3v.1-.2c0-.2-.1-.6-.1-.7 0-.4.1-.8.2-1.2.1-.3.3-.6.5-.9l.1-.1c.1-.1.1-.2.2-.2l.3-.3c.3-.2.4-.3.6-.4.1 0 .1-.1.2-.1s.2-.1.3-.1c.2-.2.3-.5.5-.7l.2-.2c.1-.1.3-.2.3-.2.1-.1.3-.2.4-.2s.2-.1.3-.1.3-.1.4-.1c.1-.1.2-.2.2-.3.1-.1.2-.2.3-.2.1-.1.5-.3.6-.4s.5-.2.7-.3c.3-.1.5-.1.7-.1.7-.6 1.6-.9 2.5-.9.3-.2.6-.4 1-.5.9-.3 1.3-.2 1.8-.1h.1c.1 0 .3-.1.4-.2.1 0 .2-.1.3-.1.2-.1.5-.1.8-.1.2 0 .6.1.8.1l-.1.3c.1-.1.3-.1.4-.2h.1l.2-.1c.3-.1.5-.1.8-.1.2 0 .6.1.8.1l-.3 1.3.1.1.4-1.3c.1 0 .3.1.4.2.1 0 .1.1.2.1.1.1.4.3.5.3l.1.1-.2-.2c.1.1.2.1.2.2h.2l.2.2.2.2s.1 0 .1-.1v-.1c0-2.1 1.9-3.7 3.9-3.5.8-.5 1.9-.7 2.8-.4.9-.4 1.9-.3 2.8 0 .9-.2 2-.1 2.8.4h.3c0-.1 0-.1.1-.2.2-1 .6-1.8 1.3-2.5-.7-.4-1.2-1.2-1.2-2.1v-1.6c0-1.2.9-2.2 2-2.4.2-1.1 1.2-2 2.4-2h1.5c1.2 0 2.2.9 2.4 2 1.1.2 2 1.2 2 2.4V81c0 .9-.5 1.6-1.2 2.1.7.8 1.2 1.7 1.4 2.8h.4c.8-.5 1.9-.7 2.8-.4.8-.3 1.9-.3 2.8 0 .9-.2 2-.1 2.8.4 1-.1 2 .2 2.7.9.2 0 .5 0 .8.1.5.2.8.3 1 .5.1 0 .1.1.2.2.2.2.4.3.5.5s.2.3.3.4c.1 0 .2-.1.2-.1s.1 0 .2-.1c.3-.1.5-.1.8-.1.2 0 .6.1.8.1l-.1.3h.1c.1 0 .2-.1.3-.1h.2c.1 0 .2-.1.3-.1.2-.1.5-.1.7-.1s.6.1.8.1l-.1.6c.1 0 .2-.1.3-.1l.1-.4c.2 0 .3.1.4.2.4-.1 1-.1 1.6 0 .1 0 .2.1.3.1.2.1.3.1.5.2.1 0 .2.1.3.1l.1.1c.9-.1 1.9.3 2.5.9.2 0 .3 0 .5.1.1 0 .2.1.3.1 0 0 .3.1.5.2.1 0 .2.1.3.2s.3.2.3.2l.4.4c0 .1.1.1.1.2h.1c.1 0 .2 0 .3.1.1 0 .3.1.4.2l.3.2c.1.1.3.2.4.3 0 0 .2.1.2.2.2.2.4.4.5.7.1 0 .2.1.3.1s.2.1.2.1.1.1.2.1c.1.1.2.2.3.2.4.3.7.8.9 1.3.2.1.4.2.5.3s.2.1.3.2l.1.1v.1c.1.1.2.2.3.4 0 .1.1.2.1.3s.1.3.2.3c0 .1.1.2.1.4 0 0 0 .2.1.2.3.2.5.5.7.8 0 .1.1.2.1.2s.1.2.2.5c0 .1.1.2.1.2.1.3.1.6.1.9v.3l.3.6c0 .1.1.1.1.2s.1.3.1.4c.1.3.1.5.1.8 0 1.5-1.1 2.9-2.5 3.3-.1.2-.1.5-.2.7.2.2.3.3.4.5.2.3.3.5.4.8.1.5.2.8.2 1.1 0 .8-.3 1.5-.7 2 .1.7 0 1.3-.4 1.9s-1.1.9-1.8 1c-.4 0-.9.1-1.4.4 0 .1 0 .2-.1.2-.1.5-.2.9-.5 1.3-.1.1-.1.2-.2.3s-.1.2-.2.3c-1 2.7-3.4 4.7-6.2 5.4-.2.7-.7 1.2-1.2 1.5 0 .3-.1.6-.2.9-.1.2-.2.4-.3.5v.1c0 .1.1.4.1.5v.5c0 .2 0 .4-.1.5 0 .1-.1.2-.1.3-.4 1.2-1.3 2.1-2.6 2.3-7.3 1.9-14.9 2.8-22.4 2.8zm21.4-4.6zm-42.6 0s-.1 0 0 0c-.1 0 0 0 0 0zm7.2-1.3c9.2 1.5 18.8 1.5 28.1 0-4-.6-8-.9-11.8-.9h-.4l-.5-.1c-.7-.1-1.3-.5-1.7-1.1-.3.6-.9 1-1.6 1.1l-.5.1h-.4c-3.7.1-7.4.4-11.2.9zm11.7-5.8c.9 0 1.6.5 2.1 1.1.4-.7 1.2-1.2 2.1-1.2 3.5 0 6.9.2 10.4.6-.1-.3-.2-.6-.2-.9-.3-.1-.5-.2-.7-.3-.3.1-.7.2-1 .1l-1.1-.1c-.4 0-.7-.2-1-.3-.3.1-.7.2-1.1.2l-.9-.1c-.4 0-.8-.2-1.2-.4-.4.2-.8.3-1.2.3h-.7c-1.3 0-2.3-1.1-2.3-2.4v-.1c0-1.3 1.1-2.3 2.4-2.3h.8c.5 0 .9.2 1.3.4.4-.2.8-.3 1.3-.3l1 .1c.4 0 .8.2 1.1.4.4-.1.8-.2 1.2-.2l1.1.1c.4 0 .7.2 1 .3.3-.1.7-.2 1.1-.1h.3l.8.1c.4.1.8.2 1.1.5.4-.1.8-.2 1.2-.1l.3.1c1.1.2 2 1.2 2.1 2.3.2 0 .4.1.6.1l.4-1.8h.2c1.1.2 1.9 1.2 1.9 2.3h.1c.4-.9 1.3-1.5 2.4-1.4 1.9.2 3.6-1 4.2-2.8.1-.3.3-.6.5-.9 0-.3 0-.6.1-.9s.3-.8.5-1c.5-.6 1.1-1.1 1.8-1.5l-.2-.7c-.3-.7-.2-1.6.3-2.2-.3 0-.5-.1-.8-.3l.9-2.2-1.2 2.1-.6-.3c-.3-.2-.6-.3-.9-.5l-1.1-.5.7-2.3-1 2.2c-.3-.1-.7-.3-1.1-.4l.4-2.4-.7 2.3c-.4-.1-.8-.2-1.1-.3l-.2-.1-.4-.1c-.1 0-.3-.1-.4-.1-.2 0-.5-.1-.8-.2-.4-.1-.7-.1-1-.2-.4-.1-.7-.1-1-.1v-2l-.2 1.9c-.3 0-.5 0-.8-.1h-.3c-.4 0-.8-.1-1.1-.3-.3.2-.7.3-1.1.3v-.7s0 .1-.1.1v.6c-.2 0-.5 0-.8-.1-.2.1-.4.2-.7.2-.5.1-1.2 0-1.6-.3-.2-.1-.5-.3-.7-.4l-.4-.2-.2-.1-.4-.2c-.4-.2-.8-.3-1.2-.5l-.5-.2c-.5-.2-1-.3-1.6-.5-.5-.1-.9-.2-1.3-.3l.2-2.4-.5 2.4-.5-.1c-.5-.1-1-.2-1.4-.2h-.4c-.5 0-1-.1-1.6-.1l-.5-2v2.4h-.8c-1.2 0-2.3-.9-2.4-2.1-.3-1.9-.4-3.6-.5-5.3 0-.2 0-.4.1-.6v-.2h-.4v.1c0 .2.1.4.1.6 0 1.7-.2 3.5-.4 5.4-.2 1.2-1.2 2-2.4 2.1h-.8l-.3-2.4.1 2.4c-.5 0-1 0-1.5.1h-.4c-.5.1-.9.1-1.4.2l-.5.1-.7-2.3.5 2.4-1.2.3c-.7.2-1.2.4-1.8.6l-.3.1c-.5.2-.9.4-1.3.5l-1 .5c-.3.1-.5.3-.8.4-.7.4-1.5.4-2.1.2-.2 0-.4.1-.7.1v-.5c-.1-.1-.2-.2-.2-.3l-.1.8c-.3 0-.6-.1-.9-.2-.3.1-.7.2-1 .2l-.3-1.7c-.1-.2-.1-.4-.1-.6l.1 2.4c-.5 0-.7 0-1 .1l-.4-2.2.2 2.2c-.3 0-.6.1-.8.1-.5.1-.8.1-1.1.2-.4.1-.7.1-1 .2l-.9.2c-.4.1-.8.2-1.1.3l-1.1-2.2.8 2.3c-.4.1-.7.3-1.1.4l-.4.1-1 .5c-.3.1-.5.3-.8.4l-.5.3-.3.2-.9.3c.5.6.6 1.4.3 2.2l-.3.8c.7.4 1.3.9 1.8 1.5.2.2.4.5.5.8s.2.7.1 1.1c.3.3.5.6.6.9.6 1.8 2.2 2.9 4.1 2.7.1 0 .2-.1.3-.1.5-.1 1-.2 1.5-.4.2 0 .4-.1.5-.1s.3 0 .4-.1c.1 0 .2-.1.4-.1l2-.4c.3-.1.5-.1.8 0 .2-.1.5-.2.7-.2.6-.1 1.1-.2 1.7-.3h.7c.2-.1.4-.2.7-.2l1.3-.2h1.2c.2-.1.4-.1.6-.2.3 0 .5-.1.8-.1s.7-.1 1-.1.6 0 .9.1c.3-.1.6-.2.9-.2l1.4-.1c.5 0 .9.1 1.3.3.3-.2.7-.4 1.1-.4h1c1.3 0 2.4 1 2.4 2.4v.1c0 1.3-1 2.4-2.4 2.4h-.7c-.4 0-.8-.1-1.2-.3-.3.2-.8.4-1.2.4l-1.3.1c-.3 0-.6 0-.9-.1-.3.1-.5.2-.8.2s-.6.1-.8.1-.3 0-.5.1h-1c-.2.1-.4.1-.6.1 0 .3-.1.6-.2.9 2.8-.8 6.2-1.1 9.6-1.1zm31.3-6.2zm-58.2 0zm-.5-.8zm61.4-8.2zm-8.8-5.5c.4.1.7.1 1.1.2.5.1.9.2 1.2.3l.7.2.3.1c.5.1 1 .3 1.4.4l.3.1c.5.2 1 .3 1.4.5l1.1.4c0-.4-.1-.9-.3-1.3-1.9-1.9-4.4-3.1-7-3.3 0 .3-.1.7-.2 1 0 0 0 .1-.1.2.1.3.1.6.1.9v.3zm-53.1.9c-.2.4-.3.8-.3 1.2l1-.4c.4-.2.9-.3 1.3-.5l.4-.1c.5-.1.9-.3 1.4-.4l1.2-.3c.2-.1.6-.1 1-.2.5-.1.8-.1 1.2-.2.5-.1.9-.1 1.2-.1h.1c.2-.3.5-.6.8-.8 0-.3 0-.6-.1-.9-.2-.1-.3-.2-.5-.4l-.3-.3c-3.1 0-6.2 1.2-8.4 3.4zm15.6.3l.2.3-.2-.3zm1.3-2.8l1 2.2-.8-2.3c.7-.2 1.3-.5 2-.6.7-.2 1.2-.3 1.7-.4l.3-.1.6-.1c.6-.1 1.2-.2 1.7-.2h.4c.3 0 .7-.1 1-.1 0-.5.1-.9.1-1.4-2.9-1.3-6.2-1.3-9.2-.1-.7 1.1-1 2.5-.6 3.8.5-.2.9-.4 1.4-.6.2 0 .4-.1.4-.1zm18.4-1.6c.3 0 .6 0 1 .1h.4c.6.1 1.2.1 1.7.2l.6.1-.1 2.4.5-2.4 1.5.3c.8.2 1.5.4 2.1.7l.3.1.3.1 1.5.6h.1c.3-.9.2-1.9-.1-2.8l-.1-.3c-.1-.2-.2-.5-.4-.7-3-1.3-6.3-1.3-9.3.1-.1.6 0 1 0 1.5zm-41.8 1.8zm18.2-8.3zm-1-.6zm0-.1zm18.9-1.4c.1.1.2.3.5.3s.5-.2.5-.5c0-.4-.2-.6-.4-.6h-.2c-.2.1-.4.2-.4.5v.3zm-18 2z"/><path class="st4" d="M107.3 97.4c0 .1-.1.1 0 0-.1.1-.1.2-.1.2v.7c0 .1.1.1.1.2.1.2.4.4.6.5h.5c.1 0 .2-.1.2-.1.1 0 .2-.1.2-.2l.2-.2c0-.1.1-.1.1-.2v-.8s0-.1-.1-.1c0 0 0-.1-.1-.1v-.1l-.1-.1c-.1-.1-.2-.2-.3-.2s-.2-.1-.4-.1c-.1 0-.2 0-.4.1s-.3.2-.4.4v.1z"/><path class="st5" d="M108.2 101.5c-.3 0-.6 0-.8-.1-.1 0-.2 0-.2-.1-.7-.2-1.4-.7-1.8-1.4-.2-.3-.3-.6-.4-.8 0-.1-.1-.2-.1-.3-.1-.2-.1-.5-.1-.8 0-.2 0-.5.1-.7 0-.1.1-.3.1-.4s.1-.3.2-.4c0 0 .1-.1.1-.2.1-.1.1-.2.2-.3 0-.1.1-.1.2-.2.3-.4.8-.8 1.4-1.1.1 0 .2-.1.3-.1.5-.2 1.5-.3 2.3 0 .1 0 .2.1.3.1.2.1.6.3.9.6l.4.4s.1.1.1.2c.1.1.2.3.2.4s.1.2.1.3l.1.4c0 .1.1.3.1.3 0 .2.1.4.1.7s0 .6-.1.9c0 .1-.1.3-.1.4s-.1.3-.2.5c-.2.3-.4.6-.6.7l-.1.1c-.2.2-.4.3-.6.4 0 0-.1 0-.1.1-.2.1-.5.2-.7.3-.7.1-1 .1-1.3.1zm-.3-2.3c.1 0 .7 0 .8-.1h.1l-.1-.2h.3l-.1-.2.1.1-.1-.1.2.1.2-.2-.8-.5.4.6-.1-.1.1.1-.7-.6-.3 1.1zm.2-1.1l-.8.8c.1.1.2.2.4.2l.4-1zm-1.2-.3v.4l.2.4.8-.7-1-.1zm1.5.1l1.1.4v-.7c0-.2-.1-.2-.1-.3-.2-.3-.4-.5-.7-.6s-.7 0-.8 0-.2.1-.3.1h-.1l.7.9.1-.1.3-.7-.2.7.5-.4-.5.7zm-1.3-.5c0 .1-.1.2-.1.2l.7.2-.5-.2.3.1-.4-.3zm0-.1l.1.1-.1-.1zm.2-.3z"/><path class="st4" d="M106 99.6c0 .2-.1.2-.1.3 0 .7.5 1.2 1.1 1.2.7 0 1.2-.5 1.2-1.2v-.4c0-.1 0-.1-.1-.2v-.1c-.1-.2-.4-.4-.7-.5h-.6c-.3.1-.5.2-.7.5 0 .2-.1.3-.1.4z"/><path class="st5" d="M107.1 103.5c-1.9 0-3.5-1.6-3.5-3.6 0-.3 0-.6.1-.9l.1-.2c.1-.2.2-.5.3-.7.6-.9 1.3-1.4 2.1-1.6.6-.2 1.1-.2 1.7 0 .9.2 1.6.8 2.1 1.5.1.1.1.2.2.3l.2.4c0 .1.1.3.1.4.1.3.1.5.1.8 0 2-1.5 3.6-3.5 3.6zm-1.2-3c.3.5.6.6.8.7h.6c.3-.1.6-.3.7-.5.1-.1.1-.2.1-.3v-.1l-2.3-.8 2.3.7c0-.1.1-.3.1-.4 0-.8-.8-1.4-1.6-1.2v.2-.1.1l-.1-.1c-.5.1-.9.6-.9 1.2v.3c.2 0 .3.3.3.3zm2.4-.2z"/><path class="st4" d="M123.8 92.2c.1.1.1.2.1.3v.1l.2.2c.1.1.2.1.3.2h.7c.1 0 .1-.1.1-.1s.1 0 .1-.1l.2-.2v-.1c0-.1.1-.1.1-.2v-.4c0-.3-.1-.5-.3-.7l-.1-.1c-.2-.2-.4-.3-.7-.3-.1 0-.3 0-.4.1-.3.1-.5.3-.6.6-.1.1-.1.3-.1.4.4.1.4.2.4.3z"/><path class="st5" d="M124.9 95.4c-.2 0-.5 0-.7-.1-.1 0-.2-.1-.3-.1s-.2-.1-.4-.1c-.3-.1-.6-.3-.9-.5l-.7-.7c-.1-.1-.1-.2-.2-.3 0 0-.1-.2-.2-.5 0-.1-.1-.2-.1-.3-.1-.2-.1-.5-.1-.9 0-.5.1-1 .3-1.4.3-.8 1-1.4 1.8-1.8 1.6-.6 2.7-.3 3.6.5l.4.4c.6.6.8 1.4.8 2.3 0 .3 0 .6-.1.9-.1.4-.2.6-.3.7 0 .1-.1.2-.2.3s-.2.3-.4.5c-.1.1-.2.2-.3.2-.1.1-.3.2-.4.3s-.2.1-.3.2c-.1 0-.1.1-.2.1h-.1c-.1.1-.3.1-.4.1h-.2c0 .2-.2.2-.4.2zm-.4-2.3c.2.1.4.1.6 0v-.2.2h.1v-.2l.1.2-.1-.2.1.1v-.1l.1.2h.1l-.1-.2.1.2c.2-.2.4-.4.5-.6.1-.1.1-.3.1-.5v-.3l-.9.2v.2l.6.3-.6-.2v.2l.3.4-.3-.3.1.5-.1-.1v.1l-.1-.1v.1-.1.1l-.4-.7v.7l-.1-.6-.3.5v-.6l-.4.5c.1.1.2.1.3.2l.1-.2-.1.2c.2.1.2.1.3.1v-.2.2zm-.9-.9c.1.2.1.4.3.5l.6-.7-.7.2.3-.2-.4.1.7-.3-.9-.3v.3c0 .2.1.3.1.4l.2-.1-.2.1zm.6-.1l-.4.1.4-.1zm1.1-.3l.9-.2-.9.2zm-1.4-.8l-.2.2.6.3-.4-.5zm1.8-.1l-.3.6.6-.3c-.1-.2-.2-.3-.3-.3zm-1.4-.2zm.1 0c-.1 0-.1 0 0 0-.1 0-.1 0 0 0zm1 0zm-1 0zm.1-.1z"/><path class="st4" d="M180.2 106.6c0-.7-.5-1.1-1.1-1.1-.7 0-1.2.4-1.2 1.1v.4c.1.2.2.4.3.5s.1.1.2.1h1.1c.1 0 .1-.1.2-.1.1-.1.2-.3.3-.5v-.1c.2-.1.2-.2.2-.3z"/><path class="st5" d="M179.1 110.1c-.2 0-.5 0-.7-.1-.1 0-.3-.1-.3-.1l-.3-.1c-.1 0-.2-.1-.3-.1s-.1-.1-.2-.1c-.1-.1-.3-.2-.5-.3-.1-.1-.2-.1-.2-.2-.3-.3-.7-.8-.9-1.4-.1-.5-.2-.8-.2-1.1 0-2 1.6-3.5 3.6-3.5s3.5 1.5 3.5 3.5c0 .3 0 .6-.1.9-.2.7-.6 1.3-1 1.7-.1.1-.2.2-.3.2s-.1.1-.2.1c-.1.1-.2.1-.2.2-.2.1-.3.2-.5.2-.1 0-.1 0-.2.1 0 0-.1 0-.2.1h-.8zm1.9-.5c-.1 0-.1.1-.1.1 0-.1.1-.1.1-.1zm.1-.1zm-2.6-1.7c.3.2.8.2 1.1.1l-.1-.2.1.2c.1-.1.2-.1.3-.2l-.1-.1.1.1c.2-.2.4-.6.4-1v-.3l-1 .3.6.8-.1-.1.1.2-.4-.4.2.6-.3-.7.2.8-.3-.7-.1.8-.2-1-.2.7.1-.5-.3.5v-.1.1l.2-.7-.4.5.4-.7-.7.2.8-.5-.7-.7c-.1.1-.2.3-.3.5 0 .1-.1.2-.1.4 0 .4.2.7.4 1l.1-.1-.1.2c.1-.1.2-.1.3 0l.1-.2-.1.2zm1.5-2.1l-.4.6.7-.3c-.1 0-.2-.2-.3-.3zm-1.5-.2l.2.4-.2-.4c.1-.1 0 0 0 0zm-.3.2z"/><path class="st4" d="M123.5 97.5c-.6 0-1.1.4-1.1 1.1v.3c0 .1.1.2.1.3l.2.2c.1.1.2.1.3.1h.1c.1 0 .2.1.3.1s.2 0 .3-.1h.1c.1 0 .2-.1.3-.1s.1-.1.2-.2l.1-.1c0-.1.1-.1.1-.2v-.4c.1-.6-.3-1-1-1z"/><path class="st5" d="M123.5 102.1c-.3 0-.7-.1-1-.2-.1 0-.2-.1-.2-.1-.3-.1-.5-.2-.8-.4-.1-.1-.2-.1-.2-.2-.2-.1-.3-.3-.4-.4l-.2-.2c-.2-.3-.3-.5-.4-.7 0-.1-.1-.2-.1-.3s-.1-.2-.1-.3c0-.2-.1-.4-.1-.6 0-1.9 1.6-3.5 3.5-3.5 2 0 3.5 1.5 3.5 3.5 0 .3 0 .5-.1.8 0 .2-.1.3-.1.4s-.1.2-.1.3c-.1.2-.2.3-.2.4s-.1.2-.1.2l-.6.6c-.1.1-.2.1-.2.2-.2.1-.5.3-.8.4-.6.1-.9.1-1.3.1zm-.7-2.4c.7.5 1.6.2 1.9-.6l-.2-.1.2.1V99l-.2-.1h.2v-.3h-1l.7.4h-.2l-.9-.1-.6.6.4-.6-.5-.1-.4.1.2-.1h-.3.1-.3v.2h.2l-.2.1c0 .2.1.3.2.5l.2-.1-.2.1c.5-.1.6 0 .7.1l.1-.2-.1.2zm-.3-1.9l1 .6.2-.1.6-.8c-.1-.1-.2-.1-.3-.1-.3-.1-.7-.1-.8 0-.2.1-.3.1-.4.2-.2.1-.2.1-.3.2zm-.2.3zm2.3-.3l-.3.3.4-.2c0 .1 0 0-.1-.1z"/><path class="st4" d="M106.5 103.3c.6 0 1.1-.5 1.1-1.1v-.3c0-.1-.1-.2-.1-.3l-.2-.2c-.1-.1-.2-.1-.3-.1h-.8c-.1 0-.2.1-.2.1s-.1 0-.1.1l-.1.1s0 .1-.1.1c-.1.1-.1.2-.1.3v.3c-.2.5.3 1 .9 1z"/><path class="st5" d="M106.5 105.7c-2 0-3.6-1.6-3.6-3.5 0-.3 0-.5.1-.8 0-.2.1-.3.1-.4v-.1c.1-.2.2-.5.4-.7l.3-.3.4-.4c.1-.1.2-.2.3-.2.2-.1.5-.3.8-.3.1 0 .2-.1.3-.1.6-.1 1.2-.1 1.8 0 .5.2.8.3 1 .5.1.1.2.1.2.2.2.2.4.4.6.5.2.3.4.6.5.8 0 .1.1.2.1.3v.3c.1.3.1.5.1.8.2 1.8-1.5 3.4-3.4 3.4zm-.8-2.5c.1 0 .1 0 0 0 .2.2.3.2.4.2s.2.1.4.1l-.1-1-.7.7zm.9-.8l.3 1c.1 0 .2-.1.3-.1.2-.1.3-.2.3-.3l-.9-.6zm1.1.2zm-2.4-.1zm0-.7v.4l.7-.1-.5-.3h.8l-.1-.7.2.7h.5l.5-.4-.4.4h.1l.4-.1h-.1.1l-.1.1h.3v-.1h-.2.1-.1.1l-.1.1.1-.1c-.1-.2-.2-.4-.4-.6l-.1.1.1-.2c-.7-.5-1.7-.1-2 .6l.1.1-.1-.1.1.2h.2-.2z"/><path class="st4" d="M179.7 103.3c-.7 0-1.2.4-1.2 1.1s.5 1.1 1.2 1.1c.6 0 1.1-.4 1.1-1.1 0-.6-.5-1.1-1.1-1.1z"/><path class="st5" d="M179.7 107.9c-2 0-3.6-1.5-3.6-3.5s1.6-3.5 3.6-3.5 3.5 1.5 3.5 3.5-1.5 3.5-3.5 3.5zm0-4.8c-.7 0-1.3.6-1.3 1.3s.6 1.3 1.3 1.3 1.3-.6 1.3-1.3-.6-1.3-1.3-1.3z"/><path class="st4" d="M107.6 104.4c0-.7-.5-1.1-1.1-1.1-.7 0-1.2.4-1.2 1.1s.5 1.1 1.2 1.1c.6 0 1.1-.4 1.1-1.1z"/><path class="st5" d="M106.5 107.9c-2 0-3.6-1.5-3.6-3.5s1.6-3.5 3.6-3.5 3.5 1.5 3.5 3.5c.1 2-1.5 3.5-3.5 3.5zm0-4.8c-.7 0-1.3.6-1.3 1.3s.6 1.3 1.3 1.3 1.3-.6 1.3-1.3-.6-1.3-1.3-1.3z"/><path class="st4" d="M109.3 108.6v-.3c-.1-.3-.4-.6-.7-.7h-.6s-.1 0-.1.1c-.1 0-.1.1-.2.1l-.2.2c0 .1-.1.2-.1.2v.3c0 .6.5 1.1 1.1 1.1.3.1.8-.4.8-1z"/><path class="st5" d="M108.2 112.1c-1.9 0-3.5-1.6-3.5-3.5 0-.3 0-.6.1-.9.1-.4.2-.6.4-.8 0 0 0-.1.1-.1.2-.2.3-.5.5-.7s.4-.3.5-.4l.1-.1c.1-.1.3-.1.4-.2.1 0 .2-.1.2-.1.1 0 .3-.1.3-.1.3-.1.5-.1.8-.1.2 0 .6 0 .8.1.1 0 .2.1.4.1 1 .3 1.8 1.2 2.2 2.2 0 .1 0 .1.1.2.1.3.1.6.1.9 0 1.9-1.6 3.5-3.5 3.5zm-1.1-2.8c.2.3.4.5.7.6.2 0 .3.1.4.1l-.1-1.1-1 .4zm1.5 0l.2.5s.1 0 .1-.1l-.3-.4zm.6.2zm.1-.2zM107 108c-.1.2-.1.4-.1.6s0 .3.1.4l1-.3-.7-.7h.4l-.2-.2.4.2-.1-.4.2.4h.3v-.5l.1.5h1.1c-.3-.6-1.1-.9-1.7-.6l.1.2-.1-.2h-.1l.1.2-.2-.2c-.2.1-.3.2-.4.4l.2.2-.2-.1.2.1h-.4z"/><path class="st6" d="M125.4 90.3v.2c0 .1 0 .1.1.2.1.2.3.4.6.6.1 0 .2.1.4.1.1 0 .3 0 .4-.1.2-.1.3-.2.5-.3l.1-.1s0-.1.1-.1c0 0 0-.1.1-.1v-.6c-.1-.4-.4-.7-.7-.8h-.8c-.1 0-.2.1-.3.1-.1.1-.2.1-.2.2-.1.1-.1.2-.2.3v.1c-.1.1-.1.2-.1.3zm-3 6.3c0 .1 0 .1.1.2v.1l.1.1.1.1c.1.1.2.1.3.1h.4c.2 0 .3 0 .4-.1 0 0 .1 0 .1-.1.1 0 .1 0 .2-.1l.1-.1.1-.1c.1-.1.1-.2.2-.3v-.1c0-.1.1-.3.1-.4s0-.2-.1-.3c0-.1-.1-.2-.1-.3l-.1-.1s-.1 0-.1-.1c0 0-.1 0-.1-.1h-.1s-.1 0-.1-.1h-.7s-.1 0-.1.1c0 0-.1 0-.1.1h-.1c-.2.2-.4.5-.4.8-.2.4-.2.5-.1.7-.1-.1-.1 0 0 0zm-15.6 11.1h.9c.1 0 .1-.1.2-.1h.1l.2-.2c0-.1.1-.1.1-.2v-.4c0-.7-.5-1.1-1.2-1.1-.6 0-1.1.4-1.1 1.1v.3c.1.3.3.5.5.6h.3z"/><path class="st6" d="M179 108.3c0-.1-.1-.1-.1-.2s-.1-.1-.2-.2-.1-.1-.2-.1c0 0-.1 0-.1-.1h-.6s-.1 0-.1.1c-.1 0-.1.1-.2.1l-.2.2c0 .1-.1.1-.1.2v.4c0 .3.2.6.4.8-.1 0-.1-.1-.2-.1l-.4-1c1.5-1.7 2.1-3.8 1.9-5.9.1.5.6.9 1.1.9.6 0 1.1-.5 1.1-1.1v-.3c0-.1-.1-.2-.1-.3l-.2-.2c-.1-.1-.2-.1-.3-.1h-.8c-.1 0-.2.1-.2.1s-.1 0-.1.1l-.1.1-.1.1c-.1.1-.1.2-.1.2v.3c-.1-.5-.2-1.1-.4-1.6.2.3.6.5 1 .5.6 0 1.1-.5 1.1-1.2v-.4c0-.1-.1-.1-.1-.2-.1-.2-.4-.4-.6-.5h-.6c-.3.1-.5.2-.7.5 0 .1-.1.1-.1.2v.6c-.2-.5-.4-.9-.7-1.3 0 0 .1.1.2.1s.1.1.2.1h.6c.1 0 .1-.1.2-.1s.1-.1.2-.1c0 0 .1 0 .1-.1 0 0 .1-.1.1-.2 0 0 0-.1.1-.1 0 0 0-.1.1-.1v-.8s0-.1-.1-.1v-.1l-.1-.1c-.1-.1-.2-.1-.3-.2-.1 0-.2-.1-.4-.1-.1 0-.2 0-.4.1-.1 0-.2.1-.3.2l-.1.1v.1s0 .1-.1.1v.8c0 .1 0 .1.1.1-.2-.3-.4-.5-.7-.7 0 0 0-.1-.1-.1l-.3-.3c.1 0 .2.1.4.1.1 0 .2 0 .4-.1.1 0 .2-.1.3-.2l.1-.1.1-.1s.1-.1.1-.2v-.4c0-.1 0-.3-.1-.4-.1-.2-.2-.4-.3-.5-.1 0-.1-.1-.2-.1s-.1 0-.2-.1h-.5c-.1 0-.1 0-.2.1-.1 0-.1.1-.2.1-.2.1-.3.3-.3.5 0 .1-.1.3-.1.4v.4c-.3-.3-.7-.6-1-.9h.3c.4 0 .8-.3 1-.7 0-.1.1-.2.1-.4v-.4c-.1-.2-.2-.3-.3-.5h-.1l-.1-.1s-.1 0-.1-.1c0 0-.1 0-.1-.1h-.7c-.1 0-.1 0-.2.1h-.1c-.1 0-.1.1-.2.1h-.1c-.1.1-.2.3-.3.5v.4c0 .1 0 .2.1.4 0 0 0 .1.1.1-.3-.2-.7-.5-1.1-.7h.6s.1 0 .1-.1h.1l.1-.1c0-.1.1-.1.1-.2s.1-.1.1-.2v-.7c0-.1-.1-.2-.1-.3s-.1-.1-.2-.2c-.1 0-.1-.1-.2-.1s-.1-.1-.2-.1h-.5c-.1 0-.1 0-.2.1-.1 0-.1.1-.2.1l-.1.1c0 .1-.1.1-.1.2v.8c0 .1.1.2.1.2l.1.1c-.4-.2-.9-.4-1.3-.6h.5c.1 0 .1-.1.2-.1 0 0 .1 0 .1-.1.1 0 .1-.1.2-.1l.1-.1c.1-.1.2-.3.2-.4v-.2c0-.7-.5-1.1-1.1-1.1-.7 0-1.1.4-1.1 1.1v.2c0 .1 0 .1.1.2 0 .1.1.2.2.3h.1c-.4-.1-.9-.3-1.3-.4h.3c.1 0 .2-.1.3-.2.2-.2.4-.5.4-.9v-.4c0-.1 0-.1-.1-.2s-.2-.3-.4-.4c-.1 0-.1-.1-.2-.1h-.8c-.1 0-.1.1-.2.1-.2.1-.3.2-.4.4 0 .1-.1.1-.1.2v.4c0 .3.1.6.4.8l.1.1c-.5-.1-1-.1-1.5-.2.5-.1.9-.5.9-1.1 0-.1 0-.2-.1-.3 0-.1-.1-.2-.2-.3 0-.1-.1-.1-.2-.2-.1 0-.1-.1-.2-.1s-.1-.1-.2-.1h-.6c-.1 0-.1 0-.1.1h-.1l-.1.1-.1.1c-.1.1-.2.3-.3.4v.4c0 .6.4 1 .9 1.1h-1.6s.1 0 .1-.1c.1-.1.2-.1.2-.2.1-.1.1-.2.2-.3 0-.1.1-.2.1-.4 0-.1 0-.2-.1-.3 0-.1-.1-.2-.2-.3 0-.1-.1-.1-.1-.2-.1 0-.1-.1-.2-.1s-.1-.1-.2-.1h-.6c-.1 0-.1 0-.2.1h-.1l-.1.1s-.1 0-.1.1l-.1.1c-.1.1-.1.2-.1.3v.1c0 .1-.1.2-.1.3s0 .2.1.4c0 .1.1.2.2.3s.2.2.3.2c.1.1.2.1.3.1-.3 0-.5.1-.8.1h-1c-.1 0-.2.1-.2.2l-.1.1c-.2 0-.4.1-.5.1-.1-.3-.3-.5-.4-.7h.1c.1.1.2.1.3.2h.8c.1 0 .2-.1.2-.1.1-.1.2-.3.3-.5v-.4c0-.4-.2-.7-.5-.9-.2-.1-.4-.2-.6-.2-.1 0-.3 0-.4.1-.3.1-.5.3-.6.6-.1.1-.1.3-.1.4v.5c-.2-.3-.4-.6-.7-.8-.1 0-.2-.1-.3-.1.1 0 .2.1.3.1s.2 0 .4-.1c.1 0 .2-.1.3-.2l.1-.1.1-.1s.1-.1.1-.2V90c0-.2-.1-.3-.2-.4l-.2-.2c-.1-.1-.2-.1-.3-.1h-.4c-.1 0-.3 0-.4.1 0 0-.1 0-.1.1-.1 0-.1.1-.2.1l-.1.1c-.1.1-.1.2-.2.2v.1c0 .1-.1.2-.1.4v.2c0 .1 0 .1.1.2 0 .1.1.1.1.2l.1.1.1.1.1.1-1.5-.6h.4c.2-.1.3-.2.5-.3.1-.2.2-.5.2-.7 0-.6-.4-1.1-1.1-1.1s-1.2.5-1.2 1.1v.2c.1.3.2.5.5.7-.5-.1-.9-.2-1.4-.3h.2c.1 0 .2-.1.2-.1.1 0 .1-.1.2-.2s.1-.1.1-.2.1-.1.1-.2v-.4c0-.6-.5-1.1-1.1-1.1-.7 0-1.1.5-1.1 1.1v.4s0 .1.1.1c0 0 0 .1.1.1 0 0 0 .1.1.1 0 0 0 .1.1.1l.2.2s.1 0 .1.1c-.6-.1-1.1-.1-1.7-.1.6-.1.9-.5.9-1.1 0-.7-.4-1.1-1.1-1.1s-1.1.4-1.1 1.1c0 .6.4 1 1 1.1-.6 0-1.3 0-1.9.1h.2c.1 0 .2-.1.3-.2 0 0 0-.1.1-.1.1-.1.1-.1.1-.2v-.1c0-.1.1-.2.1-.4 0-.6-.4-1.1-1.1-1.1-.6 0-1.1.5-1.1 1.1v.3c.1.3.3.5.5.6h.6c-.6.1-1.3.2-1.9.4h.1c.1 0 .1-.1.2-.2s.2-.3.2-.4v-.3c0-.6-.5-1.1-1.1-1.1-.7 0-1.1.5-1.1 1.1 0 .2 0 .3.1.4s.1.2.2.3c0 0 .1 0 .1.1l.2.2h.1c.1 0 .3.1.4.1h.2c-.5.2-1.1.4-1.6.6l.1-.1.1-.1v-.8c0-.3-.2-.5-.4-.7-.1-.1-.2-.1-.3-.1h-.1c-.1 0-.2-.1-.3-.1h-.4c-.1 0-.2.1-.2.1s-.1 0-.1.1c-.1 0-.1.1-.1.2l-.1.1c-.1.1-.1.2-.1.3v.8c-.5-.5-1.2-.8-2-.8 1.5 0 2.7-1.1 2.9-2.6v-.4c0-1.4-1-2.5-2.2-2.9v-2.8h2V80h-2v-2H143v2h-2v1.6h2V84c-1.2.3-2 1.3-2.2 2.5v.3c0 .4.1.7.2 1.1h-.1c-.1.1.1.1.1 0 .4 1.1 1.5 1.9 2.7 1.9-.7 0-1.5.3-2 .8v-.5c0-.3-.2-.5-.4-.7-.1-.1-.2-.1-.3-.1h-.1c-.1 0-.2-.1-.3-.1h-.4c-.1 0-.2.1-.2.1s-.1 0-.1.1c-.1 0-.1.1-.2.2l-.1.1c-.1.1-.1.2-.1.3v.7c0 .1 0 .2.1.2 0 .1.1.1.1.2l.1.1c-.5-.2-.9-.4-1.4-.5.1 0 .3 0 .4-.1h.1c.1 0 .2-.1.2-.2l.1-.1c.1-.1.1-.2.2-.3 0-.1.1-.3.1-.4 0-.6-.4-1.1-1.1-1.1-.6 0-1.1.5-1.1 1.1v.3c0 .2.1.3.2.4l.2.2c-.5-.1-1.1-.2-1.6-.3h.4c.1 0 .1-.1.2-.1l.2-.2c0-.1.1-.2.1-.2v-.4c0-.6-.5-1.1-1.1-1.1-.7 0-1.1.5-1.1 1.1 0 .1 0 .3.1.4 0 0 0 .1.1.1 0 .1.1.1.1.2l.1.1c.1.1.2.1.2.2-.6-.1-1.2-.1-1.8-.1.6-.1.9-.5.9-1.1 0-.7-.4-1.1-1.1-1.1-.6 0-1.1.4-1.1 1.1 0 .6.4 1 .9 1.1-.5 0-1.1.1-1.6.1.1-.1.2-.1.3-.2V90l.1-.1v-.1s0-.1.1-.1v-.4c0-.6-.4-1.1-1.1-1.1-.6 0-1.1.5-1.1 1.1v.4c0 .1 0 .1.1.2v.1c0 .1.1.1.1.2.1.1.3.2.5.3h.2c-.6.1-1.1.2-1.7.4h.1s.1 0 .1-.1c.1 0 .1-.1.1-.1l.1-.1s0-.1.1-.1l.1-.1c.1-.1.1-.3.1-.5 0-.6-.5-1.1-1.1-1.1-.7 0-1.1.5-1.1 1.1 0 .3.1.5.2.7s.3.3.5.3h.5c-.7.2-1.4.5-2.1.9-.5.6-1 1.2-1.3 1.9-.2-.1-.4-.1-.7-.2l-.1-.1c-.1-.1-.2-.1-.3-.2h-.8c-.3 0-.5-.1-.8-.1.1 0 .2-.1.3-.1.1-.1.2-.1.2-.2.1-.1.1-.2.2-.3 0-.1.1-.2.1-.4 0-.1 0-.2-.1-.3 0-.1-.1-.2-.2-.3 0-.1-.1-.1-.2-.2-.1 0-.1-.1-.2-.1s-.1-.1-.2-.1h-.6s-.1 0-.1.1c0 0-.1 0-.1.1 0 0-.1 0-.1.1l-.1.1-.1.1-.1.1c0 .1-.1.2-.1.2v.9c0 .1.1.2.1.3v.1c.1.1.1.2.2.2 0 0 .1 0 .1.1h-1.5c.5-.1.8-.5.8-1.1 0-.1 0-.2-.1-.3 0-.1-.1-.2-.2-.3 0-.1-.1-.1-.2-.2-.1 0-.1-.1-.2-.1s-.1-.1-.2-.1h-.6c-.1 0-.1 0-.2.1h-.1c-.1 0-.1.1-.2.1s-.1.1-.2.2-.1.2-.2.3c0 .1-.1.2-.1.3 0 .6.4 1 1 1.1-.5 0-1 .1-1.6.2 0 0 .1 0 .1-.1.1 0 .1-.1.1-.2s.1-.1.1-.2.1-.1.1-.2v-.6c0-.1 0-.1-.1-.2v-.1c-.1-.1-.2-.3-.4-.4-.1 0-.1-.1-.2-.1h-.8c-.3.1-.5.3-.6.5v.1c0 .1 0 .1-.1.2v.4c0 .3.1.6.3.7l.1.1c.1.1.2.1.3.2h.3c-.5.1-1 .3-1.4.4l.1-.1.1-.1c.1-.1.2-.2.2-.3s0-.1.1-.2v-.2c0-.7-.4-1.1-1.1-1.1-.6 0-1.1.4-1.1 1.1v.2c0 .2.1.3.2.5l.2.2c.1 0 .2.1.2.1h.6c-.5.2-1.1.4-1.6.7l.1-.1.1-.1v-.1c0-.1.1-.1.1-.2v-.6c0-.1 0-.2-.1-.3l-.1-.1-.1-.1-.1-.1-.1-.1s-.1-.1-.2-.1-.1-.1-.2-.1h-.5c-.1 0-.1 0-.2.1-.1 0-.1.1-.2.1s-.1.1-.1.1v.1c-.1.1-.1.2-.1.4v.7c0 .1 0 .1.1.1v.1l.1.1s0 .1.1.1c0 0 .1 0 .1.1l.1.1s.1 0 .1.1c0 0 .1 0 .1.1h.6c-.4.2-.8.5-1.3.8 0-.1.1-.1.1-.2s.1-.2.1-.4v-.4c-.1-.2-.2-.3-.3-.5l-.1-.1-.1-.1s-.1 0-.1-.1c0 0-.1 0-.1-.1h-.8s-.1 0-.1.1c0 0-.1 0-.1.1 0 0-.1 0-.1.1-.1.1-.2.3-.3.5v.4c0 .1 0 .3.1.4.1.3.3.5.6.6.1 0 .1.1.2.1h.6c-.4.3-.8.7-1.2 1l.1-.1V97c0-.1 0-.3-.1-.4 0-.1-.1-.2-.2-.3l-.3-.3c-.1 0-.1 0-.2-.1h-.5c-.1 0-.1 0-.2.1-.1 0-.1.1-.2.1l-.1.1c-.1.1-.1.2-.2.3 0 .1-.1.2-.1.4v.2c0 .1 0 .1.1.2.1.2.3.5.6.6.1 0 .2.1.4.1.1 0 .3 0 .4-.1.1 0 .1-.1.2-.1l-.4.4c-3 2.8-3.2 7.6-.4 10.6l.1-.1-.4 1.2c-.1 0-.2.1-.3.2-.6.4-.9.9-1 1.6 1.5.1 2.8.7 3.7 1.7v.1l-.2.2v.4c0 .1.1.3.1.4.1.1.1.3.3.4.1.2.2.2.4.4 0 0 .1 0 .1.1.9 2.9 3.7 4.7 6.6 4.4h.1-.1c-.4.1-.6.4-.5.9l.1.4c.1.4.4.6.9.5 3-.8 6-1.4 9.1-1.8h.2c-3 .4-6 1-9 1.7l.7.9-.4 1 1.4.4.7.9c6.3-1.3 12.6-2 19-2.1l-.5.1c-6.4.1-12.8.9-19 2.2-.1 0-.3.1-.4.2l-.1.1-.2.2s-.1.1-.1.2 0 .1-.1.2v.5c.1.4.3.7.8.8 7.1 1.8 14.4 2.6 21.8 2.6s14.7-.9 21.9-2.6c.5-.1.7-.4.8-.8v-.5c0-.1 0-.1-.1-.2 0-.1 0-.1-.1-.2 0-.1-.1-.1-.2-.2l-.1-.1c-.1-.1-.2-.1-.4-.2-6.5-1.4-13-2.2-19.6-2.3h-.5c6.5.1 13 .8 19.3 2.1l.7-.9 1.4-.4-.4-1 .7-.9c.1 0 .2 0 .3.1.4.1.8-.1.9-.5l.2-.4c.1-.4-.2-.8-.5-.9 3 .3 5.8-1.6 6.7-4.5.1-.1.3-.2.3-.3.1-.1.1-.3.3-.4 0-.1 0-.3.1-.4 0-.1 0-.2-.1-.4 0 0 0-.1-.1-.1l.1-.2c.9-1.1 2.3-1.7 3.7-1.7-.1-.6-.5-1.2-.9-1.5.1.1.3.1.5.1.6 0 1.1-.5 1.1-1.1v-1zm-33.5-17.2c.1.1.2.1.3.2.1 0 .2.1.4.1h.2c-.2.1-.4.2-.7.3-.1-.2-.1-.4-.2-.6zM130.1 117c.2 0 .3 0 .5-.1l-1.8.3c.4 0 .9-.1 1.3-.2zm-2.7.4c-.5.1-1.1.2-1.6.3.5-.1 1.1-.2 1.6-.3zm6.3-.8c-.6.1-1.2.1-1.8.2.6 0 1.2-.1 1.8-.2zm3.1-.2c-.4 0-.9.1-1.3.1.4 0 .8-.1 1.3-.1zm2.5-.1h.6-.6zm7.7 0h-.7.7zm6.7.5c-.4 0-.7-.1-1.1-.1.4 0 .7 0 1.1.1zm-3.3-.3c-.3 0-.6-.1-1-.1.4 0 .7.1 1 .1zm5.6.5c.2 0 .5.1.7.1-.3 0-.7-.1-1-.1h.3zm3.6.6c-.2 0-.3-.1-.5-.1.2 0 .3 0 .5.1zm2.9.5h.1-.1zm-1.7-17h-.4c.1-.2.2-.4.4-.6 0 .1-.1.2-.1.3.1.1.1.2.1.3zM140 91.4c.1 0 .3 0 .4-.1.1 0 .1-.1.2-.1-.1.1-.1.3-.2.5-.1-.2-.2-.2-.4-.3zM124.3 118c-.7.1-1.3.3-2 .4.4-.1.8-.2 1.3-.3.2 0 .5-.1.7-.1zm50.9-19.6c1 2 .9 4.3-.1 6.2-.1-.1-.2-.1-.3-.2-.2-.1-.5-.3-.7-.4-.3-.2-.7-.3-1-.5l-.6-.3-.6-.3c-.1 0-.1 0-.2-.1-.1 0-.1 0-.2-.1-.4-.2-.8-.3-1.2-.4-.1 0-.2-.1-.3-.1-.4-.1-.8-.3-1.3-.4-.1 0-.2-.1-.3-.1-.2 0-.4-.1-.6-.1-.3-.1-.7-.1-1-.2h-.1c-.3-.1-.6-.1-1-.2h-.2c-.3 0-.6-.1-.9-.1h-.3c-.3 0-.6 0-.8-.1h-.6v-.3c0-.6-.4-1.1-1.1-1.1-.4 0-.7.2-.9.5.2-.5.4-1 .5-1.6v.5c0 .1.1.1.1.2l.2.2c.1.1.2.1.3.1h.1c.1 0 .2.1.3.1s.2 0 .3-.1h.1c.1 0 .2-.1.3-.1.1-.1.2-.1.2-.2.1-.1.1-.2.1-.3v-.3c0-.6-.5-1.1-1.1-1.1-.5 0-.9.2-1 .6.1-.5.1-1 .1-1.6v.2c0 .1.1.2.2.3l.1.1.1.1s.1.1.2.1c0 0 .1 0 .1.1.1 0 .3.1.4.1s.3 0 .4-.1c.1 0 .1 0 .1-.1 0 0 .1 0 .1-.1l.1-.1s.1 0 .1-.1c.1-.1.1-.2.2-.3v-.1c0-.1.1-.3.1-.4 0-.2-.1-.5-.2-.7l-.1-.1-.1-.1h-.1l-.1-.1h-.8s-.1 0-.1.1h-.1l-.1.1-.1.1-.1.1c-.1.1-.1.2-.1.3v.2c0-.5-.2-1-.3-1.6.1.1.1.2.2.3s.2.1.3.2c.1 0 .2.1.4.1.1 0 .2 0 .3-.1h.1c.1 0 .2-.1.3-.2.2-.2.4-.4.4-.7 4.5-.6 8.9 1 11.9 4.3zM159 92.3c.5.5.8 1.1 1.1 1.7 0 .1.1.3.2.4.8 2.3.4 4.8-1.1 6.7h-.1c-.3-.2-.6-.3-.9-.5l-.6-.3c-.2-.1-.3-.2-.5-.2-.5-.2-.9-.4-1.4-.6-.1 0-.2-.1-.3-.1s-.2-.1-.3-.1c-.6-.2-1.2-.4-1.7-.5h-.2c-.4-.1-.9-.2-1.3-.3-.1 0-.2 0-.3-.1-.2 0-.4-.1-.6-.1-.5-.1-1.1-.2-1.6-.2h-.4c-.6-.1-1.1-.1-1.7-.1h-1.2c-.2-1.7-.4-3.4-.4-5.1 4-2.4 9-2.7 13.3-.6zm-31.7 0c4.3-2.1 9.2-1.8 13.2.6 0 1.7-.2 3.4-.4 5.2h-1.2c-.6 0-1.1 0-1.7.1h-.4c-.5.1-1.1.1-1.6.2-.2 0-.4.1-.6.1-.1 0-.2 0-.3.1-.4.1-.9.2-1.3.3-.1 0-.1 0-.2.1-.6.2-1.2.3-1.8.6-.1 0-.1 0-.2.1-.1 0-.2.1-.3.1-.4.2-.9.4-1.3.6-.2.1-.4.2-.5.3l-.6.3c-.3.1-.6.3-.9.5-2.1-2.8-2.1-6.6.1-9.2zM111 98.4c3-3.2 7.5-4.7 11.8-4.2v.2c0 .1.1.2.1.2.1.1.1.2.2.2.1.1.2.1.3.2.1 0 .2.1.3.1s.3 0 .4-.1c.1 0 .2-.1.3-.2l.2-.2h.1c-.6 2.2-.3 4.6.9 6.5h-.5v-.3c0-.6-.5-1.1-1.1-1.1-.7 0-1.1.5-1.1 1.1v.3h-.6c-.3 0-.6 0-.8.1h-.3c-.3 0-.6.1-.9.1h-.2c-.3 0-.6.1-1 .2h-.1c-.3.1-.7.1-1 .2-.2 0-.4.1-.6.1-.1 0-.2.1-.3.1-.4.1-.8.2-1.3.4-.1 0-.2.1-.3.1-.4.1-.8.3-1.2.4-.1 0-.1 0-.2.1-.1 0-.1 0-.2.1-.2.1-.4.2-.6.2l-.6.3c-.3.1-.6.3-.9.4 0 0-.1 0-.1.1l-.6.3c-.1 0-.2.1-.3.1-.7-1.8-.8-4.1.2-6zm8.5 20.6c.7-.2 1.3-.3 2-.5-.6.2-1.3.3-2 .5zm38.1.2h.2c2.8.4 5.5 1 8.2 1.6-2.8-.7-5.6-1.2-8.4-1.6z"/><path class="st6" d="M107.3 97.4c0 .1-.1.1 0 0-.1.1-.1.2-.1.2v.7c0 .1.1.1.1.2.1.2.4.4.6.5h.5c.1 0 .2-.1.2-.1.1 0 .2-.1.2-.2l.2-.2c0-.1.1-.1.1-.2v-.8s0-.1-.1-.1c0 0 0-.1-.1-.1v-.1l-.1-.1c-.1-.1-.2-.2-.3-.2s-.2-.1-.4-.1c-.1 0-.2 0-.4.1s-.3.2-.4.4v.1z"/><path class="st6" d="M106 99.6c0 .2-.1.2-.1.3 0 .7.5 1.2 1.1 1.2.7 0 1.2-.5 1.2-1.2v-.4c0-.1 0-.1-.1-.2v-.1c-.1-.2-.4-.4-.7-.5h-.6c-.3.1-.5.2-.7.5 0 .2-.1.3-.1.4zm17.8-7.4c.1.1.1.2.1.3v.1l.2.2c.1.1.2.1.3.2h.7c.1 0 .1-.1.1-.1s.1 0 .1-.1l.2-.2v-.1c0-.1.1-.1.1-.2v-.4c0-.3-.1-.5-.3-.7l-.1-.1c-.2-.2-.4-.3-.7-.3-.1 0-.3 0-.4.1-.3.1-.5.3-.6.6-.1.1-.1.3-.1.4.4.1.4.2.4.3zm56.4 14.4c0-.7-.5-1.1-1.1-1.1-.7 0-1.2.4-1.2 1.1v.4c.1.2.2.4.3.5s.1.1.2.1h1.1c.1 0 .1-.1.2-.1.1-.1.2-.3.3-.5v-.1c.2-.1.2-.2.2-.3zm-56.7-9.1c-.6 0-1.1.4-1.1 1.1v.3c0 .1.1.2.1.3l.2.2c.1.1.2.1.3.1h.1c.1 0 .2.1.3.1s.2 0 .3-.1h.1c.1 0 .2-.1.3-.1s.1-.1.2-.2l.1-.1c0-.1.1-.1.1-.2v-.4c.1-.6-.3-1-1-1zm-17 5.8c.6 0 1.1-.5 1.1-1.1v-.3c0-.1-.1-.2-.1-.3l-.2-.2c-.1-.1-.2-.1-.3-.1h-.8c-.1 0-.2.1-.2.1s-.1 0-.1.1l-.1.1s0 .1-.1.1c-.1.1-.1.2-.1.3v.3c-.2.5.3 1 .9 1zm73.2 0c-.7 0-1.2.4-1.2 1.1s.5 1.1 1.2 1.1c.6 0 1.1-.4 1.1-1.1 0-.6-.5-1.1-1.1-1.1zm-72.1 1.1c0-.7-.5-1.1-1.1-1.1-.7 0-1.2.4-1.2 1.1s.5 1.1 1.2 1.1c.6 0 1.1-.4 1.1-1.1zm1.7 4.2v-.3c-.1-.3-.4-.6-.7-.7h-.6s-.1 0-.1.1c-.1 0-.1.1-.2.1l-.2.2c0 .1-.1.2-.1.2v.3c0 .6.5 1.1 1.1 1.1.3.1.8-.4.8-1z"/><path class="st4" d="M78.5 106.1v.1c0 .1.1.1.1.1h.2s.1 0 .1-.1v-.1c0-.1-.1-.2-.2-.2h-.4c.2 0 .2 0 .2.2z"/><path class="st5" d="M78.7 108.7c-.3 0-.6-.1-.9-.2-.7-.3-1.2-.7-1.5-1.3 0-.1-.1-.2-.1-.3s0-.1-.1-.2v-1.1c0-.2.1-.4.1-.6 0 0 0-.1.1-.1 0-.1.1-.1.1-.2.1-.1.1-.2.2-.3l.7-.7.6-.3c.4-.1 1.1-.2 1.5-.1.2 0 .3.1.5.2.8.4 1.3 1.1 1.5 1.9v.5c0 .2 0 .5-.1.7v.1c0 .1 0 .1-.1.2 0 .1-.1.2-.2.3 0 .1-.1.1-.1.1 0 .1-.1.1-.1.2l-.1.1c-.3.3-.6.5-1 .7-.3.3-.7.4-1 .4zm0-2.5l-.5 1.9.5-1.9zm-.6 1.9zm-1-.6c.2.2.4.3.6.5l.9-1.8-.2.1-1.3 1.2zm1.7-1.3l1 1.7c.2-.1.4-.3.6-.5l-1.6-1.2z"/><path class="st4" d="M77.8 107.5l.1.1h.3v-.4H78c-.2.1-.2.1-.2.3z"/><path class="st5" d="M78 110c-.2 0-.5 0-.7-.1-.1 0-.3-.1-.4-.2h-.1c-.2-.1-.4-.2-.5-.3l-.1-.1c-.1-.1-.2-.2-.3-.4-.1-.1-.1-.2-.2-.3 0-.1-.1-.2-.1-.3s0-.1-.1-.2v-.7c0-.7.4-1.6.9-2 .1-.1.2-.1.3-.2s.2-.1.3-.2.2-.1.4-.1c.1 0 .2-.1.3-.1.3-.1.7-.1 1 0 .1 0 .3.1.4.1s.2.1.4.1c.1 0 .2.1.3.2.1 0 .1.1.2.1l.1.1.4.4c.1.1.1.2.2.3s.1.3.2.4v.3c0 .2.1.4.1.5 0 .3-.1.6-.2.9s-.3.7-.6.9l-.3.3c-.1.1-.3.2-.5.3-.1.1-.1.1-.3.1-.5.2-.8.2-1.1.2z"/><path class="st4" d="M74.3 109.9s.1 0 0 0h.1v-.1c0-.1-.1-.2-.3-.2-.1 0-.2.1-.2.2v.1c.3-.1.3 0 .4 0z"/><path class="st5" d="M74.4 112.3h-.6c-.1 0-.2 0-.3-.1-.1 0-.2-.1-.4-.1-.6-.3-1.1-.9-1.3-1.5 0-.1 0-.2-.1-.2v-.6c0-1.5 1.2-2.7 2.7-2.7s2.7 1.2 2.7 2.7c0 .2 0 .4-.1.6 0 .2-.1.3-.1.4-.1.1-.1.2-.2.3l-.3.3c-.1.2-.3.3-.4.4-.1 0-.1.1-.2.1-.2.1-.4.2-.7.3-.1 0-.2.1-.3.1h-.4zm-.4-.5c.6.1 1.2 0 1.6-.4l-1.2-1.6h-.1l.1-.1h-.2l-.4.1h.6l-.9 1.7c.1.2.2.3.5.3l.3-1.9-.3 1.9zm.6-1.9l1.5 1c.1-.1.1-.2.2-.3l-1.4-.7h-.3zm.6 0l1.3.3v-.1l-1.3-.2zm-.6 0l.2.2-.2-.2zm-2.4-.1h.4-.4z"/><path class="st4" d="M90.4 110.1c-.1-.1-.1-.1 0 0 0-.1 0-.1-.1-.1v.1c0 .1 0 .1.1.2l-.1-.2c.3-.4.5-.8.4-1.3 0 .1.1.2.3.2.1 0 .2-.1.2-.2v-.2h-.4v.2c0-.1 0-.2-.1-.4 0 .1.1.1.2.1s.2-.1.2-.3v-.1c0-.1-.1-.1-.1-.1h-.2c-.1 0-.1.1-.2.1v.1c0-.1-.1-.2-.2-.3h.2v-.2h-.4v.2c0-.1-.1-.1-.1-.2l-.1-.1h.3v-.1s0-.1-.1-.1H90l-.1.1v.1l-.2-.2h.1c.1 0 .2-.1.2-.2v-.2s0-.1-.1-.1h-.2l-.1.1v.2c-.1-.1-.2-.1-.2-.1h.1v-.3h-.2v.3c-.1 0-.2-.1-.3-.1h.1v-.1c0-.1-.1-.2-.2-.2s-.2.1-.2.2v.1c-.1 0-.2-.1-.3-.1h.1s.1-.1.1-.2v-.1s0-.1-.1-.1h-.2s-.1 0-.1.1v.1c0 .1 0 .1.1.2H88c.1 0 .2-.1.2-.2v-.2H88l-.1.1v.1c0 .1.1.2.2.2h-.4l.1-.1v-.4h-.2v.4l.1.1h.1-.6c0-.1-.1-.1-.1-.2h.2l.1-.1v-.1c0-.1 0-.2-.1-.2h-.2c-.1 0-.1.1-.1.1v.2c0-.1-.1-.1-.1-.2h-.1.3v-.2h-.3v.2c-.1-.1-.2-.1-.3-.1h.1s.1 0 .1-.1v-.2c0-.1-.1-.2-.2-.2s-.3.1-.3.2v.1c0 .1.1.1.1.2-.1 0-.2-.1-.3-.1h.1v-.1c0-.1-.1-.2-.2-.2s-.2.1-.2.2v.1h-.4c.1 0 .2-.1.2-.2s-.1-.2-.2-.2-.2.1-.2.2.1.2.2.2h-.4.1v-.1c0-.1-.1-.2-.2-.2s-.2.1-.2.2v.1c0 .1.1.1.1.1h.1c-.1 0-.3.1-.4.1v-.2c0-.1-.1-.2-.2-.2s-.2.1-.2.2v.2h.2c-.1 0-.2.1-.4.1v-.1c0-.1 0-.1-.1-.1h-.4v.2c-.1-.1-.3-.2-.4-.2.3 0 .6-.3.6-.6v-.1c0-.3-.2-.6-.5-.6v-1.4h-.4v-.4h-.4v.4h-.4v.4h.4v.6c-.3.1-.4.3-.5.6v.2c.1.2.3.4.6.4-.2 0-.3.1-.4.2v-.1c0-.1 0-.1-.1-.1h-.4v.2c-.1 0-.2-.1-.3-.1h.2v-.2c0-.1-.1-.2-.2-.2s-.2.1-.2.2v.2c-.1 0-.2-.1-.4-.1v-.2c0-.1-.1-.2-.2-.2s-.2.1-.2.2v.1h.1-.4c.1 0 .2-.1.2-.2s-.1-.2-.2-.2-.2.1-.2.2.1.2.2.2h-.4s.1 0 .1-.1v-.1c0-.1-.1-.2-.2-.2s-.2.1-.2.2v.1l.1.1c-.1 0-.2.1-.4.1v-.1c0-.1-.1-.2-.2-.2s-.2.1-.2.2 0 .1.1.2l.1.1h.1c-.2.1-.3.1-.5.2-.1.1-.2.3-.3.4h-.6.1l.1-.1v-.4h-.2v.5H77c.1 0 .2-.1.2-.2v-.2H77v.2c0 .1.1.2.2.2h-.3v-.2s0-.1-.1-.1h-.2c-.1 0-.1.1-.1.1v.1c0 .1 0 .1.1.2h.1c-.1 0-.2.1-.3.1v-.1c0-.1-.1-.2-.2-.2s-.2.1-.2.2v.1h.3c-.1 0-.2.1-.3.2v-.3h-.2v.3h.2c-.1.1-.2.1-.3.2v-.2s0-.1-.1-.1h-.2s0 .1-.1.1v.2c0 .1.1.1.1.1h.2c-.1.1-.2.1-.3.2v-.2l-.1-.1H75v.3c0 .1.1.1.1.1h.2l-.1.1c-.7.6-.7 1.7-.1 2.4l-.1.3h-.1c-.1.1-.2.2-.2.4.3 0 .6.1.8.4v.2s0 .1.1.1l.1.1c.2.6.8 1 1.5 1-.1 0-.1.1-.1.2v.1c0 .1.1.1.2.1.7-.2 1.3-.3 2-.4h.1c-.7.1-1.3.2-2 .4l.1.2-.1.2.3.1.1.2c1.4-.3 2.8-.4 4.2-.5h-.1c-1.4 0-2.8.2-4.2.5h-.1c0 .1.1.2.2.2 1.6.4 3.2.6 4.8.6s3.3-.2 4.9-.6c.1 0 .2-.1.2-.2h-.1c-1.4-.3-2.9-.5-4.4-.5H83c1.4 0 2.9.2 4.3.5l.1-.2.3-.1-.1-.2.1-.2h.1c.1 0 .2 0 .2-.1v-.1c0-.1 0-.2-.1-.2.7.1 1.3-.3 1.5-1 0 0 .1 0 .1-.1 0 0 0-.1.1-.1v-.2c.2-.2.5-.4.8-.4 0-.1-.1-.3-.2-.3h.1c0-.1.1-.2.1-.4zm-7.5-3.8s.1 0 0 0c.1 0 .1 0 0 0l.1.1s-.1 0-.1.1c.1-.2 0-.2 0-.2zm-3.4 5.7h.1c-.1 0-.3 0-.4.1.1-.1.2-.1.3-.1zm-.6.1c-.1 0-.2 0-.4.1.2-.1.3-.1.4-.1zm1.4-.2h-.4.4zm.7 0h-.3.3zm.5-.1h.1-.1zm1.8 0h-.2.2zm1.4.1h-.2.2zm-.7 0h-.2.2zm1.3.1h.2-.2c-.1 0-.1 0 0 0zm.8.1H86h.1zm.6.1zm-.4-3.7v-.1.1zm-4.6-2.2s.1 0 0 0c.1 0 .1 0 0 0h.1v.1c0-.1-.1-.1-.1-.1zm-3.5 5.9c-.1 0-.3.1-.4.1.1 0 .2 0 .3-.1h.1zm11.3-4.3c.2.4.2 1 0 1.4h-.1c-.1 0-.1-.1-.2-.1s-.1-.1-.2-.1c0 0-.1 0-.1-.1 0 0-.1 0-.1-.1-.1 0-.2-.1-.3-.1h-.1c-.1 0-.2-.1-.3-.1h-1.3v-.1c0-.1-.1-.2-.2-.2s-.2 0-.2.1c.1-.1.1-.2.1-.3v.1h.4v-.1c0-.1-.1-.2-.2-.2s-.2.1-.2.1v-.3.1h.2v-.2c0-.1 0-.1-.1-.1h-.2v.1c0-.1 0-.2-.1-.3v.1h.4s.1-.1.1-.2c1.1-.5 2.1-.2 2.7.6zm-3.6-1.4c.1.1.2.3.2.4v.1c.2.5.1 1.1-.3 1.5-.1 0-.1-.1-.2-.1 0 0-.1 0-.1-.1h-.1c-.1 0-.2-.1-.3-.1h-.2c-.1 0-.3-.1-.4-.1s-.2 0-.3-.1h-1.4c-.1-.4-.1-.8-.1-1.1 1.2-.8 2.3-.9 3.2-.4zm-7 0c.9-.5 2.1-.4 2.9.1 0 .4 0 .8-.1 1.1h-1.4c-.1 0-.2 0-.3.1-.1 0-.3.1-.4.1h-.1c-.1 0-.2.1-.3.1 0 0-.1 0-.1.1 0 0-.1 0-.1.1-.1 0-.1.1-.2.1-.4-.4-.4-1.2.1-1.8zm-3.6 1.4c.7-.7 1.7-1.1 2.6-.9v.1h.4v-.1c-.1.5-.1 1 .2 1.5h-.1v-.1c0-.1-.1-.2-.2-.2s-.2.1-.2.2v.1h-1.2c-.1 0-.2.1-.3.1h-.1c-.1 0-.2.1-.3.1 0 0-.1 0-.1.1 0 0-.1 0-.1.1-.1 0-.1.1-.2.1l-.1.1h-.1c-.4-.3-.5-.8-.2-1.2zm1.9 4.5c.1 0 .3-.1.5-.1-.2.1-.4.1-.5.1zm8.4.1c.7.1 1.3.2 1.9.4-.6-.2-1.3-.3-1.9-.4z"/><path class="st5" d="M82.4 117.1c-1.8 0-3.6-.2-5.4-.6-1-.2-1.8-1-2-2-.6-.3-1.2-.9-1.5-1.5 0 0 0-.1-.1-.1-.3-.2-.6-.4-.8-.7-.4-.6-.6-1.3-.4-2v-.1c-.2-.8-.2-1.7.1-2.5v-.1c0-.2 0-.4.1-.5 0-.1.1-.3.1-.4.1-.2.1-.3.2-.5v-.1c.1-.2.3-.4.5-.5.1 0 .1-.1.2-.2l.1-.1.1-.1c.1-.1.2-.1.2-.2.1-.1.2-.1.3-.2s.3-.2.4-.3.3-.1.4-.2c.2-.1.5-.2.8-.3.1 0 .2-.1.3-.1.2 0 .4-.1.6-.1h.1c.2 0 .5-.1.7 0h.1c.4-.3.8-.4 1.2-.5.2-.1.4-.1.6-.1.1-.5.4-1 .9-1.4.8-1.1 2.6-1.2 3.8-.2.6.3 1.1.9 1.3 1.6.2 0 .4.1.6.1.3 0 .6.1.9.3h.2s.1 0 .1.1c.1 0 .1.1.2.1.3 0 .5 0 .7.1.2 0 .4 0 .6.1.1 0 .2.1.3.1h.1c.3.1.5.1.8.3.1 0 .3.1.4.1s.2.1.2.1c.1 0 .2.1.2.2.1 0 .2.1.3.2s.2.1.3.2l.1.1c.1.1.2.1.2.2l.1.1c.1.1.2.2.3.4l.1.1c.1.1.2.2.3.4 0 .1.1.1.1.2v.1c0 .1.1.1.1.2s.1.1.1.2 0 .1.1.2.1.3.1.4v.2c0 .1.1.2.1.3 0 .2.1.4.1.6 0 .5-.1 1-.4 1.4 0 .3-.1.7-.2.9-.1.4-.2.7-.4 1.1-.2.3-.5.5-.9.7-.3.7-.9 1.2-1.5 1.5v.2c-.2.9-1 1.7-2 1.9-1.6.3-3.4.6-5.2.6zm-1.6-7.9v.3h.2l-.1-.5s0 .1-.1.2z"/><path class="st4" d="M74.4 107.7v.2l.1.1h.3v-.2h-.3c0-.2 0-.2-.1-.1.1-.1 0-.1 0 0z"/><path class="st5" d="M74.6 110.4h-.4c-.1 0-.2 0-.3-.1h-.1c-.1 0-.2-.1-.3-.1-.4-.2-.8-.6-1.1-.9-.1-.1-.2-.3-.2-.4v-.1c0-.1-.1-.2-.1-.3 0-.2-.1-.4-.1-.6s0-.5.1-.7v-.2c0-.1.1-.3.2-.4v-.1c.1-.1.1-.2.2-.3.2-.3.7-.6 1-.8.2-.1.3-.1.5-.2.4-.1.7-.1 1.1 0 .2 0 .4.1.6.2s.5.3.6.5l.1.1.1.1c.1.1.1.2.2.2 0 .1.1.2.1.2 0 .1.1.1.1.2 0 0 0 .1.1.1v.1c0 .1.1.2.1.3 0 .2.1.4.1.5 0 .2 0 .3-.1.5 0 .2-.1.4-.2.5 0 .1 0 .1-.1.2 0 .1-.1.2-.2.3s-.1.2-.2.3l-.1.1-.3.3c-.1.1-.2.1-.2.2-.1.1-.2.1-.3.2-.1 0-.2.1-.3.1h-.6zm-2.5-3.5"/><path class="st4" d="M74.2 108.1s-.1 0 0 0c-.1.1-.1.1 0 0 0 .2.1.3.2.3s.3-.1.3-.3v-.1l-.1-.1h-.2c-.1.1-.2.1-.2.2z"/><path class="st5" d="M74.4 110.9c-1.5 0-2.7-1.2-2.7-2.7 0-.2 0-.4.1-.6v-.2c0-.1.1-.2.1-.3 0 0 0-.1.1-.1 0-.1.1-.2.1-.2.3-.5 1-1 1.6-1.1.4-.1.9-.1 1.2 0 .2 0 .4.1.6.2.3.1.6.3.8.6.2.2.3.4.5.6 0 .1.1.2.1.2 0 .1.1.2.1.3.1.2.1.5.1.7 0 1.4-1.2 2.6-2.7 2.6zm0-2.6l-.4 2 .4-2zm-.5 2zm.6-2l.4 2c.6-.2 1-.5 1.3-.9l-1.7-1.1zm-1.6 1.5c.1.1.3.3.5.3l.8-1.6-1.3 1.3zm-.3-.4zm-.4-1.3l2 .1-.1-.1h.3v-.2.1-.1.1-.1.2h2.2c0-.4-.1-.8-.3-1.1l-1.6 1 1.4-1.4c-.2-.2-.4-.4-.6-.5l-.9 1.7.4-1.9c-1-.2-2 .3-2.5 1.2l1.7.9-2 .1z"/><path class="st4" d="M78.1 106.5c0 .1.1.1.1.1h.2v-.1c0-.1 0-.1-.1-.2 0 0-.1-.1-.2-.1H78c-.1 0-.1.1-.1.1.2 0 .2.1.2.2z"/><path class="st5" d="M78.3 109.1h-.4c-.1 0-.3-.1-.4-.1s-.3-.1-.4-.1c-.1-.1-.2-.1-.3-.2s-.3-.2-.4-.3l-.3-.3c-.2-.2-.3-.5-.4-.7 0-.1 0-.2-.1-.3 0-.2-.1-.4-.1-.5 0-.3.1-.7.2-1s.4-.6.6-.9c.2-.2.5-.4.8-.5.8-.3 2-.1 2.7.4l.2.2c.4.4.7 1.2.7 1.8 0 .2 0 .4-.1.6v.1c0 .1-.1.2-.1.3s-.1.2-.1.3c-.1.2-.2.4-.4.5l-.2.2h-.1s-.1 0-.1.1h-.1c-.1.1-.2.1-.3.2s-.2.1-.3.1h-.1c-.1 0-.3.1-.4.1h-.1zm-1.6-4.1l1.4 1.2-1.4-1.2z"/><path class="st4" d="M90.6 109.7c0-.1-.1-.2-.2-.2s-.3.1-.3.2v.1s0 .1.1.1h.2c.2-.1.2-.1.2-.2z"/><path class="st5" d="M90.4 112.3h-.5c-.1 0-.2 0-.2-.1-.3-.1-.5-.2-.7-.3-.1-.1-.2-.1-.2-.2-.2-.2-.4-.4-.5-.6-.1-.1-.1-.2-.2-.4-.1-.1-.1-.3-.2-.5 0-.2-.1-.4-.1-.6 0-1.5 1.2-2.7 2.7-2.7s2.6 1.2 2.6 2.7v.6c0 .1 0 .2-.1.2-.1.4-.4.8-.7 1.1-.1.1-.2.2-.3.2-.1.1-.2.1-.3.2-.1 0-.2.1-.3.1h-.1c-.1 0-.2.1-.3.1-.3.2-.5.2-.6.2zm-.6-.5c.4.1.8.1 1.1 0l-.5-1.9.9 1.7c.1 0 .1-.1.2-.1l-1-1.6 1.2 1.5c.4-.3.6-.6.8-1.1l-1.8-.6h1.9v-.1h-2.1.2-.2l.1.1h-.1v.1-.1.1-.1.1l-.1-.1v.1-.1.1-.1.1-.1.1-.1.1-.1h-.2l-1.6 1.1c.1.2.2.3.4.4l1.4-1.4-.1.1-.8 1.6.9-1.7-.6 2zm-1.6-2c0 .2 0 .3.1.5l1.8-.5h-1.9zm1.1-2l1 1.6-.8-1.7c-.1.1-.2.1-.2.1zm-1 1.2zm3-1.2z"/><path class="st4" d="M78 107.7c-.1 0-.2.1-.2.2v.1h.4v-.1c.1-.1 0-.2-.2-.2z"/><path class="st5" d="M78 110.6c-.3 0-.6-.1-.8-.1-.2-.1-.5-.2-.7-.3-.1-.1-.2-.1-.2-.2l-.3-.3c-.1-.1-.2-.2-.2-.3l-.1-.1c-.1-.2-.2-.4-.2-.6v-.6c0-1.5 1.2-2.7 2.7-2.7s2.7 1.2 2.7 2.7v.4c0 .2-.1.4-.2.6v.1c-.1.1-.1.3-.2.4s-.1.2-.2.3l-.3.3c-.1 0-.1.1-.2.1l-.6.3c-.1 0-.2.1-.3.1-.4-.2-.7-.1-.9-.1zm-1.6-1.3c.6.7 1.8.9 2.6.5l-.9-1.7 1.4 1.4.1-.1-1.4-1.3 1.6 1.1v-.1l-1.7-1v.1l-.1-.1v.1l-.1-.1v.1-.1.1-.1h-.1l.1-.1-.2.1h.1l-1.4 1.2zm1.4-1.3zm1.1-2.1l-.7 1.6 1.2-1.2c-.2-.3-.4-.3-.5-.4zm-2.5.6l.8.7-.8-.7c.1-.1.1-.1 0 0zm-.1.2zm.4-.4z"/><path class="st4" d="M74.3 108.9c.1 0 .2-.1.2-.2v-.2h-.4v.2c-.1.1 0 .2.2.2z"/><path class="st5" d="M74.3 111.4c-1.5 0-2.7-1.2-2.7-2.7 0-.2 0-.4.1-.6v-.3c.1-.2.2-.5.3-.7.1-.1.2-.3.3-.4l.1-.1c.1-.1.2-.1.3-.2s.2-.1.3-.2c.2-.1.3-.1.5-.2.4-.1 1-.1 1.4 0 .2 0 .3.1.4.2.1 0 .1 0 .2.1 0 0 .1 0 .1.1l.1.1s.1 0 .1.1c.2.1.3.3.4.4s.2.2.2.4c.1.2.2.4.3.7 0 .2.1.4.1.6.1 1.5-1.1 2.7-2.5 2.7zm-.6-.6zm.8-2.2l.1-.1h-.2l.9-1.7h-.1l-.9 1.7.5-1.9c-.6-.2-1.3 0-1.9.3l1.1 1.6h.4l-.1.1.1-.1-.1.1h.2zm-.5-.1l-1.2-1.4s-.1 0-.1.1l1.3 1.3zm-.2 0h.2l-1.4-1.2-.2.2 1.4 1z"/><path class="st4" d="M90.5 109c-.1 0-.3.1-.3.2s.1.2.3.2c.1 0 .2-.1.2-.2.1-.1 0-.2-.2-.2z"/><path class="st5" d="M90.5 111.9c-1.5 0-2.7-1.2-2.7-2.7s1.2-2.7 2.7-2.7 2.7 1.2 2.7 2.7-1.2 2.7-2.7 2.7zm0-4.9c-1.2 0-2.2 1-2.2 2.2s1 2.2 2.2 2.2 2.2-1 2.2-2.2-1-2.2-2.2-2.2z"/><path class="st4" d="M74.5 109.2c0-.1-.1-.2-.2-.2s-.3.1-.3.2.1.2.3.2c.1.1.2 0 .2-.2z"/><path class="st5" d="M74.3 111.9c-1.5 0-2.7-1.2-2.7-2.7s1.2-2.7 2.7-2.7 2.7 1.2 2.7 2.7c-.1 1.5-1.3 2.7-2.7 2.7zm0-4.9c-1.2 0-2.2 1-2.2 2.2s1 2.2 2.2 2.2 2.2-1 2.2-2.2c-.1-1.2-1-2.2-2.2-2.2z"/><path class="st4" d="M74.9 110.1c0-.1-.1-.2-.2-.2v.2c0 .1.1.2.2.2-.1.1 0 0 0-.2z"/><path class="st5" d="M74.6 112.8c-1.5 0-2.7-1.2-2.7-2.7 0-.2 0-.3.1-.5v-.1c0-.1.1-.2.1-.3l.3-.6c.1-.1.2-.2.2-.3.1-.1.2-.2.4-.3l.1-.1c.1 0 .1-.1.2-.1h.1c.1 0 .2-.1.3-.1s.2-.1.4-.1c.3-.1.8-.1 1.1 0 .1 0 .2 0 .3.1.8.3 1.4.9 1.7 1.7 0 .1.1.2.1.3v.6c0 1.3-1.2 2.5-2.7 2.5zm.3-2.7l1.8-.6c-.4-1-1.6-1.7-2.6-1.4l.5 1.9-.1-.2v.3l-.2-.2.1.2-1.4-1.4c-.2.2-.4.5-.5.8l1.9.6-.1-.1h.1l-.1-.1.1.1-.1-.1v-.1l.1.1v-.1.1-.1.1-.1.1-.1.2h.5z"/><path class="st6" d="M78.5 106.1v.1c0 .1.1.1.1.1h.2s.1 0 .1-.1v-.1c0-.1-.1-.2-.2-.2h-.4c.2 0 .2 0 .2.2zm-.7 1.4l.1.1h.3v-.4H78c-.2.1-.2.1-.2.3zm-3.5 2.4s.1 0 0 0h.1v-.1c0-.1-.1-.2-.3-.2-.1 0-.2.1-.2.2v.1c.3-.1.3 0 .4 0z"/><path class="st6" d="M90.4 110.1c-.1-.1-.1-.1 0 0 0-.1 0-.1-.1-.1v.1c0 .1 0 .1.1.2l-.1-.2c.3-.4.5-.8.4-1.3 0 .1.1.2.3.2.1 0 .2-.1.2-.2v-.2h-.4v.2c0-.1 0-.2-.1-.4 0 .1.1.1.2.1s.2-.1.2-.3v-.1c0-.1-.1-.1-.1-.1h-.2c-.1 0-.1.1-.2.1v.1c0-.1-.1-.2-.2-.3h.2v-.2h-.4v.2c0-.1-.1-.1-.1-.2l-.1-.1h.3v-.1s0-.1-.1-.1H90l-.1.1v.1l-.2-.2h.1c.1 0 .2-.1.2-.2v-.2s0-.1-.1-.1h-.2l-.1.1v.2c-.1-.1-.2-.1-.2-.1h.1v-.3h-.2v.3c-.1 0-.2-.1-.3-.1h.1v-.1c0-.1-.1-.2-.2-.2s-.2.1-.2.2v.1c-.1 0-.2-.1-.3-.1h.1s.1-.1.1-.2v-.1s0-.1-.1-.1h-.2s-.1 0-.1.1v.1c0 .1 0 .1.1.2H88c.1 0 .2-.1.2-.2v-.2H88l-.1.1v.1c0 .1.1.2.2.2h-.4l.1-.1v-.4h-.2v.4l.1.1h.1-.6c0-.1-.1-.1-.1-.2h.2l.1-.1v-.1c0-.1 0-.2-.1-.2h-.2c-.1 0-.1.1-.1.1v.2c0-.1-.1-.1-.1-.2h-.1.3v-.2h-.3v.2c-.1-.1-.2-.1-.3-.1h.1s.1 0 .1-.1v-.2c0-.1-.1-.2-.2-.2s-.3.1-.3.2v.1c0 .1.1.1.1.2-.1 0-.2-.1-.3-.1h.1v-.1c0-.1-.1-.2-.2-.2s-.2.1-.2.2v.1h-.4c.1 0 .2-.1.2-.2s-.1-.2-.2-.2-.2.1-.2.2.1.2.2.2h-.4.1v-.1c0-.1-.1-.2-.2-.2s-.2.1-.2.2v.1c0 .1.1.1.1.1h.1c-.1 0-.3.1-.4.1v-.2c0-.1-.1-.2-.2-.2s-.2.1-.2.2v.2h.2c-.1 0-.2.1-.4.1v-.1c0-.1 0-.1-.1-.1h-.4v.2c-.1-.1-.3-.2-.4-.2.3 0 .6-.3.6-.6v-.1c0-.3-.2-.6-.5-.6v-1.4h-.4v-.4h-.4v.4h-.4v.4h.4v.6c-.3.1-.4.3-.5.6v.2c.1.2.3.4.6.4-.2 0-.3.1-.4.2v-.1c0-.1 0-.1-.1-.1h-.4v.2c-.1 0-.2-.1-.3-.1h.2v-.2c0-.1-.1-.2-.2-.2s-.2.1-.2.2v.2c-.1 0-.2-.1-.4-.1v-.2c0-.1-.1-.2-.2-.2s-.2.1-.2.2v.1h.1-.4c.1 0 .2-.1.2-.2s-.1-.2-.2-.2-.2.1-.2.2.1.2.2.2h-.4s.1 0 .1-.1v-.1c0-.1-.1-.2-.2-.2s-.2.1-.2.2v.1l.1.1c-.1 0-.2.1-.4.1v-.1c0-.1-.1-.2-.2-.2s-.2.1-.2.2 0 .1.1.2l.1.1h.1c-.2.1-.3.1-.5.2-.1.1-.2.3-.3.4h-.6.1l.1-.1v-.4h-.2v.5H77c.1 0 .2-.1.2-.2v-.2H77v.2c0 .1.1.2.2.2h-.3v-.2s0-.1-.1-.1h-.2c-.1 0-.1.1-.1.1v.1c0 .1 0 .1.1.2h.1c-.1 0-.2.1-.3.1v-.1c0-.1-.1-.2-.2-.2s-.2.1-.2.2v.1h.3c-.1 0-.2.1-.3.2v-.3h-.2v.3h.2c-.1.1-.2.1-.3.2v-.2s0-.1-.1-.1h-.2s0 .1-.1.1v.2c0 .1.1.1.1.1h.2c-.1.1-.2.1-.3.2v-.2l-.1-.1H75v.3c0 .1.1.1.1.1h.2l-.1.1c-.7.6-.7 1.7-.1 2.4l-.1.3h-.1c-.1.1-.2.2-.2.4.3 0 .6.1.8.4v.2s0 .1.1.1l.1.1c.2.6.8 1 1.5 1-.1 0-.1.1-.1.2v.1c0 .1.1.1.2.1.7-.2 1.3-.3 2-.4h.1c-.7.1-1.3.2-2 .4l.1.2-.1.2.3.1.1.2c1.4-.3 2.8-.4 4.2-.5h-.1c-1.4 0-2.8.2-4.2.5h-.1c0 .1.1.2.2.2 1.6.4 3.2.6 4.8.6s3.3-.2 4.9-.6c.1 0 .2-.1.2-.2h-.1c-1.4-.3-2.9-.5-4.4-.5H83c1.4 0 2.9.2 4.3.5l.1-.2.3-.1-.1-.2.1-.2h.1c.1 0 .2 0 .2-.1v-.1c0-.1 0-.2-.1-.2.7.1 1.3-.3 1.5-1 0 0 .1 0 .1-.1 0 0 0-.1.1-.1v-.2c.2-.2.5-.4.8-.4 0-.1-.1-.3-.2-.3h.1c0-.1.1-.2.1-.4zm-7.5-3.8s.1 0 0 0c.1 0 .1 0 0 0l.1.1s-.1 0-.1.1c.1-.2 0-.2 0-.2zm-3.4 5.7h.1c-.1 0-.3 0-.4.1.1-.1.2-.1.3-.1zm-.6.1c-.1 0-.2 0-.4.1.2-.1.3-.1.4-.1zm1.4-.2h-.4.4zm.7 0h-.3.3zm.5-.1h.1-.1zm1.8 0h-.2.2zm1.4.1h-.2.2zm-.7 0h-.2.2zm1.3.1h.2-.2c-.1 0-.1 0 0 0zm.8.1H86h.1zm.6.1zm-.4-3.7v-.1.1zm-4.6-2.2s.1 0 0 0c.1 0 .1 0 0 0h.1v.1c0-.1-.1-.1-.1-.1zm-3.5 5.9c-.1 0-.3.1-.4.1.1 0 .2 0 .3-.1h.1zm11.3-4.3c.2.4.2 1 0 1.4h-.1c-.1 0-.1-.1-.2-.1s-.1-.1-.2-.1c0 0-.1 0-.1-.1 0 0-.1 0-.1-.1-.1 0-.2-.1-.3-.1h-.1c-.1 0-.2-.1-.3-.1h-1.3v-.1c0-.1-.1-.2-.2-.2s-.2 0-.2.1c.1-.1.1-.2.1-.3v.1h.4v-.1c0-.1-.1-.2-.2-.2s-.2.1-.2.1v-.3.1h.2v-.2c0-.1 0-.1-.1-.1h-.2v.1c0-.1 0-.2-.1-.3v.1h.4s.1-.1.1-.2c1.1-.5 2.1-.2 2.7.6zm-3.6-1.4c.1.1.2.3.2.4v.1c.2.5.1 1.1-.3 1.5-.1 0-.1-.1-.2-.1 0 0-.1 0-.1-.1h-.1c-.1 0-.2-.1-.3-.1h-.2c-.1 0-.3-.1-.4-.1s-.2 0-.3-.1h-1.4c-.1-.4-.1-.8-.1-1.1 1.2-.8 2.3-.9 3.2-.4zm-7 0c.9-.5 2.1-.4 2.9.1 0 .4 0 .8-.1 1.1h-1.4c-.1 0-.2 0-.3.1-.1 0-.3.1-.4.1h-.1c-.1 0-.2.1-.3.1 0 0-.1 0-.1.1 0 0-.1 0-.1.1-.1 0-.1.1-.2.1-.4-.4-.4-1.2.1-1.8zm-3.6 1.4c.7-.7 1.7-1.1 2.6-.9v.1h.4v-.1c-.1.5-.1 1 .2 1.5h-.1v-.1c0-.1-.1-.2-.2-.2s-.2.1-.2.2v.1h-1.2c-.1 0-.2.1-.3.1h-.1c-.1 0-.2.1-.3.1 0 0-.1 0-.1.1 0 0-.1 0-.1.1-.1 0-.1.1-.2.1l-.1.1h-.1c-.4-.3-.5-.8-.2-1.2zm1.9 4.5c.1 0 .3-.1.5-.1-.2.1-.4.1-.5.1zm8.4.1c.7.1 1.3.2 1.9.4-.6-.2-1.3-.3-1.9-.4z"/><path class="st6" d="M74.4 107.7v.2l.1.1h.3v-.2h-.3c0-.2 0-.2-.1-.1.1-.1 0-.1 0 0z"/><path class="st6" d="M74.2 108.1s-.1 0 0 0c-.1.1-.1.1 0 0 0 .2.1.3.2.3s.3-.1.3-.3v-.1l-.1-.1h-.2c-.1.1-.2.1-.2.2zm3.9-1.6c0 .1.1.1.1.1h.2v-.1c0-.1 0-.1-.1-.2 0 0-.1-.1-.2-.1H78c-.1 0-.1.1-.1.1.2 0 .2.1.2.2zm12.5 3.2c0-.1-.1-.2-.2-.2s-.3.1-.3.2v.1s0 .1.1.1h.2c.2-.1.2-.1.2-.2zm-12.6-2c-.1 0-.2.1-.2.2v.1h.4v-.1c.1-.1 0-.2-.2-.2zm-3.7 1.2c.1 0 .2-.1.2-.2v-.2h-.4v.2c-.1.1 0 .2.2.2zm16.2.1c-.1 0-.3.1-.3.2s.1.2.3.2c.1 0 .2-.1.2-.2.1-.1 0-.2-.2-.2zm-16 .2c0-.1-.1-.2-.2-.2s-.3.1-.3.2.1.2.3.2c.1.1.2 0 .2-.2zm.4.9c0-.1-.1-.2-.2-.2v.2c0 .1.1.2.2.2-.1.1 0 0 0-.2z"/><path class="st4" d="M198.8 106.1v.1c0 .1.1.1.1.1h.2s.1 0 .1-.1v-.1c0-.1-.1-.2-.2-.2h-.4c.2 0 .2 0 .2.2z"/><path class="st5" d="M199 108.7c-.3 0-.6-.1-.9-.2-.7-.3-1.2-.7-1.5-1.3-.1-.1-.1-.3-.2-.4v-.1c0-.1-.1-.2-.1-.3v-.9c0-.1 0-.2.1-.3 0-.1 0-.2.1-.2.1-.3.3-.6.5-.8.1-.2.3-.3.5-.4s.4-.3.7-.3c.1 0 .1 0 .2-.1.4-.1.9-.1 1.3 0 1.1.3 1.8 1.1 2 2.1v1.1c0 .1 0 .1-.1.2 0 .1-.1.2-.1.3 0 0 0 .1-.1.1-.1.1-.1.2-.2.3l-.2.2c-.3.3-.6.5-.9.6-.2.1-.3.1-.5.1-.2.3-.4.3-.6.3zm-1.6-1.2c.3.3.6.5 1 .7l.6-1.9v.1-.1h-.2l-1.4 1.2zm2.2-.7l.7 1s.1-.1.2-.1l-.9-.9zm-1-.8z"/><path class="st4" d="M198.1 107.5c.1 0 .1 0 0 0 .1 0 .1.1 0 0l.1.1h.3v-.4h-.2c-.1.1-.2.1-.2.3z"/><path class="st5" d="M198.4 110c-.2 0-.5 0-.7-.1h-.1s-.1 0-.1-.1c-.1 0-.1 0-.2-.1-.2-.1-.3-.2-.4-.3l-.3-.3-.1-.1v-.1l-.1-.1c-.1-.1-.1-.2-.2-.3 0-.1-.1-.2-.1-.2-.1-.2-.1-.4-.1-.5v-.4c0-.7.4-1.6.9-2 .1-.1.2-.1.2-.2.1-.1.2-.1.3-.2h.1c.1 0 .2-.1.3-.1s.2-.1.2-.1c.4-.1.9-.1 1.4 0 .1 0 .2.1.3.1s.2.1.4.2h.1c.1.1.3.2.4.3s.3.3.4.5c0 .1.1.1.1.2.1.2.2.3.2.5.1.2.1.5.1.8s-.1.6-.1.9c-.1.3-.3.7-.6.9l-.3.3c-.1.1-.2.2-.4.2-.1.1-.2.1-.4.2-.6.1-1 .1-1.2.1z"/><path class="st4" d="M194.7 109.9h.1v-.1c0-.1-.1-.2-.3-.2-.1 0-.2.1-.2.2v.1c.2-.1.3 0 .4 0-.1 0-.1 0 0 0-.1 0-.1 0 0 0-.1 0-.1 0 0 0z"/><path class="st5" d="M194.7 112.3h-.6c-.2 0-.3-.1-.5-.2-.4-.2-.8-.6-1.1-1-.1-.1-.1-.2-.2-.4-.1-.1-.1-.3-.2-.5 0-.2-.1-.4-.1-.6 0-1.5 1.2-2.7 2.7-2.7s2.7 1.2 2.7 2.7c0 .2 0 .4-.1.6v.1c0 .1-.1.2-.1.3-.1.1-.1.2-.2.3l-.3.3c-.1.2-.3.3-.4.4-.1 0-.1.1-.2.1-.1.1-.2.1-.4.2h-.6c-.2.4-.3.4-.4.4zm-.3-.5h.6l-.2-1.9.1.7-.1-.7.1.3-.1-.3.8 1.7c.1 0 .2-.1.3-.2l-1.1-1.6.2.2-.2-.2 1.6 1.1c.1-.1.1-.2.2-.3l-1.7-.9h.1-.1l1.9.4c0-.2.1-.3.1-.5h-2.1l.2.1h-.1.1-.1l.1.1h-.1l.1.1h-.1v.1-.1.1-.1.1-.1.1l-.1-.2v.2-.1.1-.1l-.1.1.1-.2h-.2l-1.9-.1c0 .2 0 .4.1.6l1.8-.5-1.6 1.1c.2.4.7.8 1.4.9l.3-1.9-.3 1.9zm1.3-4l-.9 1.8 1.7-1.1c-.2-.4-.5-.6-.8-.7zm1.1 1.3z"/><path class="st4" d="M210.7 110.1c0-.1 0-.1-.1-.1v.1c0 .1 0 .1.1.2l-.1-.2c.3-.4.5-.8.4-1.3 0 .1.1.2.3.2.1 0 .2-.1.2-.2v-.2h-.4v.2c0-.1 0-.2-.1-.4 0 .1.1.1.2.1s.2-.1.2-.3v-.1c0-.1-.1-.1-.1-.1h-.2c-.1 0-.1.1-.2.1v.1c0-.1-.1-.2-.2-.3h.2v-.2h-.4v.2c0-.1-.1-.1-.1-.2l-.1-.1h.3v-.1s0-.1-.1-.1h-.2l-.1.1v.1l-.2-.2h.1c.1 0 .2-.1.2-.2v-.2s0-.1-.1-.1h-.2l-.1.1v.2c-.1-.1-.2-.1-.2-.1h.1v-.3h-.2v.3c-.1 0-.2-.1-.3-.1h.1v-.1c0-.1-.1-.2-.2-.2s-.2.1-.2.2v.1c-.1 0-.2-.1-.3-.1h.1s.1-.1.1-.2v-.1s0-.1-.1-.1h-.2s-.1 0-.1.1v.1c0 .1 0 .1.1.2h-.3c.1 0 .2-.1.2-.2v-.2h-.2l-.1.1v.1c0 .1.1.2.2.2h-.4l.1-.1v-.4h-.2v.4l.1.1h.1-.6c0-.1-.1-.1-.1-.2h.2l.1-.1v-.1c0-.1 0-.2-.1-.2h-.2c-.1 0-.1.1-.1.1v.2c0-.1-.1-.1-.1-.2h-.1.3v-.2h-.3v.2c-.1-.1-.2-.1-.3-.1h.1s.1 0 .1-.1v-.2c0-.1-.1-.2-.2-.2s-.3.1-.3.2v.1c0 .1.1.1.1.2-.1 0-.2-.1-.3-.1h.1v-.1c0-.1-.1-.2-.2-.2s-.2.1-.2.2v.1h-.4c.1 0 .2-.1.2-.2s-.1-.2-.2-.2-.2.1-.2.2.1.2.2.2h-.4.1v-.1c0-.1-.1-.2-.2-.2s-.2.1-.2.2v.1c0 .1.1.1.1.1h.1c-.1 0-.3.1-.4.1v-.2c0-.1-.1-.2-.2-.2s-.2.1-.2.2v.2h.2c-.1 0-.2.1-.4.1v-.1c0-.1 0-.1-.1-.1h-.4v.2c-.1-.1-.3-.2-.4-.2.3 0 .6-.3.6-.6v-.1c0-.3-.2-.6-.5-.6v-1h.4v-.4h-.4v-.4h-.4v.4h-.4v.4h.4v.6c-.3.1-.4.3-.5.6v.2c.1.2.3.4.6.4-.2 0-.3.1-.4.2v-.1c0-.1 0-.1-.1-.1h-.4v.2c-.1 0-.2-.1-.3-.1h.2v-.2c0-.1-.1-.2-.2-.2s-.2.1-.2.2v.2c-.1 0-.2-.1-.4-.1v-.2c0-.1-.1-.2-.2-.2s-.2.1-.2.2v.1h.1-.4c.1 0 .2-.1.2-.2s-.1-.2-.2-.2-.2.1-.2.2.1.2.2.2h-.4s.1 0 .1-.1v-.1c0-.1-.1-.2-.2-.2s-.2.1-.2.2v.1l.1.1c-.1 0-.2.1-.4.1v-.1c0-.1-.1-.2-.2-.2s-.2.1-.2.2 0 .1.1.2l.1.1h.1c-.2.1-.3.1-.5.2-.1.1-.2.3-.3.4h-.6.1l.1-.1v-.4h-.2v.5h-.3c.1 0 .2-.1.2-.2v-.2h-.2v.2c0 .1.1.2.2.2h-.3v-.2s0-.1-.1-.1h-.2c-.1 0-.1.1-.1.1v.1c0 .1 0 .1.1.2h.1c-.1 0-.2.1-.3.1v-.1c0-.1-.1-.2-.2-.2s-.2.1-.2.2v.1h.3c-.1 0-.2.1-.3.2v-.3h-.2v.3h.2c-.1.1-.2.1-.3.2v-.2s0-.1-.1-.1h-.2s0 .1-.1.1v.2c0 .1.1.1.1.1h.2c-.1.1-.2.1-.3.2v-.2l-.1-.1h-.2v.3c0 .1.1.1.1.1h.2l-.1.1c-.7.6-.7 1.7-.1 2.4l-.1.3h-.1c-.1.1-.2.2-.2.4.3 0 .6.1.8.4v.2s0 .1.1.1l.1.1c.2.6.8 1 1.5 1-.1 0-.1.1-.1.2v.1c0 .1.1.1.2.1.7-.2 1.3-.3 2-.4h.1c-.7.1-1.3.2-2 .4l.1.2-.1.2.3.1.1.2c1.4-.3 2.8-.4 4.2-.5h-.1c-1.4 0-2.8.2-4.2.5h-.1c0 .1.1.2.2.2 1.6.4 3.2.6 4.8.6s3.3-.2 4.9-.6c.1 0 .2-.1.2-.2h-.1c-1.4-.3-2.9-.5-4.4-.5h-.2c1.4 0 2.9.2 4.3.5l.1-.2.3-.1-.1-.2.1-.2h.1c.1 0 .2 0 .2-.1v-.1c0-.1 0-.2-.1-.2.7.1 1.3-.3 1.5-1 0 0 .1 0 .1-.1 0 0 0-.1.1-.1v-.2c.2-.2.5-.4.8-.4 0-.1-.1-.3-.2-.3h.1c-.4-.1-.3-.2-.3-.4zm-7.4-3.8l.1.1s-.1 0-.1.1v-.2zm-3.4 5.7h.1c-.1 0-.3 0-.4.1.1-.1.2-.1.3-.1zm-.6.1c-.1 0-.2 0-.4.1.1-.1.2-.1.4-.1zm1.3-.2h-.4.4zm.7 0h-.3.3zm.6-.1h.1-.1zm1.7 0h-.2.2zm1.5.1h-.2.2zm-.7 0h-.2.2zm1.2.1h.2-.2zm.8.1h-.1.1zm.7.1c-.1 0 0 0 0 0zm-.4-3.7c-.1 0-.1 0 0 0v-.1.1zm-4.6-2.2h.1v.1l-.1-.1zm-3.5 5.9c-.1 0-.3.1-.4.1.1 0 .2 0 .3-.1h.1zm11.3-4.3c.2.4.2 1 0 1.4h-.1c-.1 0-.1-.1-.2-.1s-.1-.1-.2-.1c0 0-.1 0-.1-.1 0 0-.1 0-.1-.1-.1 0-.2-.1-.3-.1h-.1c-.1 0-.2-.1-.3-.1h-1.3v-.1c0-.1-.1-.2-.2-.2s-.2 0-.2.1c.1-.1.1-.2.1-.3v.1h.4v-.1c0-.1-.1-.2-.2-.2s-.2.1-.2.1v-.3.1h.2v-.2c0-.1 0-.1-.1-.1h-.2v.1c0-.1 0-.2-.1-.3v.1h.4s.1-.1.1-.2c1-.5 2-.2 2.7.6zm-3.6-1.4c.1.1.2.3.2.4v.1c.2.5.1 1.1-.3 1.5-.1 0-.1-.1-.2-.1 0 0-.1 0-.1-.1h-.1c-.1 0-.2-.1-.3-.1h-.2c-.1 0-.3-.1-.4-.1s-.2 0-.3-.1h-1.4c-.1-.4-.1-.8-.1-1.1 1.1-.8 2.2-.9 3.2-.4zm-7.1 0c.9-.5 2.1-.4 2.9.1 0 .4 0 .8-.1 1.1h-1.4c-.1 0-.2 0-.3.1-.1 0-.3.1-.4.1h-.1c-.1 0-.2.1-.3.1 0 0-.1 0-.1.1 0 0-.1 0-.1.1-.1 0-.1.1-.2.1-.4-.4-.4-1.2.1-1.8zm-3.6 1.4c.7-.7 1.7-1.1 2.6-.9v.1h.4v-.1c-.1.5-.1 1 .2 1.5h-.1v-.1c0-.1-.1-.2-.2-.2s-.2.1-.2.2v.1h-1.2c-.1 0-.2.1-.3.1h-.1c-.1 0-.2.1-.3.1 0 0-.1 0-.1.1 0 0-.1 0-.1.1-.1 0-.1.1-.2.1l-.1.1h-.1c-.4-.3-.4-.8-.2-1.2zm1.9 4.5c.1 0 .3-.1.5-.1-.2.1-.3.1-.5.1zm8.5.1c.7.1 1.3.2 1.9.4-.7-.2-1.3-.3-1.9-.4z"/><path class="st5" d="M202.8 117.1c-1.8 0-3.6-.2-5.4-.6-1-.2-1.8-1-2-2-.7-.4-1.2-.9-1.6-1.6-.3-.2-.6-.4-.9-.7-.4-.6-.6-1.3-.4-2v-.1c-.2-.8-.2-1.7.1-2.5v-.1c0-.2 0-.4.1-.5 0-.1.1-.3.1-.4l.3-.6.3-.3.1-.1c.1-.1.2-.1.2-.2h.1v-.1l.1-.1.2-.2c.1-.1.2-.1.3-.2s.2-.1.3-.2.2-.1.3-.2c.1 0 .1 0 .2-.1.2-.1.5-.2.8-.3.1 0 .1 0 .2-.1.3-.1.5-.1.8-.1.3-.1.5-.1.8-.1h.1c.4-.3.8-.4 1.2-.5.2-.1.4-.1.6-.1.1-.5.4-1 .9-1.4.8-1.1 2.6-1.2 3.8-.2.6.3 1.1.9 1.3 1.6.2 0 .4.1.6.1.3 0 .6.1.9.3.2.1.4.1.6.2h1.5c.1 0 .2 0 .2.1h.1c.3.1.5.1.8.3.1 0 .2.1.3.1.1.1.3.2.5.3.1 0 .2.1.3.1.1.1.2.1.3.2l.1.1c.1 0 .1.1.2.1l.4.4.1.1.2.2.1.1c.1.1.1.2.2.3v.2c0 .1.1.1.1.2.1.1.1.2.2.3.1.2.1.4.2.6s.1.4.1.6v.4c0 .5-.1 1-.4 1.4 0 .3-.1.7-.2.9-.1.4-.2.7-.4 1.1-.2.3-.5.5-.9.7-.3.7-.9 1.2-1.5 1.5v.2c-.2.9-1 1.7-2 1.9-1.9.7-3.7 1-5.5 1zm-1.6-7.9v.3h.2l-.1-.5c-.1 0-.1.1-.1.2z"/><path class="st4" d="M194.8 107.7v.2l.1.1h.3v-.2h-.3c0-.2-.1-.2-.1-.1z"/><path class="st5" d="M195 110.4c-.2 0-.4 0-.6-.1-.2 0-.3-.1-.5-.2-.4-.2-.8-.6-1.1-.9-.1-.1-.1-.2-.2-.3s-.1-.2-.1-.3 0-.1-.1-.2c0-.2-.1-.4-.1-.6v-.4c0-.1.1-.3.1-.4s.1-.3.2-.4l.1-.1c.1-.1.1-.2.2-.3.2-.3.7-.6 1-.8.5-.2 1.1-.3 1.6-.2.2 0 .4.1.6.2s.5.3.6.5l.4.4c.1.1.1.2.2.3 0 .1.1.2.1.2v.1c0 .1.1.2.1.3 0 .2.1.4.1.5 0 .2 0 .5-.1.6 0 .1-.1.3-.1.4s0 .1-.1.2c0 .1-.1.2-.2.3s-.1.2-.2.3l-.1.1-.3.3c-.1.1-.2.1-.2.2-.2.1-.5.2-.7.3h-.6zm-.2-2.4l-1.3 1.4 1.3-1.4z"/><path class="st4" d="M194.5 108.1c0 .2.1.3.2.3s.3-.1.3-.3v-.1l-.1-.1h-.2l-.2.2z"/><path class="st5" d="M194.7 110.9c-1.5 0-2.7-1.2-2.7-2.7 0-.2 0-.4.1-.6v-.2c.1-.2.2-.3.3-.5.3-.5 1-1 1.5-1.1.4-.1.9-.1 1.3 0 .5.1 1 .4 1.3.8.1.1.2.2.2.3 0 0 0 .1.1.1.1.1.2.3.2.5 0 .1.1.2.1.3.1.2.1.5.1.7.2 1.2-1 2.4-2.5 2.4zm-1.4-1.1c.3.3.6.4 1 .5l.5-2-1.5 1.5zm1.5-1.5l.4 2c.6-.2 1-.5 1.3-.9l-1.7-1.1zm-1.9 1.1zm2-1.2h2v-.1l-2 .1 1.9-.5c0-.2-.1-.3-.2-.4l-1.7.9 1.4-1.4c-.4-.4-1-.7-1.6-.7-.9 0-1.6.5-1.9 1.2l1.7.8h-.1.1l-1.9-.4c0 .1-.1.3-.1.4h2.1l-.1-.1.2.1v-.1.1-.1.2h.2z"/><path class="st4" d="M198.5 106.5c0 .1.1.1.1.1h.2v-.1c0-.1 0-.1-.1-.2 0 0-.1-.1-.2-.1h-.1c-.1 0-.1.1-.1.1.1 0 .1.1.2.2-.1-.1-.1 0 0 0z"/><path class="st5" d="M198.7 109.1h-.4c-.1 0-.2-.1-.4-.1-.1 0-.2-.1-.4-.1-.1 0-.2-.1-.2-.1-.2-.1-.3-.2-.5-.4l-.3-.3c-.1-.1-.2-.3-.2-.4-.1-.1-.1-.2-.1-.3v-.2c0-.2-.1-.4-.1-.6 0-.4.1-.8.3-1.2.1-.3.3-.5.6-.7.3-.3.7-.5 1.1-.6.7-.2 1.8 0 2.4.5l.2.2c.4.4.7 1.2.7 1.8 0 .2 0 .4-.1.6v.3c0 .1-.1.3-.2.4-.1.2-.2.4-.4.5l-.2.2s-.1.1-.2.1c-.1.1-.2.2-.4.2-.1.1-.2.1-.4.1-.1 0-.3.1-.4.1h-.4zm-1.6-4.1l1.4 1.2-1.4-1.2z"/><path class="st4" d="M211 109.7c0-.1-.1-.2-.2-.2s-.3.1-.3.2v.1s0 .1.1.1h.2c.1-.1.2-.1.2-.2z"/><path class="st5" d="M210.7 112.3c-.2 0-.4 0-.6-.1-.1 0-.2-.1-.3-.1-.2-.1-.3-.1-.5-.2-.1-.1-.3-.2-.4-.3-.3-.3-.7-.8-.8-1.2 0-.1 0-.2-.1-.2v-.6c0-1.5 1.2-2.7 2.7-2.7s2.6 1.2 2.6 2.7v.5c0 .1 0 .2-.1.2-.1.2-.2.5-.4.7-.1.1-.2.2-.2.3l-.1.1c-.1.1-.2.2-.3.2-.1.1-.2.1-.3.2s-.2.1-.4.1c-.1 0-.2.1-.3.1-.1.3-.3.3-.5.3zm-.9-.7c.4.2 1 .3 1.5.2l-.5-1.9.1.1v-.1l.9 1.7-.9-1.7.1.1-.1-.2h.4l-.5-.1.1.1-.1-.1.1.1v.1-.1.1-.1.1-.1h-.6l-1.5.5c.1.3.3.7.6.9l1.4-1.4-.1.1-.9 1.7zm-.6-3.5zm.1 0c-.1 0-.1 0 0 0-.1 0-.1 0 0 0zm2.6-.3l.1.1s-.1 0-.1-.1zm-.2 0z"/><path class="st4" d="M198.4 107.7c-.1 0-.2.1-.2.2v.1h.4v-.1c0-.1-.1-.2-.2-.2z"/><path class="st5" d="M198.4 110.6c-.3 0-.6-.1-.8-.1-.2-.1-.5-.2-.7-.3-.3-.2-.4-.3-.5-.5-.1-.1-.1-.2-.2-.2-.1-.1-.2-.3-.2-.4-.1-.1-.1-.3-.1-.4v-.6c0-1.5 1.2-2.7 2.7-2.7s2.7 1.2 2.7 2.7v.4c0 .3-.1.5-.2.8-.1.1-.1.2-.2.3s-.1.2-.2.2c-.1.1-.2.2-.2.3l-.1.1h-.1c-.2.2-.4.3-.7.4-.1 0-.2.1-.3.1-.4-.2-.7-.1-.9-.1zm-2-1.9c.5 1.1 2 1.6 3 1.1l-.9-1.7 1.4 1.4c.1-.1.2-.2.3-.4l-1.6-1.1.3.1-.3-.2h1.9-2.1.1-.2v.1l-.1-.1.1.1-.1-.1v.1l-.1-.1v.1-.1.1-.1l-.1.1v-.1h-.2l-1.4.8zm2.8-2.8l-.7 1.8 1.1-1.5c0-.1-.2-.2-.4-.3zm-1.2 1.7l-1.2-1.2-.1.1 1.3 1.1z"/><path class="st4" d="M194.6 108.9c.1 0 .2-.1.2-.2v-.2h-.4v.2c0 .1.1.2.2.2z"/><path class="st5" d="M194.6 111.4c-1.5 0-2.7-1.2-2.7-2.7v-.4c0-.2.1-.3.1-.5.1-.2.2-.5.3-.7l.3-.3c0-.1.1-.1.2-.1.1-.1.2-.1.2-.2.1-.1.2-.1.3-.2.1 0 .2-.1.3-.1h.2c.3-.1.8-.1 1.2 0 .1 0 .2 0 .3.1h.1c.1 0 .2.1.4.1h.1c.1.1.2.1.4.2s.3.2.4.4c.1.1.2.2.2.3.1.1.1.2.2.3s.1.3.2.5v.2c0 .2.1.4.1.6-.1 1.3-1.3 2.5-2.8 2.5zm.2-2.8h1.9-1.9v-.1h-.1l.3-.4-.3.4.9-1.7h-.1l-.9 1.7.5-1.9-.5 1.9.3-1.9c-.3-.1-.7 0-1 .1l.5 1.9-.9-1.7c-.2.1-.4.2-.6.4l1.4 1.3h.5zm-.5-.1l-.4-.4.4.4zm-.3 0l-1.4-.5 1.4.5z"/><path class="st4" d="M210.9 109c-.1 0-.3.1-.3.2s.1.2.3.2c.1 0 .2-.1.2-.2s-.1-.2-.2-.2z"/><path class="st5" d="M210.9 111.9c-1.5 0-2.7-1.2-2.7-2.7s1.2-2.7 2.7-2.7 2.7 1.2 2.7 2.7c-.1 1.5-1.3 2.7-2.7 2.7zm0-4.9c-1.2 0-2.2 1-2.2 2.2s1 2.2 2.2 2.2 2.2-1 2.2-2.2c-.1-1.2-1-2.2-2.2-2.2z"/><path class="st4" d="M194.9 109.2c0-.1-.1-.2-.2-.2s-.3.1-.3.2.1.2.3.2c0 .1.2 0 .2-.2z"/><path class="st5" d="M194.6 111.9c-1.5 0-2.7-1.2-2.7-2.7s1.2-2.7 2.7-2.7 2.7 1.2 2.7 2.7-1.2 2.7-2.7 2.7zm0-4.9c-1.2 0-2.2 1-2.2 2.2s1 2.2 2.2 2.2 2.2-1 2.2-2.2-1-2.2-2.2-2.2z"/><path class="st4" d="M195.2 110.1c0-.1-.1-.2-.2-.2v.2c0 .1.1.2.2.2-.1.1 0 0 0-.2z"/><path class="st5" d="M195 112.8c-1.5 0-2.7-1.2-2.7-2.7 0-.2 0-.4.1-.6 0-.1.1-.3.1-.4v-.1c.1-.1.2-.3.2-.4.1-.1.2-.2.2-.3.1-.1.2-.2.4-.3.1-.1.2-.2.4-.2.1 0 .1-.1.2-.1h.2c.1 0 .2-.1.3-.1.3-.1.8-.1 1.1 0 .1 0 .2 0 .3.1.8.3 1.4.8 1.7 1.6 0 .1.1.2.1.3 0 .2.1.4.1.6-.1 1.4-1.2 2.6-2.7 2.6zm.2-2.7l1.9.1c0-.2 0-.4-.1-.7l-1.8.6 1.6-1.1c-.5-.8-1.6-1.2-2.5-.9l.6 1.8-.1-.3.1.3-.2-.2.1.2-1.4-1.4c-.1.1-.2.3-.3.4l1.6 1.1-1.8-.6c-.1.2-.1.4-.1.7h2l-.1-.1h.1l-.1-.1h.1l-.1-.1.1.1v-.1l.1.1v-.1.1-.1.1-.1.2l.3.1z"/><path class="st6" d="M198.8 106.1v.1c0 .1.1.1.1.1h.2s.1 0 .1-.1v-.1c0-.1-.1-.2-.2-.2h-.4c.2 0 .2 0 .2.2zm-.7 1.4c.1 0 .1 0 0 0 .1 0 .1.1 0 0l.1.1h.3v-.4h-.2c-.1.1-.2.1-.2.3zm-3.4 2.4h.1v-.1c0-.1-.1-.2-.3-.2-.1 0-.2.1-.2.2v.1c.2-.1.3 0 .4 0-.1 0-.1 0 0 0-.1 0-.1 0 0 0-.1 0-.1 0 0 0z"/><path class="st6" d="M210.7 110.1c0-.1 0-.1-.1-.1v.1c0 .1 0 .1.1.2l-.1-.2c.3-.4.5-.8.4-1.3 0 .1.1.2.3.2.1 0 .2-.1.2-.2v-.2h-.4v.2c0-.1 0-.2-.1-.4 0 .1.1.1.2.1s.2-.1.2-.3v-.1c0-.1-.1-.1-.1-.1h-.2c-.1 0-.1.1-.2.1v.1c0-.1-.1-.2-.2-.3h.2v-.2h-.4v.2c0-.1-.1-.1-.1-.2l-.1-.1h.3v-.1s0-.1-.1-.1h-.2l-.1.1v.1l-.2-.2h.1c.1 0 .2-.1.2-.2v-.2s0-.1-.1-.1h-.2l-.1.1v.2c-.1-.1-.2-.1-.2-.1h.1v-.3h-.2v.3c-.1 0-.2-.1-.3-.1h.1v-.1c0-.1-.1-.2-.2-.2s-.2.1-.2.2v.1c-.1 0-.2-.1-.3-.1h.1s.1-.1.1-.2v-.1s0-.1-.1-.1h-.2s-.1 0-.1.1v.1c0 .1 0 .1.1.2h-.3c.1 0 .2-.1.2-.2v-.2h-.2l-.1.1v.1c0 .1.1.2.2.2h-.4l.1-.1v-.4h-.2v.4l.1.1h.1-.6c0-.1-.1-.1-.1-.2h.2l.1-.1v-.1c0-.1 0-.2-.1-.2h-.2c-.1 0-.1.1-.1.1v.2c0-.1-.1-.1-.1-.2h-.1.3v-.2h-.3v.2c-.1-.1-.2-.1-.3-.1h.1s.1 0 .1-.1v-.2c0-.1-.1-.2-.2-.2s-.3.1-.3.2v.1c0 .1.1.1.1.2-.1 0-.2-.1-.3-.1h.1v-.1c0-.1-.1-.2-.2-.2s-.2.1-.2.2v.1h-.4c.1 0 .2-.1.2-.2s-.1-.2-.2-.2-.2.1-.2.2.1.2.2.2h-.4.1v-.1c0-.1-.1-.2-.2-.2s-.2.1-.2.2v.1c0 .1.1.1.1.1h.1c-.1 0-.3.1-.4.1v-.2c0-.1-.1-.2-.2-.2s-.2.1-.2.2v.2h.2c-.1 0-.2.1-.4.1v-.1c0-.1 0-.1-.1-.1h-.4v.2c-.1-.1-.3-.2-.4-.2.3 0 .6-.3.6-.6v-.1c0-.3-.2-.6-.5-.6v-1h.4v-.4h-.4v-.4h-.4v.4h-.4v.4h.4v.6c-.3.1-.4.3-.5.6v.2c.1.2.3.4.6.4-.2 0-.3.1-.4.2v-.1c0-.1 0-.1-.1-.1h-.4v.2c-.1 0-.2-.1-.3-.1h.2v-.2c0-.1-.1-.2-.2-.2s-.2.1-.2.2v.2c-.1 0-.2-.1-.4-.1v-.2c0-.1-.1-.2-.2-.2s-.2.1-.2.2v.1h.1-.4c.1 0 .2-.1.2-.2s-.1-.2-.2-.2-.2.1-.2.2.1.2.2.2h-.4s.1 0 .1-.1v-.1c0-.1-.1-.2-.2-.2s-.2.1-.2.2v.1l.1.1c-.1 0-.2.1-.4.1v-.1c0-.1-.1-.2-.2-.2s-.2.1-.2.2 0 .1.1.2l.1.1h.1c-.2.1-.3.1-.5.2-.1.1-.2.3-.3.4h-.6.1l.1-.1v-.4h-.2v.5h-.3c.1 0 .2-.1.2-.2v-.2h-.2v.2c0 .1.1.2.2.2h-.3v-.2s0-.1-.1-.1h-.2c-.1 0-.1.1-.1.1v.1c0 .1 0 .1.1.2h.1c-.1 0-.2.1-.3.1v-.1c0-.1-.1-.2-.2-.2s-.2.1-.2.2v.1h.3c-.1 0-.2.1-.3.2v-.3h-.2v.3h.2c-.1.1-.2.1-.3.2v-.2s0-.1-.1-.1h-.2s0 .1-.1.1v.2c0 .1.1.1.1.1h.2c-.1.1-.2.1-.3.2v-.2l-.1-.1h-.2v.3c0 .1.1.1.1.1h.2l-.1.1c-.7.6-.7 1.7-.1 2.4l-.1.3h-.1c-.1.1-.2.2-.2.4.3 0 .6.1.8.4v.2s0 .1.1.1l.1.1c.2.6.8 1 1.5 1-.1 0-.1.1-.1.2v.1c0 .1.1.1.2.1.7-.2 1.3-.3 2-.4h.1c-.7.1-1.3.2-2 .4l.1.2-.1.2.3.1.1.2c1.4-.3 2.8-.4 4.2-.5h-.1c-1.4 0-2.8.2-4.2.5h-.1c0 .1.1.2.2.2 1.6.4 3.2.6 4.8.6s3.3-.2 4.9-.6c.1 0 .2-.1.2-.2h-.1c-1.4-.3-2.9-.5-4.4-.5h-.2c1.4 0 2.9.2 4.3.5l.1-.2.3-.1-.1-.2.1-.2h.1c.1 0 .2 0 .2-.1v-.1c0-.1 0-.2-.1-.2.7.1 1.3-.3 1.5-1 0 0 .1 0 .1-.1 0 0 0-.1.1-.1v-.2c.2-.2.5-.4.8-.4 0-.1-.1-.3-.2-.3h.1c-.4-.1-.3-.2-.3-.4zm-7.4-3.8l.1.1s-.1 0-.1.1v-.2zm-3.4 5.7h.1c-.1 0-.3 0-.4.1.1-.1.2-.1.3-.1zm-.6.1c-.1 0-.2 0-.4.1.1-.1.2-.1.4-.1zm1.3-.2h-.4.4zm.7 0h-.3.3zm.6-.1h.1-.1zm1.7 0h-.2.2zm1.5.1h-.2.2zm-.7 0h-.2.2zm1.2.1h.2-.2zm.8.1h-.1.1zm.7.1c-.1 0 0 0 0 0zm-.4-3.7c-.1 0-.1 0 0 0v-.1.1zm-4.6-2.2h.1v.1l-.1-.1zm-3.5 5.9c-.1 0-.3.1-.4.1.1 0 .2 0 .3-.1h.1zm11.3-4.3c.2.4.2 1 0 1.4h-.1c-.1 0-.1-.1-.2-.1s-.1-.1-.2-.1c0 0-.1 0-.1-.1 0 0-.1 0-.1-.1-.1 0-.2-.1-.3-.1h-.1c-.1 0-.2-.1-.3-.1h-1.3v-.1c0-.1-.1-.2-.2-.2s-.2 0-.2.1c.1-.1.1-.2.1-.3v.1h.4v-.1c0-.1-.1-.2-.2-.2s-.2.1-.2.1v-.3.1h.2v-.2c0-.1 0-.1-.1-.1h-.2v.1c0-.1 0-.2-.1-.3v.1h.4s.1-.1.1-.2c1-.5 2-.2 2.7.6zm-3.6-1.4c.1.1.2.3.2.4v.1c.2.5.1 1.1-.3 1.5-.1 0-.1-.1-.2-.1 0 0-.1 0-.1-.1h-.1c-.1 0-.2-.1-.3-.1h-.2c-.1 0-.3-.1-.4-.1s-.2 0-.3-.1h-1.4c-.1-.4-.1-.8-.1-1.1 1.1-.8 2.2-.9 3.2-.4zm-7.1 0c.9-.5 2.1-.4 2.9.1 0 .4 0 .8-.1 1.1h-1.4c-.1 0-.2 0-.3.1-.1 0-.3.1-.4.1h-.1c-.1 0-.2.1-.3.1 0 0-.1 0-.1.1 0 0-.1 0-.1.1-.1 0-.1.1-.2.1-.4-.4-.4-1.2.1-1.8zm-3.6 1.4c.7-.7 1.7-1.1 2.6-.9v.1h.4v-.1c-.1.5-.1 1 .2 1.5h-.1v-.1c0-.1-.1-.2-.2-.2s-.2.1-.2.2v.1h-1.2c-.1 0-.2.1-.3.1h-.1c-.1 0-.2.1-.3.1 0 0-.1 0-.1.1 0 0-.1 0-.1.1-.1 0-.1.1-.2.1l-.1.1h-.1c-.4-.3-.4-.8-.2-1.2zm1.9 4.5c.1 0 .3-.1.5-.1-.2.1-.3.1-.5.1zm8.5.1c.7.1 1.3.2 1.9.4-.7-.2-1.3-.3-1.9-.4zm-11.2-4.8v.2l.1.1h.3v-.2h-.3c0-.2-.1-.2-.1-.1z"/><path class="st6" d="M194.5 108.1c0 .2.1.3.2.3s.3-.1.3-.3v-.1l-.1-.1h-.2l-.2.2zm4-1.6c0 .1.1.1.1.1h.2v-.1c0-.1 0-.1-.1-.2 0 0-.1-.1-.2-.1h-.1c-.1 0-.1.1-.1.1.1 0 .1.1.2.2-.1-.1-.1 0 0 0zm12.5 3.2c0-.1-.1-.2-.2-.2s-.3.1-.3.2v.1s0 .1.1.1h.2c.1-.1.2-.1.2-.2zm-12.6-2c-.1 0-.2.1-.2.2v.1h.4v-.1c0-.1-.1-.2-.2-.2zm-3.8 1.2c.1 0 .2-.1.2-.2v-.2h-.4v.2c0 .1.1.2.2.2zm16.3.1c-.1 0-.3.1-.3.2s.1.2.3.2c.1 0 .2-.1.2-.2s-.1-.2-.2-.2zm-16 .2c0-.1-.1-.2-.2-.2s-.3.1-.3.2.1.2.3.2c0 .1.2 0 .2-.2zm.3.9c0-.1-.1-.2-.2-.2v.2c0 .1.1.2.2.2-.1.1 0 0 0-.2z"/><path class="st7" d="M96.5 152.7L72.1 142l-3.5 8.1 24.6 10.8z"/><path class="st8" d="M88.95 118.267v76.6h-13v-76.6z"/><path class="st5" d="M90 196H74.8v-78.8H90V196zm-13-2.2h10.8v-74.4H77v74.4z"/><path class="st9" d="M69.4 194.5h26v7.2h-26z"/><path class="st5" d="M96.5 202.7H68.3v-9.4h28.2v9.4zm-26-2.2h23.8v-5H70.5v5z"/><path class="st10" d="M71.6 115.3h21.6v7.2H71.6z"/><path class="st5" d="M94.3 123.5H70.5v-9.4h23.8v9.4zm-21.6-2.2h19.4v-5H72.7v5z"/><path class="st7" d="M65.547 142.02l47.32-18.48 3.201 8.196-47.32 18.481z"/><path class="st7" d="M65.547 142.02l47.32-18.48 3.201 8.196-47.32 18.481zm.007 22.815l30.926-12.078 3.202 8.197-30.926 12.078zM188.7 152.7L213 142l3.5 8.1-24.6 10.8z"/><path class="st8" d="M209.3 118.219v76.6h-13v-76.6z"/><path class="st5" d="M195.1 117.1h15.2V196h-15.2v-78.9zm13 2.2h-10.8v74.4h10.8v-74.4z"/><path class="st9" d="M215.78 201.63h-26v-7.2h26z"/><path class="st5" d="M188.6 193.4h28.2v9.4h-28.2v-9.4zm26.1 2.2h-23.8v5h23.8v-5z"/><path class="st10" d="M213.58 122.42h-21.6v-7.2h21.6z"/><path class="st5" d="M190.8 114.2h23.8v9.4h-23.8v-9.4zm21.7 2.2H193v5h19.4v-5z"/><path class="st7" d="M216.42 150.204l-47.32-18.481 3.201-8.197 47.32 18.48z"/><path class="st7" d="M216.42 150.204l-47.32-18.481 3.201-8.197 47.32 18.48zm-30.929 10.77l3.202-8.197 30.925 12.078-3.201 8.197z"/><path class="st11" d="M142.7 116.2h-39.9v34.6c0 50.2 39.9 48.1 39.9 48.1s39.9 2.1 39.9-48.1v-34.6h-39.9z"/><defs><path id="f" d="M142.7 116.2h-39.9v34.6c0 50.2 39.9 48.1 39.9 48.1s39.9 2.1 39.9-48.1v-34.6h-39.9z"/></defs><clipPath id="a"><use xlink:href="#f"/></clipPath><path clip-path="url(#a)" fill-rule="evenodd" clip-rule="evenodd" fill="#ffee60" d="M100.2 156.2h42.5v45.4h-42.5z"/><path clip-path="url(#a)" fill-rule="evenodd" clip-rule="evenodd" fill="#cfcfcf" d="M142.7 110.7h42.5v45.4h-42.5z"/><path d="M110.8 155.2h4.2v44.6h-4.2zm7.9 0h4.2v44.6h-4.2zm-15.9 0h4.2v44.6h-4.2zm23.7 0h4.2v44.6h-4.2zm7.8 0h4.2v44.6h-4.2z" clip-path="url(#a)" fill="#aa2718"/><path d="M118.7 193.4s20.2 2.9 24-10.4v18.6s-16.2-1.8-24-8.2zm48 0s-20.2 2.9-24-10.4v18.6s16.2-1.8 24-8.2z" fill-rule="evenodd" clip-rule="evenodd" fill="#cfcfcf"/><path d="M100.2 113.5v36.8c0 53.6 42.5 51.3 42.5 51.3s42.5 2.2 42.5-51.3v-36.8m-2.6 37.3c0 50.2-39.9 48.1-39.9 48.1s-39.9 2.1-39.9-48.1v-34.6h79.8v34.6z" fill-rule="evenodd" clip-rule="evenodd" fill="#010101"/><path class="st17" d="M151.8 194.8s-3.1-4.9-9 1c4.7 4.7 9-1 9-1z"/><path class="st17" d="M134.1 194.8s3.1-4.9 9 1c-4.7 4.7-9-1-9-1z"/><path class="st18" d="M143 189.1s-2.8 2.4 0 5.9c2.8-3.4 0-5.9 0-5.9z"/><path class="st18" d="M146.3 191.2s-3.3-.8-3.3 4.2c3.9 0 3.3-4.2 3.3-4.2zm-6.7 0s-.6 4.2 3.3 4.2c0-5-3.3-4.2-3.3-4.2z"/><path class="st11" d="M167.1 122.7l.8.4.3.6.4.4 1.6-.6 1 .1.1-.6-1.1-.1-.1.3-.4.1-.2-.2.3-.2.3.1-.1-.3.1-.5.2-.4-.5.3-.4-.1.2.4v.3l-.3.2-.4-.1v-.5h-.4l-.1-.3.2-.2h.3l.1-.2-.1-.4.2-.3-.2-.2-.5.2-.2.4.2.2-.3.3h-.4v-.2l-.2.1-.3-.4.2-.4.3-.2-.1-.2.1-.7-.2-.2-.3.4-.5-.1v.2l.3.6-.3.3h-.4l-.2-.3.2-.6-.6.4h-.3v-.4l.3-.3v-.5h-.5l-.3-.8.2.8-.1.6.1.6-.4.5v.2l.7.3.5.4.6.3z"/><path class="st11" d="M175.2 122.8l.9-1.7-2.5 1.4-.2-.5-.7.9-.8 1.4-.2 1.3.1 1.5-.1 1.6-.2 1.7.2 1.6.7 2.1.5 1.3.1 1.2v.6l-.4.9-.9.7-1 .3-1.7-.3-1.1-1.1-.9-1.3-.7-1.4-.5-2.5-.2-.5.9.8.7.4-.4-.6-.3-.7-.1-.8.2-1 .9 1.1.7.7-.2-1.2v-1.5l-.1-.9-.2-.6.9.8.1.5v.3l.2-1.1-.1-1.2-.1-1.3-.1-.9v-.7l-.4-.4-.3-.6-.8-.4-.6-.5-.6-.3-.5-.4-.7-.3v-.2l-1.1.4-.2.3-.4.1h-1.3l-.3.3.1.4v.7l-.1.4.1.3.2.2h1.3l.3.1-.1.2.1.2-2 .1-1.8-.8-1.4-1.1-1.5-.5.9.7.5.7.7.6 1.5.9 1.2.3h.1l1-.1.8-.8-.8.8-1 .1-.1.6-.1.1.1.3-.2.4.5.3.8-.1.2.2v.3l-.5.4-1.1.3-1.4.1-1.3 1.8h-.1l1.4-1.8-1.5-.5-1.4-.8-1.3-1.1-1.2-1.2.4-.8v-.7l-.3-.3-.5-.9-.5-.3-.7-.2.5.6.3.8.1.1-.2-.1-.2.4-.7.1-.1.4-.5.3-.2.5.2.5-.7.6-.6.3-.4.4-.1.5-.2.5v.5l.5-.7.6-.3.3-.1.1.4.3.2.4-.2.9.1.3.4.5.6v.7l.3.5.2.3.2.2.8.2.6.4.5.4.7.5.5.5.2.2 1.6-1.2.3-.7h.1l-.4.7-.7 1.2.7-1.2-1.6 1.3-1.2.8-1.9 1-.7-.7-.9-.2h-.9l-1 .9.9-.2h.8l-.1.5.3.3-.1.3-.6-.1-.2.4-.2.5-.1.2v-.1l-.5.2-.2.4-.2.8v1.1l.4-1 .4-.4.6-.4h.7l.3 1.4.2.6.9 1.1-.3-1.2.1-1.1.6-.2.1-.9 1.1-.3.9-.3.3.2.1.4 1.2-.9.5-.3.4.3.7-.4.4.1.3.9.4.5.4.5.6.4.8.4.7.4.6.4.4.2h.3l-.4.2h-1l-2.2-.4-.5.1-.8.6v.7l.3 1 .4.8.2.7.1.3.2.6-.3.4-1.9-.3v-.8l-.5-.2-.4.1-.7-.1-.7.1-.8.8.6-.1h1.4l.1.6-.1.4-.8-.2-.3.5-.3.2h-.1l-.7.3-.4.9-.3 1.1.6-1 .5-.1.6-.1.1.4.9-.3v.7l.6.4.5-.3.2-.3.1-.4 2.5.1 1.3-.1.5-.6v-.6l-.3-1.5-.2-.7.2-.4.5-.3.4.1.5.2.6.2.3-.3.1-.4.2-.3.3-.3.4-.3v-.8.9l-.4.2-.3.3-.2.3-.1.4-.3.4-.1.6.1.4.1.4.2.7.3.4.3.4.4.2h.4l.2-.1.1.3.7-.2h.3l.3.1.2.2.2.3v.8l-.1.4-.5.1-.5-.1-.3-.2-.5.4h-.6l-.6.5-.5 1.2.6-.6 1-.2.5.3-.5.4v.4l-.1.5-.2.4-.2.5.1.7.2.5.2-.9.3-.6.4-.1.1-.2.5-.1.3.1.1.4.4.2.4 1 .4.6.6.3-.4-.7-.2-.9.6-.5.1-.4-.3-.5-.4-.6.3-.3.2-.5.1-.6.2-.3.3-.1.3-.1.2-.5v-.8l.2-.5.2-.8-.8-.4-1-.7-.7-1-.2-1.1.3-.8.3-.5.7-.2.9-.1 1.1-.5.8-.4.4-.6.2-1v-1.2l-.2-1.3-.3-1.2-.4-1.2-.3-1.1-.2-1.2.1-1.5.4-1.6.7-1.1.6-.8 1-1.1-.4-.2z"/><path class="st11" d="M152.5 123.5l-.9-.3h-.6l-1 .5.7.1.6.1.6.3.5-.3zm6 23.7l-.6-.3.1 1.1.8.8-.3-1z"/><path class="st6" d="M160.4 167.8h.3"/><path class="st18" d="M163 172.7v-.7c0-.1.1-.1.1-.1h2.7c.1 0 .1.1.1.1v.8h-.6v-.3h-1.8v.3h-.5v-.1z"/><path class="st18" d="M163 172.7v.8c0 .1.1.1.1.1h2.7c.1 0 .1-.1.1-.1v-.8h-.6v.3h-1.8v-.3h-.5z"/><path class="st6" d="M165.9 173.5V172c0-.1-.1-.1-.1-.1m0-.1h-2.7c-.1 0-.1.1-.1.1m0 .1v1.6m0-.1c0 .1.1.1.1.1h2.7c.1 0 .1-.1.1-.1m-.6-.5v-.5h-1.8v.5h1.8zm-4.8-5.2h-.3"/><path class="st18" d="M154.9 172.7v-.7c0-.1.1-.1.1-.1h2.7c.1 0 .1.1.1.1v.8h-.6v-.3h-1.8v.3h-.5v-.1z"/><path class="st18" d="M154.9 172.7v.8c0 .1.1.1.1.1h2.7c.1 0 .1-.1.1-.1v-.8h-.6v.3h-1.8v-.3h-.5z"/><path class="st6" d="M154.9 173.5V172c0-.1.1-.1.1-.1m0-.1h2.7m.1 0c.1 0 .1.1.1.1m0 .1v1.6m0-.1c0 .1-.1.1-.1.1H155c-.1 0-.1-.1-.1-.1m.6-.5v-.5h1.8v.5h-1.8z"/><path class="st18" d="M159.4 178.8v-1.1c0-.1.1-.1.1-.1h1.8c.1 0 .1.1.1.1v1.1h-.7v-.7h-.6v.7h-.7zm.1-1.2h1.8zm-.1 1.2v1.1c0 .1 0 .1.1.1h1.8c.1 0 .1 0 .1-.1v-1.1h-.7v.7h-.6v-.7h-.7z"/><path class="st6" d="M160.7 178.1h-.6v1.5h.6v-1.5zm-1.2-.5c-.1 0-.1.1-.1.1v2.3c0 .1 0 .1.1.1h1.8c.1 0 .1 0 .1-.1m.1 0v-2.3c0-.1 0-.1-.1-.1m-.1 0h-1.8 1.8-1.8z"/><path class="st18" d="M159.4 167.1V166c0-.1 0-.1.1-.1h1.8c.1 0 .1 0 .1.1v1.1h-.8v-.7h-.6v.7h-.6zm0 0v1.1c0 .1.1.1.1.1h1.8c.1 0 .1-.1.1-.1v-1.1h-.8v.7h-.6v-.7h-.6z"/><path class="st6" d="M160.1 167.8v-1.5h.6v1.5h-.6zm1.3.5h-1.8m-.1 0c-.1 0-.1-.1-.1-.1V166c0-.1 0-.1.1-.1h1.8m.1 0c.1 0 .1 0 .1.1v2.3m0-.1c0 .1-.1.1-.1.1"/><path class="st18" d="M169.5 168.2v-1.1c0-.1.1-.1.1-.1h1.9c.1 0 .1.1.1.1v1.1h-.8v-.7h-.6v.7h-.7zm0 0v1.1c0 .1.1.1.1.1h1.9c.1 0 .1-.1.1-.1v-1.1h-.8v.7h-.6v-.7h-.7z"/><path class="st6" d="M169.6 169.5h1.9c.1 0 .1-.1.1-.1v-2.3c0-.1-.1-.1-.1-.1h-1.9c-.1 0-.1.1-.1.1v2.3c0 .1.1.1.1.1m.6-.5h.6v-1.5h-.6v1.5z"/><path class="st18" d="M169.5 176v-1.1c0-.1.1-.1.1-.1h1.9c.1 0 .1.1.1.1v1.1h-.8v-.7h-.6v.7h-.7zm0 0v1.1c0 .1.1.1.1.1h1.9c.1 0 .1-.1.1-.1V176h-.8v.7h-.6v-.7h-.7z"/><path class="st6" d="M169.6 177.3h1.9c.1 0 .1-.1.1-.1v-2.3c0-.1-.1-.1-.1-.1h-1.9c-.1 0-.1.1-.1.1v2.3c0 .1.1.1.1.1m.6-.5h.6v-1.5h-.6v1.5z"/><path class="st18" d="M164.1 184.4v-.2l2.3-1.2h.2l.9 1.3h-1.1l.3-.2-.3-.4-1.2.6h-1.1v.1z"/><path class="st18" d="M164.1 184.4l1 1.3c0 .1.1.1.2 0l2.3-1.2s.1-.1 0-.2h-1.1l-1.2.6-.3-.4.3-.2h-1.2v.1z"/><path class="st6" d="M164.1 184.3l1 1.3m-.1.1c0 .1.1.1.2 0l2.3-1.2m0 .1s.1-.1 0-.2m.1 0l-1-1.3c0-.1-.1-.1-.2 0m0-.1l-2.3 1.2s-.1.1 0 .1m.8.2l.3.4 1.5-.8-.3-.4-1.5.8z"/><path class="st18" d="M163 172.7v-.7c0-.1.1-.1.1-.1h2.7c.1 0 .1.1.1.1v.8h-.6v-.3h-1.8v.3h-.5v-.1z"/><path class="st18" d="M163 172.7v.8c0 .1.1.1.1.1h2.7c.1 0 .1-.1.1-.1v-.8h-.6v.3h-1.8v-.3h-.5z"/><path class="st6" d="M165.9 173.5V172c0-.1-.1-.1-.1-.1m0-.1h-2.7c-.1 0-.1.1-.1.1m0 .1v1.6m0-.1c0 .1.1.1.1.1h2.7c.1 0 .1-.1.1-.1m-.6-.5v-.5h-1.8v.5h1.8z"/><path class="st18" d="M164 168.3l1.6-1.4c.1-.1.1-.1.2 0l1.4 1.1c.1 0 .1.1 0 .2l-.3.2h-1l.4-.4-.5-.4-.8.7h-1z"/><path class="st18" d="M164 168.3l-.2.2v.2l1.4 1.1h.2l1.6-1.4h-1l-.8.7-.5-.4.4-.4H164z"/><path class="st6" d="M166.3 168l-.5-.4-1.2 1.1.5.4 1.2-1.1zm.8-.1l-1.4-1.1m.1.1c-.1-.1-.1 0-.2 0l-1.9 1.6v.2l1.4 1.1m0-.1h.2l1.9-1.6m-.1 0c.1-.1 0-.1 0-.2"/><path class="st18" d="M163.7 176.9l-.3-.2v-.1l1.4-1.1h.2l1.6 1.4h-1l-.8-.7-.5.4.4.4h-1v-.1z"/><path class="st18" d="M163.7 176.9l1.6 1.4h.2l1.4-1.1c.1 0 .1-.1 0-.2l-.2-.2h-1l.4.4-.5.4-.8-.7h-1.1z"/><path class="st6" d="M166.8 177.3l-1.4 1.1m.1-.1h-.2l-1.9-1.6v-.1m0-.1l1.4-1.1m0 .1h.2l1.8 1.6c.1.1.1.1 0 .2m-.8 0l-.5.4-1.2-1.1.5-.4 1.2 1.1z"/><path class="st18" d="M163.8 163.7v-.7c0-.1.1-.1.1-.1h2.7c.1 0 .1 0 .1.1v.8h-.6v-.3h-1.8v.3h-.5v-.1z"/><path class="st18" d="M163.8 163.7v.8c0 .1.1.1.1.1h2.7c.1 0 .1 0 .1-.1v-.8h-.6v.3h-1.8v-.3h-.5z"/><path class="st6" d="M166.8 164.5V163c0-.1-.1-.1-.1-.1H164m-.1 0c-.1 0-.1 0-.1.1v1.6m0-.1c0 .1.1.1.1.1h2.7m.1 0c.1 0 .1 0 .1-.1m-.6-.5v-.5h-1.8v.5h1.8z"/><path class="st18" d="M149.2 168.2v-1.1c0-.1 0-.1.1-.1h1.9c.1 0 .1.1.1.1v1.1h-.7v-.7h-.6v.7h-.8zm0 0v1.1c0 .1 0 .1.1.1h1.9c.1 0 .1-.1.1-.1v-1.1h-.7v.7h-.6v-.7h-.8z"/><path class="st6" d="M151.3 169.5h-1.9c-.1 0-.1-.1-.1-.1m-.1 0v-2.3c0-.1 0-.1.1-.1m.1 0h1.9c.1 0 .1.1.1.1v2.3c0 .1 0 .1-.1.1m-.7-.5h-.6v-1.5h.6v1.5z"/><path class="st18" d="M149.2 176v-1.1c0-.1 0-.1.1-.1h1.9c.1 0 .1.1.1.1v1.1h-.7v-.7h-.6v.7h-.8zm0 0v1.1c0 .1 0 .1.1.1h1.9c.1 0 .1-.1.1-.1V176h-.7v.7h-.6v-.7h-.8z"/><path class="st6" d="M151.3 177.3h-1.9c-.1 0-.1-.1-.1-.1m-.1 0v-2.3c0-.1 0-.1.1-.1m.1 0h1.9c.1 0 .1.1.1.1v2.3c0 .1 0 .1-.1.1m-.7-.5h-.6v-1.5h.6v1.5z"/><path class="st18" d="M153.3 184.4l.9-1.3c0-.1.1-.1.2 0l2.3 1.2c.1 0 .1.1 0 .1h-1.1l-1.2-.6-.3.4.3.2h-1.1z"/><path class="st18" d="M153.3 184.4c-.1.1 0 .2 0 .2l2.3 1.2h.2l1-1.3h-1.1l.3.2-.3.4-1.2-.6h-1.2v-.1z"/><path class="st6" d="M156.8 184.3l-1 1.3m0 .1c0 .1-.1.1-.2 0l-2.3-1.2m0 .1c-.1 0-.1-.1 0-.2l1-1.3c0-.1.1-.1.2 0m-.1-.1l2.3 1.2m.1 0c.1 0 .1.1 0 .1m-.8.2l-.3.4-1.5-.8.3-.4 1.5.8z"/><path class="st18" d="M154.9 172.7v-.7c0-.1.1-.1.1-.1h2.7c.1 0 .1.1.1.1v.8h-.6v-.3h-1.8v.3h-.5v-.1z"/><path class="st18" d="M154.9 172.7v.8c0 .1.1.1.1.1h2.7c.1 0 .1-.1.1-.1v-.8h-.6v.3h-1.8v-.3h-.5z"/><path class="st6" d="M154.9 173.5V172c0-.1.1-.1.1-.1m0-.1h2.7m.1 0c.1 0 .1.1.1.1m0 .1v1.6m0-.1c0 .1-.1.1-.1.1H155c-.1 0-.1-.1-.1-.1m.6-.5v-.5h1.8v.5h-1.8z"/><path class="st18" d="M154 168.3l-.3-.2v-.2l1.4-1.1c0-.1.1 0 .2 0l1.6 1.4h-1.1l-.8-.7-.5.4.4.4h-.9z"/><path class="st18" d="M154 168.3l1.6 1.4c0 .1.1.1.2 0l1.4-1.1v-.2l-.2-.2h-1.1l.4.4-.5.4-.8-.7h-1z"/><path class="st6" d="M154.6 168l.5-.4 1.2 1.1-.5.4-1.2-1.1zm-.9-.1l1.4-1.1m0 .1c0-.1.1 0 .2 0l1.9 1.6v.2m-.1 0l-1.4 1.1m.1-.1h-.2l-1.9-1.6v-.2"/><path class="st18" d="M154.2 176.9l1.6-1.4h.2l1.4 1.1c.1 0 .1.1 0 .1l-.3.2h-1l.4-.4-.5-.4-.8.7h-1v.1z"/><path class="st18" d="M154.2 176.9l-.2.2v.2l1.4 1.1h.2l1.6-1.4h-1l-.8.7-.5-.4.4-.4h-1.1z"/><path class="st6" d="M154 177.3l1.4 1.1m0-.1h.2l1.9-1.6m-.1 0v-.1m0-.1l-1.4-1.1m0 .1h-.2m.1 0l-1.9 1.6v.2m.9 0l.5.4 1.2-1.1-.5-.4-1.2 1.1z"/><path class="st18" d="M154.1 163.7v-.7c0-.1 0-.1.1-.1h2.7c.1 0 .1 0 .1.1v.8h-.6v-.3h-1.8v.3h-.5v-.1z"/><path class="st18" d="M154.1 163.7v.8c0 .1 0 .1.1.1h2.7c.1 0 .1 0 .1-.1v-.8h-.6v.3h-1.8v-.3h-.5z"/><path class="st6" d="M154.1 164.5V163c0-.1 0-.1.1-.1h2.7c.1 0 .1 0 .1.1v1.6m0-.1c0 .1 0 .1-.1.1h-2.7c-.1 0-.1 0-.1-.1m.6-.5v-.5h1.8v.5h-1.8z"/><path class="st18" d="M156.2 163.7v-.1c0-.1.1-.1.1-.1h2.8c.1-.5.7-.9 1.3-.9s1.2.4 1.3.9h2.9l.1.1v.1H161c0-.3-.3-.5-.6-.5s-.6.3-.6.5h-3.6zm0 0v.2c0 .1 0 .1.1.1h2.8c.1.4.6.7 1 .8v1.7l.1.1h.3c.1 0 .1-.1.1-.1v-1.7c.5-.1.9-.5 1-.8h2.9l.1-.1v-.2H161c0 .3-.3.5-.6.5s-.6-.2-.6-.5h-3.6z"/><path class="st6" d="M160.8 162.6c.6 0 1.1.4 1.2.8h2.6s.1 0 .1.1v.3l-.1.1H162c-.1.3-.5.6-.9.8m-.1 0v1.6m0-.1s0 .1-.1.1h-.3c-.1 0-.1-.1-.1-.1v-1.6m0 .1c-.4-.1-.8-.4-.9-.8m-.1 0h-2.6c-.1 0-.1 0-.1-.1v-.3c0-.1.1-.1.1-.1h2.6c.1-.5.6-.8 1.2-.8m.1.5c.3 0 .6.2.6.5s-.3.5-.6.5-.6-.2-.6-.5c0-.2.3-.5.6-.5"/><path class="st18" d="M160.6 167.5c.1 0 .1.1.1.1v4c.2.1.3.1.4.1l3.5-3.1c.1-.1.2-.1.3-.1l.3.2s0 .2-.1.2l-3.6 3.1c.1.1.2.2.2.4h2.1l.1.1v.3c0 .1-.1.1-.1.1h-2.1c0 .1 0 .2-.1.4l3.2 2.8c.1.1.1.2.1.2l-.3.2s-.2 0-.3-.1l-3.1-2.8c-.2.1-.4.2-.5.2v4.3l-.1.2h-.3l-.1-.2v-4.3c-.1 0-.3-.1-.5-.2l-3.1 2.8c-.1.1-.2.1-.3.1l-.3-.2s0-.2.1-.2l3.2-2.8c-.1-.1-.1-.2-.1-.4h-2.1l-.1-.1v-.3c0-.1 0-.1.1-.1h2.1c0-.2.1-.3.2-.4l-3.6-3.1c-.1-.1-.1-.2-.1-.2l.3-.2s.2 0 .3.1l3.5 3.1c.1-.1.2-.1.4-.1v-4c0-.1 0-.1.1-.1h.3zm5.2-3.8v-.1c0-.1.1-.1.1-.1h3.3c.2-.5.7-.9 1.4-.9.8 0 1.4.5 1.4 1.2h-.7c0-.3-.3-.5-.7-.5s-.6.3-.6.5h-4.2v-.1z"/><path class="st18" d="M165.8 163.7v.2c0 .1.1.1.1.1h3.3c.1.1.1.3.2.4l-3.8 3.3c-.1.1-.1.1 0 .2l.3.2c0 .1.2 0 .2-.1l3.8-3.4c.1.1.2.1.3.1v2.9c0 .1.1.1.1.1h.4c.1 0 .1-.1.1-.1v-2.8c.6-.1 1.1-.6 1.1-1.1h-.7c0 .3-.3.5-.7.5s-.6-.2-.6-.5h-4.1z"/><path class="st6" d="M170 164.1c.3 0 .6-.2.6-.5s-.3-.5-.6-.5-.6.2-.6.5.2.5.6.5m.3.6c.6-.1 1-.5 1-1 0-.6-.6-1-1.3-1-.6 0-1.1.4-1.3.8m0-.1h-3m.1 0s-.1 0-.1.1v.3l.1.1h3c.1.1.1.3.2.3l-3.5 3m0 .1c-.1 0-.1.1 0 .1l.3.2h.2l3.4-3.1c.1 0 .2.1.3.1v2.6l.1.1h.4c.1 0 .1 0 .1-.1v-2.6"/><path class="st18" d="M165 172.7v-.2c0-.1 0-.1.1-.1h4.1c.1-.4.5-.7 1-.8v-2.9c0-.1 0-.1.1-.1h.4c.1 0 .1.1.1.1v2.9c.6.1 1.1.6 1.1 1.1h-.7c0-.3-.3-.5-.7-.5s-.6.2-.6.5H165zm0 0v.2c0 .1 0 .1.1.1h4.2c.1.4.5.7 1 .8v1.7l.1.1h.4c.1 0 .1 0 .1-.1v-1.7c.6-.2 1.1-.6 1.1-1.1h-.7c0 .3-.3.5-.7.5s-.6-.2-.6-.5h-5z"/><path class="st6" d="M170.5 173.3c.4 0 .7-.2.7-.5s-.3-.5-.7-.5-.6.3-.6.5c0 .3.3.5.6.5m.4-1.7c.6.1 1.1.6 1.1 1.1s-.5.9-1.1 1.1v1.7l-.1.1m-.1 0h-.4m.1 0c-.1 0-.1 0-.1-.1m-.1 0v-1.7c-.5-.1-.9-.4-1-.8H165m.1 0c-.1 0-.1 0-.1-.1v-.4m0 .1c0-.1 0-.1.1-.1h4.1c.1-.4.5-.7 1-.8v-2.9c0-.1 0-.1.1-.1h.4m.1 0c.1 0 .1.1.1.1v2.9"/><path class="st18" d="M168.1 180.9c0-.3.1-.5.3-.7l-3.1-2.7s-.1-.1 0-.2l.3-.2.2.1 3.2 2.8c.2-.1.4-.1.6-.1h.2c.4-.9.4-2.1.5-3.2 0-.1 0-.1.1-.1h.4c.1 0 .1.1.1.1 0 1.2 0 2.4-.5 3.4.3.2.6.5.6 1h-.7c0-.3-.3-.5-.7-.5s-.6.3-.6.5h-.9v-.2z"/><path class="st18" d="M168.1 180.9c0 .3.2.6.4.9-.6.7-1.8 1.8-2.4 2.1v.1l.2.3.1.1c1-.5 2.2-1.7 2.7-2.3 1 .1 1.7-.6 1.7-1.1h-.7c0 .3-.3.5-.7.5s-.6-.2-.6-.5h-.7v-.1z"/><path class="st6" d="M169.5 181.5c.4 0 .7-.2.7-.5s-.3-.5-.7-.5-.6.3-.6.5.3.5.6.5m1.4-.6c0-.5-.3-.7-.6-1 .6-1 .5-2.2.5-3.4 0 0 0-.1-.1-.1m.1.1h-.4m-.1 0c-.1 0-.1.1-.1.1 0 1.1 0 2.3-.5 3.2h-.2c-.1 0-.4.1-.6.1m.1 0l-3.2-2.8-.2-.1m0 .1l-.3.2v.2m.1 0l3.1 2.7m-.1 0c-.2.2-.3.4-.3.7s.2.6.4.9c-.6.7-1.8 1.8-2.4 2.1v.1m.1 0l.2.3.1.1c1-.5 2.2-1.7 2.7-2.3 1 .1 1.7-.6 1.7-1.1"/><path class="st18" d="M148.9 163.7c0-.6.6-1.2 1.4-1.2.6 0 1.2.4 1.4.9h3.3s.1 0 .1.1v.1H151c0-.3-.3-.5-.7-.5-.3 0-.6.3-.6.5h-.8v.1zm0 0c0 .5.5 1 1.1 1.1v2.8c0 .1 0 .1.1.1h.4c.1 0 .1-.1.1-.1v-2.9c.1 0 .3-.1.3-.1l3.8 3.4c.1.1.2.1.2.1l.3-.2v-.2l-3.8-3.3c.1-.1.2-.2.2-.4h3.3s.1 0 .1-.1v-.2h-4c0 .3-.3.5-.7.5-.3 0-.6-.2-.6-.5h-.8z"/><path class="st6" d="M150.3 164.3c-.3 0-.6-.2-.6-.5s.3-.5.6-.5c.4 0 .7.3.7.5 0 .3-.3.5-.7.5m-.3.6c-.6-.1-1.1-.6-1.1-1.1 0-.6.6-1.2 1.4-1.2.6 0 1.2.4 1.4.9h3.3s.1 0 .1.1v.3c0 .1-.1.1-.1.1h-3.3m-.1 0c0 .1-.1.3-.2.4l3.8 3.3c.1.1.1.1 0 .2m.1 0l-.3.2c-.1.1-.2 0-.2-.1m-.1.1l-3.8-3.4m.1 0c-.1.1-.2.1-.3.1m-.1 0v2.9c0 .1 0 .1-.1.1h-.4c-.1 0-.1-.1-.1-.1v-2.8"/><path class="st18" d="M148.9 172.7c0-.5.5-1 1.1-1.1v-2.9s0-.1.1-.1h.4c.1 0 .1.1.1.1v2.9c.5.1.9.4 1 .8h4.1c.1 0 .1 0 .1.1v.2H151c0-.3-.3-.5-.7-.5-.3 0-.6.2-.6.5h-.8zm0 0c0 .5.5.9 1.1 1.1v1.7s0 .1.1.1h.4c.1 0 .1 0 .1-.1v-1.7c.5-.1.9-.4 1-.8h4.1c.1 0 .1 0 .1-.1v-.2H151c0 .3-.3.5-.7.5-.3 0-.6-.2-.6-.5h-.8z"/><path class="st6" d="M150.3 173.3c-.3 0-.6-.2-.6-.5s.3-.5.6-.5c.4 0 .7.3.7.5 0 .3-.3.5-.7.5m-.3-1.7c-.6.1-1.1.6-1.1 1.1s.5.9 1.1 1.1v1.7s0 .1.1.1h.4c.1 0 .1 0 .1-.1v-1.7c.5-.1.9-.4 1-.8h4.1m.1 0c.1 0 .1 0 .1-.1v-.4m0 .1c0-.1 0-.1-.1-.1h-4.1m-.1 0c-.1-.4-.5-.7-1-.8m.1 0v-2.9m-.1 0c0-.1 0-.1-.1-.1h-.4c-.1 0-.1.1-.1.1v2.9"/><path class="st18" d="M149.9 180.9c0-.5.3-.7.6-1-.6-1-.5-2.2-.5-3.4 0 0 0-.1.1-.1h.4c.1 0 .1.1.1.1 0 1.1 0 2.3.5 3.2h.2c.1 0 .4.1.6.1l3.1-2.8.2-.1.3.2v.2l-3.1 2.7c.2.2.3.4.3.7h-.7c0-.3-.3-.5-.7-.5-.3 0-.6.3-.6.5h-.8v.2z"/><path class="st18" d="M149.9 180.9c0 .5.7 1.2 1.7 1.1.5.6 1.8 1.8 2.7 2.3 0 0 .1 0 .1-.1l.2-.3v-.1c-.6-.3-1.9-1.4-2.4-2.1.3-.2.4-.6.4-.9h-.6c0 .3-.3.5-.7.5-.3 0-.6-.2-.6-.5h-.8v.1z"/><path class="st6" d="M151.3 181.5c-.3 0-.6-.2-.6-.5s.3-.5.6-.5c.4 0 .7.3.7.5s-.3.5-.7.5m-1.4-.6c0-.5.3-.7.6-1-.6-1-.5-2.2-.5-3.4 0 0 0-.1.1-.1m0 .1h.4c.1 0 .1.1.1.1 0 1.1 0 2.3.5 3.2h.2c.1 0 .4.1.6.1l3.1-2.8.2-.1m.1.1l.3.2v.2m-.1 0l-3.1 2.7c.2.2.3.4.3.7s-.2.6-.4.9c.6.7 1.8 1.8 2.4 2.1v.1l-.2.3-.1.1c-1-.5-2.2-1.7-2.7-2.3-1 .1-1.7-.6-1.7-1.1"/><path class="st18" d="M157.8 185.7c-.8-.2-1.6-.4-2.4-.8-.1 0-.1-.1-.1-.1l.2-.3s.1-.1.2 0c1.2.5 2.1.8 3.3.9.1-.4.6-.7 1.1-.8v-5.1l.1-.2h.3l.1.2v5.1c.5.1.9.4 1.1.8 1.2-.1 2.1-.4 3.3-.9h.2l.2.3v.1c-.8.4-1.6.7-2.4.8h-2c0-.3-.3-.5-.7-.5-.3 0-.6.3-.6.5h-1.9zm0 0c.4.1.9.2 1.3.2.1.5.7 1 1.4 1s1.3-.4 1.4-1c.4 0 .9-.1 1.3-.2h-2c0 .3-.3.5-.7.5-.3 0-.6-.2-.6-.5h-2.1z"/><path class="st6" d="M160.4 186.2c.4 0 .7-.2.7-.5s-.3-.5-.7-.5c-.3 0-.6.3-.6.5 0 .3.3.5.6.5m.3-6.7v5.1c.5.1.9.4 1.1.8 1.2-.1 2.1-.4 3.3-.9h.2m0-.1l.2.3v.1c-1.2.6-2.4.9-3.6 1-.1.5-.7 1-1.4 1s-1.3-.4-1.4-1c-1.2-.1-2.5-.4-3.6-1-.1 0-.1-.1-.1-.1m-.1 0l.2-.3m.1 0s.1-.1.2 0c1.2.5 2.1.8 3.3.9.1-.4.6-.7 1.1-.8m-.1.1v-5.1l.1-.2h.3m.1 0l.1.2"/><path class="st18" d="M160.8 173c.7 0 1.4-.5 1.4-1.1s-.6-1.1-1.4-1.1c-.7 0-1.4.5-1.4 1.1s.7 1.1 1.4 1.1z"/><path d="M131.4 143.5h-2.9v-9.6h1.7v-4.2h-2.4v-2.4h1.2v-2.5h-.8v.8h-1.1v-.8h-.8v.8h-1.1v-.8h-.8v2.5h1.2v2.4h-3v-6.3h1.2v-2.5h-.8v.8h-1.2v-.8h-.8v.8h-1.1v-.8h-.8v2.5h1.2v6.3h-3v-2.4h1.2v-2.5h-.8v.8h-1.1v-.8h-.9v.8h-1.1v-.8h-.8v2.5h1.2v2.4h-2.4v4.2h1.7v9.6h-3v4.7h20.2l-.1-4.7zm-13.2-3.5h-2.9v-3.3c0-1.2 2.9-1.2 2.9 0v3.3zm9.2.1h-2.8v-3.2c0-1.2 2.8-1.2 2.8 0v3.2z" fill="#cfcfcf"/><ellipse class="st11" cx="142.7" cy="155.8" rx="13.6" ry="16.7"/><ellipse cx="142.7" cy="155.8" rx="11.3" ry="13.9" fill-rule="evenodd" clip-rule="evenodd" fill="#25529f"/><path class="st18" d="M137.5 148.4s-3.1 2.7 0 6.5c3.1-3.8 0-6.5 0-6.5z"/><path class="st18" d="M141.1 150.7s-3.7-.8-3.7 4.6c4.4 0 3.7-4.6 3.7-4.6z"/><path class="st18" d="M133.8 150.7s-.7 4.6 3.7 4.6c-.1-5.5-3.7-4.6-3.7-4.6zm14.4-2.3s-3.1 2.7 0 6.5c3-3.8 0-6.5 0-6.5z"/><path class="st18" d="M151.8 150.7s-3.7-.8-3.7 4.6c4.3 0 3.7-4.6 3.7-4.6zm-7.4 0s-.7 4.6 3.7 4.6c0-5.5-3.7-4.6-3.7-4.6zm-1.5 6.7s-3.1 2.7 0 6.5c3.1-3.9 0-6.5 0-6.5z"/><path class="st18" d="M146.5 159.6s-3.7-.8-3.7 4.6c4.4 0 3.7-4.6 3.7-4.6z"/><path class="st18" d="M139.2 159.6s-.7 4.6 3.7 4.6c-.1-5.4-3.7-4.6-3.7-4.6z"/><path class="st7" d="M181.6 107.9l-77.8-1.2v8l77.8 1.1z"/><path class="st4" d="M182.8 117l-80.2-1.2v-10.4l80.2 1.2V117zm-77.8-3.5l75.3 1.1V109l-75.3-1.1v5.6z"/></g></switch></svg>