<svg xmlns="http://www.w3.org/2000/svg" viewBox="0 0 285.8 285.8"><style>.st1{fill:#fff}</style><path d="M18 187.1c18.2 51.4 67.3 88.3 124.9 88.3 57.5 0 106.6-36.9 124.9-88.3H18z" fill="#147b4d"/><path class="st1" d="M18 98.7c-4.9 13.8-7.6 28.7-7.6 44.2s2.7 30.4 7.6 44.2h249.7c4.9-13.8 7.6-28.7 7.6-44.2s-2.7-30.4-7.6-44.2H18z"/><path d="M18 98.7h249.7c-18.2-51.4-67.3-88.3-124.9-88.3C85.3 10.4 36.3 47.3 18 98.7z" fill="#010101"/><path d="M10.4 142.9c0 35.5 14.1 67.9 37 91.7l168.1-91L46.6 52.1c-22.4 23.7-36.2 55.7-36.2 90.8z" fill="#ab2617"/><circle cx="142.9" cy="144.2" r="132.5" fill="none"/><path class="st1" d="M60.2 160.2l8.4-9.7 8.4 9.7-8.4-36.2z"/><path class="st1" d="M54.4 130.7l7.5 10.4-11.4 6 37.2.1z"/><path class="st1" d="M83.8 130.7l-7.5 10.4 11.4 6-37.2.1z"/></svg>