<svg xmlns="http://www.w3.org/2000/svg" xmlns:xlink="http://www.w3.org/1999/xlink" viewBox="0 0 285.8 285.8"><style>.st1{fill:#fff}</style><switch><g><defs><circle id="b" cx="141.6" cy="142.9" r="132.5"/></defs><clipPath id="a"><use xlink:href="#b"/></clipPath><path clip-path="url(#a)" fill="#147b4d" d="M-.9 1.4h285.4v285.4H-.9z"/><circle class="st1" cx="199.9" cy="193.2" r="1.7"/><path class="st1" d="M209.3 181.9h-16.9c.9-1.5 1.2-3.2 1.1-4.5-.1-1.2-1-2.1-2.2-2.1-1.1 0-2.1 1-2.1 2.1 0 1 .8 1.9 1.8 2-.4 1.3-1.2 2.3-2.3 2.5H75.5c1.2 3.5 4.8 5.8 12.7 5.8h101.4c-1.3 1.8-1.6 3-1.4 4.6.1 1.3 1.1 2.1 2.3 2 1.1 0 2.1-1 2.1-2.1 0-1-.8-1.9-1.8-2 .4-1.5 1.5-2.5 2.7-2.5h11.7c.9 0 2.4-.1 3.7.8s1.9 2.7.5 3.6-1 1.8-.5 2.2 1.9.1 3.2-.5c1.3-.5 3.7-3 3.7-6.2-.1-2.7-2.7-5.7-6.5-5.7z"/><path class="st1" d="M208.6 193.8h-16.8c-.1 0-.2-.1-.2-.2v-.5c0-.1.1-.2.2-.2h16.8c.1 0 .2.1.2.2v.5c.1.1 0 .2-.2.2zm-.1-91.9c0 .2.2.3.4.2 1-.3 1.3-.3 2.5 0s-1.7 1.5-3.4 2.2c-.1 0-.1.2 0 .2l1.3.2h.2c.6-.1 3.1-.9 4.7-3.7.2-.3.1-.6-.2-.8-1-.8-2.5-1.1-3.2-1.1-.8 0-1 0-1.5.5-.6.7-.9 1.6-.8 2.3zm-35.5.1c0 .2.2.3.4.2 1-.3 1.3-.3 2.5 0s-1.7 1.5-3.4 2.2c-.1 0-.1.2 0 .2l1.3.2h.2c.6-.1 3.1-.9 4.7-3.7.2-.3.1-.6-.2-.8-1-.8-2.5-1.1-3.2-1.1-.8 0-1 0-1.5.5-.6.8-.8 1.6-.8 2.3zm-13 0c0 .2.2.3.4.2 1-.3 1.3-.3 2.5 0s-1.7 1.5-3.4 2.2c-.1 0-.1.2 0 .2l1.3.2h.2c.6-.1 3.1-.9 4.7-3.7.2-.3.1-.6-.2-.8-1-.8-2.5-1.1-3.2-1.1-.8 0-1 0-1.5.5-.6.8-.9 1.6-.8 2.3zm-15 0c0 .2.2.3.4.2 1-.3 1.3-.3 2.5 0s-1.7 1.5-3.4 2.2c-.1 0-.1.2 0 .2l1.3.2h.2c.6-.1 3.1-.9 4.7-3.7.2-.3.1-.6-.2-.8-1-.8-2.5-1.1-3.2-1.1-.8 0-1 0-1.5.5-.7.7-.9 1.5-.8 2.3zm-80.8 28.7c0 .2.2.3.4.2 1-.3 1.3-.3 2.5 0s-1.7 1.5-3.4 2.2c-.1 0-.1.2 0 .2l1.3.2h.2c.6-.1 3.1-.9 4.7-3.7.2-.3.1-.6-.2-.8-1-.8-2.5-1.1-3.2-1.1-.8 0-1 0-1.5.5-.7.7-.9 1.6-.8 2.3zm148.6-12.6c1.8 1.1 2.3 4.7 1.5 8.7 0 .1.1.1.1 0 2.2-3.8 2.2-9-1.6-12.3-.1-.1-.3 0-.3.1v3c.1.3.2.4.3.5zm-19.2 16c1.8 1.1 2.3 4.7 1.5 8.7 0 .1.1.1.1 0 2.2-3.8 2.2-9-1.6-12.3-.1-.1-.3 0-.3.1v3c.1.3.2.4.3.5zm-71.4-30.4c1.8 1.1 2.3 4.7 1.5 8.7 0 .1.1.1.1 0 2.2-3.8 2.2-9-1.6-12.3-.1-.1-.3 0-.3.1v3c.1.2.2.4.3.5zm-43.9.6c1.8 1.1 2.3 4.7 1.5 8.7 0 .1.1.1.1 0 2.2-3.8 2.2-9-1.6-12.3-.1-.1-.3 0-.3.1v3c.1.3.2.4.3.5zM191 124.4c-1.4 1.4-3.3-.8 1.2-7.2.1-.2-.1-.3-.2-.2-5.7 4.6-5.5 10.9-3.3 11.4 1.2.3 2.4-1.8 2.8-3.8-.1-.2-.3-.4-.5-.2zm-75.8 20.9c-1.4 1.4-3.3-.8 1.2-7.2.1-.2-.1-.3-.2-.2-5.7 4.6-5.5 10.9-3.3 11.4 1.2.3 2.4-1.8 2.8-3.8-.1-.2-.3-.3-.5-.2zm-14.4 8.1c-1.4 1.4-3.3-.8 1.2-7.2.1-.2-.1-.3-.2-.2-5.7 4.6-5.5 10.9-3.3 11.4 1.2.3 2.4-1.8 2.8-3.8-.1-.2-.4-.4-.5-.2zm83.1 7.6c-1.4 1.4-3.3-.8 1.2-7.2.1-.2-.1-.3-.2-.2-5.7 4.6-5.5 10.9-3.3 11.4 1.2.3 2.4-1.8 2.8-3.8-.2-.2-.4-.3-.5-.2zm-28.6-21.7c-1.2 1.2-3.3 0 1-5.9.1-.1-.1-.3-.2-.2-4.5 3.8-5 8.9-3 9.3 1.4.3 2-1.4 2.5-3.1.1-.1-.2-.2-.3-.1zm-23.2 23.2c-1.2 1.2-3.3 0 1-5.9.1-.1-.1-.3-.2-.2-4.5 3.8-5 8.9-3 9.3 1.4.3 2-1.4 2.5-3.1 0-.1-.2-.2-.3-.1zm-39.2.3c-1.2 1.2-3.3 0 1-5.9.1-.1-.1-.3-.2-.2-4.5 3.8-5 8.9-3 9.3 1.4.3 2-1.4 2.5-3.1.1-.1-.1-.2-.3-.1zm74.4-36.4c-1.2 1.2-3.3 0 1-5.9.1-.1-.1-.3-.2-.2-4.5 3.8-5 8.9-3 9.3 1.4.3 2-1.4 2.5-3.1.1-.1-.1-.3-.3-.1zm13.1 13.4c-1.4 1.4-3.3-.8 1.2-7.2.1-.2-.1-.3-.2-.2-5.7 4.6-5.5 10.9-3.3 11.4 1.2.3 2.4-1.8 2.8-3.8-.1-.2-.3-.3-.5-.2zm-2.5-18.6c-1.4 1.4-3.3-.8 1.2-7.2.1-.2-.1-.3-.2-.2-5.7 4.6-5.5 10.9-3.3 11.4 1.2.3 2.4-1.8 2.8-3.8-.1-.2-.3-.3-.5-.2zM64.4 100.1c.1-.7.2-1.8 1.2-1.6 1.8.5 4.3 2.1 3.4 4.4-.9.8-2.4-.4-3 .8-.6 1-1.6 1.6-2.3 2.5.3.3.6.6 1 .6 2.5.1 5-1 6.7-3-1 3.1-4.5 4.8-7.4 4.4-1 0-1-1.2-.7-1.9.4-1.4 1.7-2.1 2.5-3.2-1.6.4-1.5-1.5-1-2.5-.2-.1-.3-.3-.4-.5zm1.1.3c-.2.3-.6.8-.3 1.2.4.1.8.1 1.2.1.1-.7-.3-1.2-.9-1.3zm1.4 1.3c.5.1 1 .1 1.5.1-.3-.4-.8-.8-1.3-1-.1.2-.2.5-.2.9zm46.6-2.7c.7-.2 1.1.5 1.5.9 1 1 1.7 2.9.4 4-.6.1-1.1-.2-1.6-.5-1.2 1.7-3 3-4.9 3.7-1.2.4-2.4 1.2-3.7 1.3 2.2-1.3 4.5-2.4 6.6-3.9.6-.3 1.2-.8 1.5-1.4-.3-.1-.7-.2-.9-.4-.3-.8.2-1.7.8-2.2-.2-.5.2-1 .3-1.5zm-.6 2.3c.1.5.7.4 1.1.6.1-.4.2-.7.1-1.1-.4 0-.9.1-1.2.5zm1.7-.1c-.1.3-.1.6-.2.9.3.2.7.5 1.1.4-.2-.5-.5-.9-.9-1.3zm21.1 1.7c.3 1.3 1.1 2.9.1 4.2-.2.2-.6.3-.9.3-.5-.1-.8-.7-.9-1.2.1 1.2-1.5 2.4-2.2 1.1 0-.1-.1-.2-.1-.4-.1-.8.2-1.6-.1-2.4-.1-.2.1-.4.2-.6s.1-.5.3-.7c.6.3.1 2.2.1 2.7.2.8 1.6.6 1.6-.2.2-1.1-.8-2.1.1-2.8.5.6.4 1.4.5 2.2 0 .7.9 1.3 1.4.8-.3-1.8-1.1-1.8-.1-3zm29.7 8.8c.4 1.4 1.3 3.3.1 4.6-.3.2-.7.3-1 .4-.6-.1-.9-.7-1-1.3.1 1.3-1.7 2.6-2.5 1.2-.1-.1-.1-.3-.2-.4-.1-.9.2-1.8-.1-2.7-.1-.2.1-.4.2-.6.2-.2.2-.5.3-.7.7.4.1 2.4.2 3 .3.9 1.8.6 1.9-.3.2-1.2-1-2.4.2-3.1.6.7.5 1.6.6 2.4.1.7 1 1.5 1.6.9-.6-2.2-1.4-2.2-.3-3.4zM138 131.6c.4 1.4 1.3 3.3.1 4.6-.3.2-.7.3-1 .4-.6-.1-.9-.7-1-1.3.1 1.3-1.7 2.6-2.5 1.2-.1-.1-.1-.3-.2-.4-.1-.9.2-1.8-.1-2.7-.1-.2.1-.4.2-.6.2-.2.2-.5.3-.7.7.4.1 2.4.2 3 .3.9 1.8.6 1.9-.3.2-1.2-1-2.4.2-3.1.6.7.5 1.6.6 2.4.1.7 1 1.5 1.6.9-.5-2.2-1.4-2.2-.3-3.4z"/><path class="st1" d="M71.1 127.4c0-1.7.5-3.8 2.2-4.3 1.4 1 1.2 3.1 1.1 4.7 1.2.4 1.6 1.7 1.2 2.9-.6-.2-1.2-.6-1.7-.9-1.6 3.8-5.1 5.9-8.1 8.2-.7.5-1.3 1.3-2.2 1.4 3-3.6 7.1-6 9.8-9.8-.9-.6-2.2-.9-2.3-2.2zm.6-1.2c.5.8 1.4 1 2.2 1.4-.1-.8-.1-1.7-.8-2.2-.6-.3-1.1.3-1.4.8zm73-4.8c0-1.3.4-3.1 1.8-3.4 1.1.8 1 2.5.9 3.8.9.3 1.3 1.3 1 2.3-.5-.1-.9-.5-1.4-.7-1.3 3-4.1 4.7-6.5 6.6-.6.4-1 1-1.8 1.1 2.4-2.9 5.7-4.8 7.9-7.9-.8-.5-1.9-.8-1.9-1.8zm.5-1c.4.6 1.1.8 1.8 1.1-.1-.6-.1-1.4-.6-1.8-.6-.1-1 .4-1.2.7zM79 136.9c.9-.1 1.6.8 1.9 1.5 0 .7-.3 1.5-.6 2.1-.5-.6-1.3-1.9-2.1-.9-1.4 2.6-1 5.7-2.1 8.3-1-1.7-1.1-3.9-2.5-5.5-.2 0-.4.1-.6.1-.6-.5-1.3-.8-2-1.2-.1-.9-.3-2.8 1.2-2.4 2.4.8 2.9 3.7 4 5.6.4-1.8.6-3.7 1.1-5.5.4-.8.8-1.8 1.7-2.1zm74.2 22.5c1-1.1 1.3-3.5 2.8-3.5.9.8 1.2 2.9.4 4-.8.1-1.6-.5-2.3-1.2-1 2.4-2.9 3.6-4.7 4.5-1.6.9-3.3 1.1-5 1.7 2.9-1.9 6.2-2.9 8.8-5.5zm1.6-1.8c.4.3.8.5 1.3.6-.3-.6-.8-1.1-1.3-.6zm27.6-49.4c-.1 0-.2.1-.2.2.5 3.4 6.1 43 6.3 45.5s.3 6.8-.8 9.8c-.1.1-.2.2-.3.2h-.1c-.1 0-.2-.2-.2-.3 0-1.1.1-6.2-.4-8.6-.5-2.7-6.8-49.5-7.3-50.2l-.3-.3.8-4.2c0-.2.2-.3.3-.3s.3.1.3.2l3.3 8-.1 1.4-.9-1.3c0-.1-.1-.1-.2-.1h-.2zm-13.8-8.2l3.3 8.1v1.2l-1.1-1.3c-.1-.1-.2-.1-.3-.1s-.2.1-.2.2l4.4 30.9s.2 3.6-.1 7.5c-.2 2.5-.9 5.4-2.2 7.5-.6 1-1.1 1.6-1.6 2.1-1.1 1.2-2.3 2.4-4.1 3.4-1.9 1.1-4.8 1.8-9.4 2.6-.1 0-.3-.1-.3-.2v-.1c0-.1 0-.2.1-.2 1.2-.5 10.3-4.6 14.8-11.3 1.6-2.7 1.7-3.7 1.6-5-.2-2.9-.5-3.6-.9-7l-4.9-33.3-.5-.4.8-4.6c0-.1.1-.2.2-.2h.1c.2 0 .2.1.3.2z"/><path class="st1" d="M148.9 113.4c0 .1 0 .1.1.2.6.8 5.7 7.4 7.3 9.5 1.7 2.2 7.6 9.4 8.7 10.6 1 1.3 3.4 3.8 4.2 5.3s1.6 2.8 1.9 3.8.4 4.2.3 5.5c0 .1-.1.3-.3.3-.1 0-.3-.1-.3-.3-.1-.9-.9-4.6-3.3-7.4-1.3-1.5-7-8.3-7.8-9.3s-6.4-7.7-7.4-9-6.7-9.7-6.9-10-.4-.7-.5-1c0-.1-.1-.2-.2-.2h-.2l.3-4.5c0-.1.1-.2.3-.2h.1c.1 0 .1 0 .2.1l6 5.8s.1.1.1.2l.1.7-2.2-.3c-.2 0-.3.1-.3.2h-.2zm67.7-13.3l3.3 8.1v1.2l-1.1-1.3c-.1-.1-.2-.1-.3-.1s-.2.1-.2.2l4.4 30.9s.2 3.6-.1 7.5c-.2 2.5-.9 5.4-2.2 7.5-.6 1-1.1 1.6-1.6 2.1-1.1 1.2-2.3 2.4-4.1 3.4-1.9 1.1-4.8 1.8-9.4 2.6-.1 0-.3-.1-.3-.2s0-.2.1-.2c1.2-.5 10.3-4.6 14.8-11.3 1.6-2.7 1.7-3.7 1.6-5-.2-2.9-.5-3.6-.9-7l-4.9-33.3-.5-.4.8-4.6c0-.1.1-.2.2-.2h.1c.2 0 .2 0 .3.1z"/><path class="st1" d="M186.9 100l6 5.8s.1.1.1.2v.2c0 .1-.1.2-.2.2h-2.2v.3s5.2 6.8 6.7 8.7c1.5 1.8 7 8.3 8.4 10s8.4 9.9 9.4 11.1c1.9 2.2 3.5 4.4 4 6.6.3 1.5.2 5.7.2 5.7 0 .2-.3.1-.4-.1 0 0 0-.5-.2-1.5-.1-.7-.3-1.6-.6-2.3-.7-1.6-.9-2.1-2.6-4.1-1.6-1.8-10.2-11.7-11.1-12.7-.9-.9-9.1-11.1-10.4-12.7-2-2.4-6.3-8.8-7.8-11.1l-.3-.3.3-3.9c0-.1.1-.2.2-.2h.1c.3.1.3.1.4.1z"/><path class="st1" d="M204.9 100.1l3.4 8v.2c0 .4-.6.6-.8.3l-.5-.6h-.3l4.4 32s.3 2.2.3 3.1c0 .6.1 1.9 0 3.4-.1 1.9-.5 3.9-.9 4.7v.1l-.2.2-.2.1c-.1 0-.2 0-.2-.1v-.3c0-.3 0-4.5-.1-5.2-.1-.9-5.5-38.5-5.8-40.8 0-.1 0-.1-.1-.2l-.1-.2c-.1-.1-.1-.2-.1-.3l.8-4.5c0-.1.1-.1.1-.1h.1c.1.1.2.1.2.2zm4.7 55.5l-.7 1.7c-.4.1-.8.2-1.1.3l-.6.3-.5.2c-.1.1-.6.5-1.5 1.3l-.3.2-.3.2c0-.2.1-.6.3-1 .2-.3.5-.7.9-1.1l.2-.2h-1.2c-.5-.1-.8-.3-.9-.6-.1-.8 0-1.6.5-2.5.5-1 1.3-1.6 2.4-1.8.2 0 .5 0 .8.2s.5.5.5.7l-.6 1.3-.4-.3c-.2-.1-.4-.2-.6-.2h-.4c-.1 0-.3.1-.3.1-.1 0-.2.1-.3.3-.3.2-.4.4-.3.6 0 .3.5.4 1.3.4l1.4-.1.9-.1.8.1zM197.1 100l3.5 8.2v1.3l-1.2-1.4h-.4s4.6 33 4.7 34.1c0 .7.1 1.9.1 3.2 0 1-.1 2.7-.1 2.7 0 1.8-1.5 6-3.2 7.9s-3.6 1.5-4.3 1.5-3.6-.5-4.9-2.9-2.2-5.5-2.4-6c-.2-.4-.8-1.6-2-1.6s-2.7.5-3.6 1.7c-1 1.1-2.6 4-3.8 7.3-.7 1.8-1.5 5.1-2.7 7.5-.5 1-1.8 3.7-3.5 3.7-1.3 0-2.5-1.3-3.6-3.2-.5-.9-1.6-4.3-1.9-7.6-.3-3.7.2-7.3.3-7.6l.6-.4c0 .1-.5 3.2-.2 6.4s1.9 6.2 2.7 6.8c.7.6 1.6 1.3 2.5.9s1.7-1.7 2-2.3c.6-1.2 4.2-10.6 4.8-11.7 1.8-3.1 3-4.6 4.3-5.2 1.8-.9 3-.9 3.6-.6.5.3 1.4 1 2.5 3.7 1.1 2.8 1.3 3.7 2.1 4.9.4.6 1.4 1.3 2.7 1.6 1.4.3 3.1 0 3.8-.3 1.3-.5 2.2-2.2 2.7-3.2v-1.3c0-.6 0-1.6-.2-2.3s-5.6-40.9-5.6-40.9l-.4-.2.8-4.8c.1 0 .2 0 .3.1zM143 133.9v-1.6c0-.5.1-1 .4-1.4.6-.8 1.7-1.3 2.7-1.3 1.1 0 2.1.3 3 .9.7.4 1.5 1 2.1 1.7.4.4.5 1.1.3 1.7-.5 1.1-1.2 2.3-1.2 2.3-.8.1-4.2 1.9-4.2 1.9s.6 1.5-1.2 2.5c.2-1-.5-2-.5-2-2.9 1.8-4.7 3-7 6.2-.1.1-.1.2-.1.3 0 .2.2.3.4.3 13.4 0 17.8-.5 19-.8.2 0 .3.2.2.3-.5.9-1.8 2.8-2.1 3.2-4.3.3-13.2 4.9-14.4 6.6.4 1.3 2.7 3.4 4.8 3.9v3.8c-5.4-.1-8.3-2.9-10.1-4.8s-3-7.5-3-7.5c0 .7-.1 2.8-1.6 4.9s-4.5 5.5-7.7 7.3-5.3 1.5-6.4.4c-1.1-1.2-1.5-3.4-1.4-5.5.2-3.2 2.4-8.4 2.4-8.4l.3.5c-.1.6-1.7 5-1.6 7.2s.8 3.7 4 2.8c3.2-.8 12.2-8.8 11.6-10.5-.5-1.8-2.5-11-4.5-14.2l.1-5.5c1.1.8 2.8 4.1 3.7 6.8.8 2.6 2.8 12.2 2.8 12.2l.1.7.2-.7.4-2.2c.5-1.3 1.8-3.2 2.6-4.1s3.6-3.5 6.5-5.5c0 0-.3-.6-.6-1.7v-.7zm5.2.1c-.5-.6-2.8-1.5-4-.8.4.8.7 1.1 1 2.2 0-.1 1.8-1 3-1.4zm-9 22.6c.3-3.3.9-4 2.5-5.6 1.3-1.3 3.2-2.1 3.6-2.3.3-.1-.3-.1-.3-.1l-10.7.4c-.1 3.2 3.6 8.4 4.9 7.6z"/><path class="st1" d="M121.1 129.7l4.8 5.3v1.3l-2.1-1.3v1s1.4 3.3 2 4.5c.7 1.9.3 4 .3 4.9-1.1 4-5.2 6.9-9 10.2-3 2.3-5.4 4.4-9.3 6-6.8 1.2-11.6 1.1-12.3 1.1l.5-.5s10.8-3.8 13.8-5.8c4.2-2.6 13.5-9.3 15.6-12.1-2-1.8-4.7-10-4.7-10l-.5-.4.5-4.2h.4zm-3.8.9c-.2 2.5-1.5 5.1-3.4 6.5-.6.2-3.8 1.1-4.8-2.9-.6 1-1.4 4.7-5.3 5.1-3.4.3-4.3-4.3-4.4-5.5 0-.2-.1-.3-.3-.4s-.3-.1-.5 0c-2.4 1.6-6.8 3.5-6.8 3.5v5.8c-.8 4.8-4.3 8.4-10.8 12.1-2.8 1.6-7.2 1.9-9.7-.2-1.5-1.3-2.8-3.2-3.2-6.3-.1-1.7-.1-4.2.3-6.4.4-2.4 1-4.3 1-4.3l.9-.8s-1.8 5.3-1 8.9 3.8 5.5 4.9 5.8 3.1.3 4.7-.1c1.5-.4 7.3-3.1 11.3-9.1.3-.5.5-1.1.4-1.7-.1-1.2-.3-1.6-1.1-3-4.6.1-6.4.7-7.3-1.4-.3-.7-.4-1.5-.4-2.3.2-2.2.9-7.5 3.8-7.4 3.6.1 5.1 5 5.4 6.2 0 .2.2.3.3.3.4 0 .7 0 1.1-.2 2.6-1.5 6.2-3.2 7.1-3.6.1-.1.3-.1.4-.1h.4c.4 0 .7.4.7.8 0 .9 0 2.2.3 3.5 2.6 4.5 7-.9 8.3-5 .5-.4.5 0 .5 0 .4 7 4.5 5.6 5.5 3.6-.3-1.2-1.1-2.3-1.1-2.3l1.6-3.7c0-.1 1.5 1.5 1.2 4.6zm-29.1 2.9c-3.5-5.6-4.8-1.1-4.8-.1l4.8.1z"/><path class="st1" d="M89 99.8l3.3 7.7v1.2c0 .1-.1.1-.1 0l-1.2-.9c-.1-.1-.2 0-.2.1.4 2.9 4.1 29.4 4.4 32.7.3 3.5.1 6.6-.3 8.5-1.8 4.9-3.9 6.9-6.5 9.2-2.7 2.3-5 3.7-8.2 4.9s-9.4 1-12.2-2.7-4.7-9.2-.6-21.6l.6-.5s-2.2 7.7-1.2 13.5c1.2 7.2 8.5 7.4 9.4 7.3 2.2-.2 10.3-.8 18.1-12.2-1.6-11.4-5.4-38.2-5.6-39.8l-.9-3.2c-.1-.2-.1-.5 0-.7l1.1-3.4c-.1-.2.1-.2.1-.1zm65.6.4l3.2 7.6v1.1l-1.3-1.4c-.1-.1-.1-.1-.2-.1-.2 0-.3.2-.3.3.5 3.7 5.1 35.6 5.4 38.1 0 0 .3 3.9.2 5.3-.1 1.1-.7 3.3-.9 4 0 .2-.2.3-.3.3-.2 0-.4-.2-.4-.4 0-1.3.1-5.5-.2-7.5-.4-2.4-6.1-42.5-6.1-42.5l-.5-1.3.8-3.5c0-.2.2-.3.4-.3 0 .1.2.2.2.3zm-16.6-1l3 5v1.2l-1.3-1-.2.3s3 7.5 3.4 9.6c0 0 .2 2.1.1 3.3s-2.2 5.2-4.7 5.8-4.2-.1-5.1-.6c-.8-.5-2.9-3.3-3.2-5.8 0 0-.6 5-3.2 6.8s-5.5 1.7-7.9-1-2-5.8-2-6.3c0-.3.4-3.2.5-4.5.1-.4.6-4.3.6-4.3 0-.1-.2-.3-.8.5 0 0-1.1 2.4-1.4 3.7s-.8 3.6-1 5-.7 4.6-1.3 5.8-2.9 3.3-4.5.1c-1.6-3.1-1.7-7-1.7-8.7s.2-4.2.2-4.2l.4-.6h.1c0 .7-.1 4 .1 5.7.2 1.9 1 3.8 1.4 4.4.6 1.1 2.4 1.1 3.1.1s1.6-5.7 2-7.2 2.4-8.8 4.7-9h.3s.1.1.1.3-.9 8.9-1 10.2-.1 2.1.5 3.8 2.1 2.3 2.7 2.4c1.2.4 2.5.3 3.7-.2.7-.3 1.5-1.2 2.2-2.1s1.2-2.2 1.3-3.1c.1-.8-1.3-9-1.6-10.8v-.6c.2-1.1.6-2.1 1-3 0-.1.2-.2.3-.2s.2.1.3.2c.2.4.8 1.6 1 2.4.2 1 1.1 10 1.3 11s.9 3.3 2.7 4.8 6.1.5 7.3-1.3c0 0 .3-.5.3-1 0 0-1.3-2.7-2.3-5.4-1-2.8-2-7.1-2.1-8.2l-.3-.3.5-3.3c0-.2.2-.3.3-.3 0 .5.1.5.2.6zm-37.1.6l3.2 7.6v1.1l-1.3-1.4c-.1-.1-.1-.1-.2-.1-.2 0-.3.2-.3.3.5 3.7 5.1 35.6 5.4 38.1 0 0 .3 3.9.2 5.3-.1 1.1-.7 3.3-.9 4 0 .2-.2.3-.3.3-.2 0-.4-.2-.4-.4 0-1.3.1-5.5-.2-7.5-.4-2.4-6.1-42.5-6.1-42.5l-.5-1.3.8-3.5c0-.2.2-.3.4-.3-.1.1.1.2.2.3z"/><path class="st1" d="M93.7 99.3l3 5v1.2l-1.3-1-.2.3s3 7.5 3.4 9.6c0 0 .2 2.1.1 3.3-.2 1.2-2.2 5.2-4.7 5.8-2.5.5-4.2-.1-5.1-.6-.8-.5-2.9-3.3-3.2-5.8 0 0-.6 5-3.2 6.8s-5.5 1.7-7.9-1-2-5.8-2-6.3c0-.3.4-3.2.5-4.5.1-.4.6-4.3.6-4.3 0-.1-.2-.3-.8.5 0 0-1.1 2.4-1.4 3.7-.3 1.4-.8 3.6-1 5s-.7 4.6-1.3 5.8-2.9 3.3-4.5.1c-1.6-3.1-1.7-7-1.7-8.7-.1-1.8.2-4.2.2-4.2l.4-.6h.1c0 .7-.1 4 .1 5.7.2 1.9 1 3.8 1.4 4.4.6 1.1 2.4 1.1 3.1.1s1.6-5.7 2-7.2 2.4-8.8 4.7-9h.3s.1.1.1.3-.9 8.9-1 10.2-.1 2.1.5 3.8c.6 1.6 2.1 2.3 2.7 2.4 1.2.4 2.5.3 3.7-.2.7-.3 1.5-1.2 2.2-2.1s1.2-2.2 1.3-3.1c.1-.8-1.3-9-1.6-10.8v-.6c.2-1.1.6-2.1 1-3 0-.1.2-.2.3-.2s.2.1.3.2c.2.4.8 1.6 1 2.4.2 1 1.1 10 1.3 11s.9 3.3 2.7 4.8 6.1.5 7.3-1.3c0 0 .3-.5.3-1 0 0-1.3-2.7-2.3-5.4-1-2.8-2-7.1-2.1-8.2l-.3-.3.5-3.3c0-.2.2-.3.3-.3.1.4.2.5.2.6z"/></g></switch></svg>