<svg xmlns="http://www.w3.org/2000/svg" xmlns:xlink="http://www.w3.org/1999/xlink" viewBox="0 0 285.8 285.8"><switch><g><defs><circle id="a" cx="141.1" cy="142.9" r="132.5"/></defs><clipPath id="b"><use xlink:href="#a"/></clipPath><path clip-path="url(#b)" fill="#2352a0" d="M-10.7-.2h313V286h-313z"/><path d="M143.2 32.3l3.5 10.8H158l-9.1 6.6 3.5 10.8-9.2-6.7-9.2 6.7 3.5-10.8-9.1-6.6h11.3zm0 190l3.5 10.7H158l-9.1 6.7 3.5 10.7-9.2-6.6-9.2 6.6 3.5-10.7-9.1-6.7h11.3zm-95.5-95.9l3.5 10.8h11.3l-9.1 6.6 3.5 10.8-9.2-6.6-9.1 6.6 3.5-10.8-9.2-6.6h11.3zm191 0l3.5 10.8h11.3l-9.2 6.6 3.5 10.8-9.1-6.6-9.2 6.6 3.5-10.8-9.1-6.6h11.3zm-12.6-46.5l3.5 10.7h11.3l-9.1 6.7 3.5 10.8-9.2-6.7-9.1 6.7 3.5-10.8-9.2-6.7h11.3zm-165.5 0l3.5 10.7h11.3l-9.1 6.7 3.5 10.8-9.2-6.7-9.1 6.7L55 97.3l-9.2-6.7h11.3zm165.5 95.8l3.5 10.8h11.3l-9.1 6.6 3.5 10.8-9.2-6.7-9.1 6.7 3.5-10.8-9.2-6.6h11.3zm-165.5 0l3.5 10.8h11.3l-9.1 6.6 3.5 10.8-9.2-6.7-9.1 6.7 3.5-10.8-9.2-6.6h11.3zm35-131.2l3.5 10.8h11.3l-9.1 6.7 3.5 10.7-9.2-6.6-9.1 6.6L90 62l-9.2-6.7h11.3zm95.5 0l3.5 10.8h11.3l-9.1 6.7 3.5 10.7-9.2-6.6-9.1 6.6 3.5-10.7-9.2-6.7h11.3zM95.6 209.7l3.5 10.7h11.3l-9.1 6.7 3.5 10.8-9.2-6.7-9.1 6.7 3.5-10.8-9.2-6.7h11.3zm95.5 0l3.5 10.7h11.3l-9.1 6.7 3.5 10.8-9.2-6.7-9.1 6.7 3.5-10.8-9.2-6.7h11.3z" fill="#ffee5b"/></g></switch></svg>