<svg xmlns="http://www.w3.org/2000/svg" xmlns:xlink="http://www.w3.org/1999/xlink" viewBox="0 0 285.8 285.8"><style>.st2{clip-path:url(#b)}.st3{fill:#fff}.st4{fill:#ab2617}.st5{clip-path:url(#a);fill:#fff}</style><switch><g><defs><circle id="d" cx="141.1" cy="142.5" r="132.5"/></defs><clipPath id="a"><use xlink:href="#d"/></clipPath><path clip-path="url(#a)" fill="#2352a0" d="M-1.6 10h371.9v265H-1.6z"/><g clip-path="url(#a)"><defs><path id="c" d="M-11.6-10.1H140v151.6H-11.6z"/></defs><clipPath id="b"><use xlink:href="#c"/></clipPath><g class="st2"><path class="st3" d="M-52.666-14.342l16.122-16.122 76.296 76.296L23.63 61.954z"/></g><g class="st2"><path class="st4" d="M-49.47-17.556l6.435-6.434L33.26 52.306l-6.435 6.434z"/></g><g class="st2"><path class="st3" d="M64.334 45.767L140.63-30.53l16.122 16.121L80.456 61.89z"/></g><g class="st2"><path class="st4" d="M67.548 48.963l76.296-76.296 6.435 6.434-76.296 76.297z"/></g><g class="st2"><path class="st3" d="M64.272 101.085l16.122-16.122 76.296 76.296-16.122 16.122z"/></g><g class="st2"><path class="st4" d="M70.763 94.613l6.434-6.435 76.296 76.296-6.434 6.435z"/></g><g class="st2"><path class="st3" d="M-46.636 161.312L29.66 85.016l16.122 16.122-76.296 76.296z"/></g><g class="st2"><path class="st4" d="M-40.162 167.661l76.296-76.296L42.57 97.8l-76.296 76.296z"/></g><g class="st2"><path class="st4" d="M158.4 60.5H66.5v-91.9H37.6v91.9h-92v28.9h92v91.9h28.9V89.4h91.9z"/><path class="st3" d="M66.5-31.4v91.9h91.9v28.9H66.5v91.9H37.6V89.4h-91.9V60.5h91.9v-91.9h28.9m14.2-14.3H23.3v92h-92v57.5h92v92h57.5v-92h92V46.3H80.7v-92z"/></g></g><path class="st5" d="M33.2 244.7l17.7-20.4 17.7 20.4-17.7-76.1z"/><path class="st5" d="M21 182.8l15.8 21.9-23.9 12.5 78.1.2z"/><path class="st5" d="M82.9 182.8l-15.8 21.9L91 217.2l-78.1.2zm117-41.1l8.7-10 8.7 10-8.7-37.3z"/><path class="st5" d="M193.9 111.3l7.7 10.7-11.7 6.2 38.4.1z"/><path class="st5" d="M224.3 111.3l-7.8 10.7 11.8 6.2-38.4.1z"/></g></switch></svg>