<svg xmlns="http://www.w3.org/2000/svg" xmlns:xlink="http://www.w3.org/1999/xlink" viewBox="0 0 285.8 285.8"><style>.st1{clip-path:url(#a)}.st2{fill:#fff}.st3{fill:#ab2617}</style><switch><g><defs><circle id="b" cx="142.9" cy="142.9" r="132.5"/></defs><clipPath id="a"><use xlink:href="#b"/></clipPath><path clip-path="url(#a)" fill="#2352a0" d="M-97.7-85.4h481.1V355H-97.7z"/><g class="st1"><path class="st2" d="M2.414 22.014L24.05.377l102.388 102.388-21.637 21.637z"/></g><g class="st1"><path class="st3" d="M6.685 17.654l8.627-8.627L117.7 111.415l-8.627 8.627z"/></g><g class="st1"><path class="st2" d="M159.408 102.757L261.796.368l21.638 21.638-102.388 102.388z"/></g><g class="st1"><path class="st3" d="M163.697 107.102L266.085 4.714l8.627 8.626-102.388 102.388z"/></g><g class="st1"><path class="st2" d="M159.374 176.915l21.637-21.637L283.4 257.666l-21.637 21.638z"/></g><g class="st1"><path class="st3" d="M168.041 168.34l8.627-8.626 102.388 102.388-8.627 8.626z"/></g><g class="st1"><path class="st2" d="M10.566 257.643l102.388-102.388 21.637 21.637L32.203 279.28z"/></g><g class="st1"><path class="st3" d="M19.221 266.389L121.61 164l8.626 8.626L27.848 275.015z"/></g><g class="st1"><path class="st3" d="M285.6 122.5H162.3V-.8h-38.8v123.3H.2v38.7h123.3v123.4h38.8V161.2h123.3z"/><path class="st2" d="M162.3-.8v123.3h123.3v38.7H162.3v123.3h-38.7V161.2H.2v-38.7h123.3V-.8h38.8m14.2-14.3h-67.3v123.4H-14.1v67.3h123.4V299h67.3V175.5H300v-67.3H176.5V-15.1z"/></g></g></switch></svg>