<svg xmlns="http://www.w3.org/2000/svg" xmlns:xlink="http://www.w3.org/1999/xlink" viewBox="0 0 285.8 285.8"><style>.st0{clip-path:url(#a);fill:#ab2617}</style><switch><g><defs><circle id="b" cx="141.6" cy="142.9" r="132.5"/></defs><clipPath id="a"><use xlink:href="#b"/></clipPath><path class="st0" d="M10.4 10.4h88.3v265H10.4zm176.7 0h88.3v265h-88.3z"/><path clip-path="url(#a)" fill="#fff" d="M65.5 10.4h152.2v265H65.5z"/><path class="st0" d="M166.7 167.8l26-22.2-9.1-2 5.7-17.5-17.4 5.7-.2-.1-2.1-9.2-13.8 16.3 5.9-33.2-9.6 6-.3-.1-9.9-19.6-10 19.7-9.6-6 6.1 34.3-14.8-17.4-2.1 9.2-.2.1-17.3-5.7 5.7 17.5-9.2 2 26.4 22.5-2.5 9.4 24.7-4.2 2.1 2.9-1 25.6h3.8l-1-25.6 2-2.9 24.6 4.2-2.5-9.4z"/></g></switch></svg>