<svg xmlns="http://www.w3.org/2000/svg" viewBox="0 0 285.8 285.8"><path d="M18 187.1c18.2 51.4 67.3 88.3 124.9 88.3h.1c57.6 0 106.7-36.9 124.9-88.3H18z" fill="#010101"/><path d="M18 98.7c-4.5 12.6-7.1 26-7.5 40v8.4c.4 14 3 27.4 7.5 40h249.9c4.9-13.8 7.6-28.7 7.6-44.1v-.1c0-15.5-2.7-30.3-7.6-44.1H18z" fill="#fff"/><path d="M18 98.7h249.9C249.7 47.3 200.5 10.4 143 10.4c-57.7 0-106.8 36.9-125 88.3z" fill="#147b4d"/><path d="M91.4 20.8c-47.6 20.1-81 67.3-81 122.1s33.5 102 81 122.1V20.8z" fill="#ab2617"/><circle cx="142.9" cy="142.9" r="132.5" fill="none"/></svg>