<svg xmlns="http://www.w3.org/2000/svg" viewBox="0 0 285.8 285.8"><path d="M18 187.1c18.2 51.4 67.3 88.3 124.9 88.3 57.5 0 106.6-36.9 124.9-88.3H18z" fill="#ab2617"/><path d="M10.4 142.9c0 15.5 2.7 30.3 7.6 44.1h249.8c4.9-13.8 7.6-28.7 7.6-44.1 0-15.5-2.7-30.4-7.6-44.2H18.1c-5 13.8-7.7 28.7-7.7 44.2z" fill="#fff"/><path d="M18 98.7h249.7c-18.2-51.4-67.3-88.3-124.9-88.3C85.3 10.4 36.3 47.3 18 98.7z" fill="#147b4d"/><path d="M10.4 142.9c0 35.5 14.1 67.9 37 91.7l87.7-47.5V98.7L46.7 51.9c-22.5 23.8-36.3 55.8-36.3 91z" fill="#010101"/><circle cx="142.9" cy="144.2" r="132.5" fill="none"/></svg>