<svg xmlns="http://www.w3.org/2000/svg" xmlns:xlink="http://www.w3.org/1999/xlink" viewBox="0 0 285.8 285.8"><style>.st1,.st2{clip-path:url(#a);fill:#fff}.st2{fill:#ab2617}</style><switch><g><defs><circle id="b" cx="141.6" cy="142.9" r="132.5"/></defs><clipPath id="a"><use xlink:href="#b"/></clipPath><path clip-path="url(#a)" fill="#2352a0" d="M-98.9-85.4h481.1V355H-98.9z"/><path class="st1" d="M141.6 10.4h229.3v32.9H141.6z"/><path class="st2" d="M141.6 43.2h229.3v32.9H141.6z"/><path class="st1" d="M141.6 76.1h229.3V109H141.6z"/><path class="st2" d="M141.6 108.9h229.3v32.9H141.6z"/><path class="st1" d="M-1 141.8h371.9v32.9H-1z"/><path class="st2" d="M-1 174.6h371.9v32.9H-1z"/><path class="st1" d="M-1 207.5h371.9v32.9H-1z"/><path class="st2" d="M-1 240.4h371.9v32.9H-1z"/><path class="st1" d="M110.9 92.9l3.5 10.6h11.2l-9.1 6.5 3.5 10.7-9.1-6.6-9 6.6 3.5-10.7-9.1-6.5h11.2zm-40.7 0l3.4 10.6h11.2l-9.1 6.5 3.5 10.7-9-6.6-9.1 6.6 3.5-10.7-9.1-6.5h11.2zm40.7-41l3.5 10.6h11.2l-9.1 6.6 3.5 10.6-9.1-6.6-9 6.6 3.5-10.6-9.1-6.6h11.2zm-40.7 0l3.4 10.6h11.2l-9.1 6.6 3.5 10.6-9-6.6-9.1 6.6 3.5-10.6-9.1-6.6h11.2zm40.7-41l3.5 10.6h11.2l-9.1 6.6 3.5 10.6-9.1-6.6-9 6.6 3.5-10.6-9.1-6.6h11.2zm-40.7 0l3.4 10.6h11.2l-9.1 6.6 3.5 10.6-9-6.6-9.1 6.6 3.5-10.6-9.1-6.6h11.2zm-40.8 82l3.4 10.6H44l-9 6.5 3.4 10.7-9-6.6-9.1 6.6 3.5-10.7-9-6.5h11.1z"/></g></switch></svg>